<?xml version="1.0" encoding="UTF-8"?>
<svg id="Layer_31" data-name="Layer 31" xmlns="http://www.w3.org/2000/svg" xmlns:xlink="http://www.w3.org/1999/xlink" viewBox="0 0 2880 1310">
  <g id="Layer_7" transform="translate(0, 0)">
    <path d="M2873.275,563.09 L2873.275,563.13 C2754.085,564.48 2702.705,602.87 2623.765,606.26 C2543.415,609.71 2518.165,633.67 2442.035,609.71 C2411.755,600.18 2387.385,590.9 2368.095,582.93 C2338.875,570.84 2321.285,561.73 2312.455,559.24 C2312.435,559.24 2312.415,559.24 2312.405,559.22 C2306.225,557.48 2299.595,555.51 2293.995,553.83 C2289.585,552.36 2285.155,550.89 2280.635,549.75 C2280.595,549.75 2280.585,549.73 2280.585,549.73 C2276.875,548.8 2273.055,548.06 2269.215,548.42 C2266.815,548.69 2264.455,549.23 2262.095,549.69 C2255.415,551.04 2248.705,552.33 2241.985,553.48 C2218.685,557.44 2196.095,564.49 2173.405,570.96 C2160.925,574.58 2147.965,576.38 2135.535,580.2 C2130.835,581.83 2126.095,583.35 2121.365,584.88 C2118.785,585.72 2116.225,586.56 2113.665,587.42 C2110.085,588.1 2106.465,588.65 2102.895,589.3 C2096.695,590.4 2090.565,591.84 2084.415,593.21 C2083.095,593.45 2081.775,593.71 2080.465,593.98 C2080.245,593.93 2080.025,593.9 2079.805,593.85 C2075.535,593.04 2071.285,592.24 2066.995,591.61 C2057.825,590.6 2048.605,590.11 2039.475,588.71 C2030.305,587.34 2021.115,586.07 2011.815,586.48 C2004.685,586.6 1997.575,586.42 1990.405,585.69 C1979.925,584.97 1969.445,584.22 1958.975,583.28 C1950.645,582.35 1942.475,580.04 1934.045,580.04 C1926.215,580.23 1918.335,581.37 1910.795,583.52 C1901.775,586.32 1893.205,590.33 1884.415,593.78 C1876.495,597.05 1868.665,600.59 1860.515,603.27 C1850.885,606.46 1840.985,608.68 1831.115,610.93 C1824.175,612.53 1817.295,614.39 1810.385,616.13 C1810.625,616.21 1810.865,616.3 1811.095,616.4 C1811.385,616.45 1811.655,616.51 1811.935,616.6 C1812.365,616.74 1812.755,616.96 1813.125,617.23 C1813.565,617.43 1814.005,617.63 1814.435,617.85 C1814.815,617.97 1815.185,618.12 1815.535,618.3 C1815.905,618.2 1816.275,618.1 1816.635,618.01 C1816.485,619.94 1817.705,622.31 1820.145,624.77 C1822.715,627.15 1826.065,628.39 1829.285,629.63 C1835.105,631.72 1840.985,633.61 1846.895,635.39 C1853.195,637.24 1859.635,638.73 1866.165,639.4 C1870.275,639.86 1874.405,639.79 1878.535,640.04 C1884.585,640.41 1890.615,641.15 1896.665,641.46 C1896.875,641.48 1897.095,641.49 1897.315,641.5 C1912.985,642.38 1928.075,637.25 1943.565,636.06 C1956.705,634.56 1970.005,633.83 1982.905,630.76 C1991.295,628.91 1999.145,625.39 2007.095,622.24 C2009.425,621.35 2011.775,620.54 2014.135,619.78 C2017.815,620.41 2021.515,620.96 2025.235,621.34 C2030.265,621.91 2035.335,622.03 2040.375,622.41 C2049.345,623.31 2058.315,624.32 2067.305,624.93 C2095.405,626.92 2123.045,620.15 2150.395,614.68 C2162.555,612.09 2174.645,609.22 2186.865,606.95 C2198.975,604.71 2211.125,602.68 2223.185,600.14 C2228.705,599.02 2234.215,597.7 2239.855,597.28 C2250.185,596.58 2260.535,596.57 2270.875,596.83 C2276.535,597.07 2282.205,597.26 2287.855,597.55 L2291.305,620.21 L2606.595,685.9 L2873.255,670.76 L2873.255,1314.74 L2903.155,1314.74 L2903.155,563.08 L2873.255,563.08 z" fill="#DDB991"/>
    <path d="M2879.745,640.04 C2879.685,640.04 2879.615,640.04 2879.555,640.04 L2879.555,640.04 C2879.555,640.04 2879.745,640.04 2879.745,640.04 z" fill="#CC6935"/>
    <path d="M2879.745,1153.72 L2848.575,617.11 L2167.475,737.56 L1366.645,678.86 L1205.515,621.72 C1208.905,617.53 1213.165,611.74 1211.745,606.98 C1211.375,605.99 1210.645,605.26 1209.715,604.66 C1209.715,604.66 1209.735,604.64 1209.745,604.64 C1209.825,604.57 1209.915,604.5 1210.005,604.43 C1209.695,604.31 1183.755,595.72 1172.265,592.31 C1163.635,589.83 1155.175,586.8 1146.715,583.78 C1141.555,581.9 1136.835,579.92 1131.755,577.59 C1123.935,574.1 1115.975,570.92 1108.005,567.8 C1100.215,564.75 1091.965,561.92 1083.495,562.38 C1080.665,562.49 1077.935,563.35 1075.185,563.95 C1061.115,567.07 1047.295,571.12 1033.325,574.63 C1026.725,576.32 1020.055,577.94 1013.375,579.55 C1013.325,579.53 1013.265,579.53 1013.205,579.52 C1012.935,579.5 1012.685,579.59 1012.485,579.74 C1012.345,579.79 1012.225,579.82 1012.105,579.86 C1008.695,580.68 1005.275,581.5 1001.875,582.34 C997.205,583.28 992.495,584.02 987.775,584.72 C976.095,586.79 964.625,589.29 952.805,590.67 C915.355,594.51 877.435,594.48 840.105,589.23 C830.685,587.85 821.205,586.69 811.955,584.38 C806.735,582.96 801.535,581.28 796.365,579.63 C794.285,578.96 792.225,578.26 790.165,577.56 C790.565,577.51 790.965,577.46 791.365,577.42 C793.215,577.2 795.065,577 796.915,576.77 C798.305,576.6 799.705,576.4 801.095,576.22 C792.905,575.1 784.705,574 776.475,573.11 C752.095,569.69 727.485,568.15 703.195,564.09 C693.605,562.59 684.265,559.86 674.775,557.88 C667.285,556.32 659.705,555.28 652.175,553.92 C648.565,553.3 644.985,552.47 641.355,552 C635.805,551.3 630.235,550.37 624.635,550.65 C619.315,550.87 614.055,551.61 608.795,552.34 C595.965,553.89 583.645,558.29 571.075,561.21 C561.475,563.49 551.795,566.03 542.095,568.45 C521.485,572.73 494.465,576.87 468.375,576.52 C415.755,575.81 376.255,605.81 251.105,610.58 C126.325,615.33 95.395,563.4 0.605,563.09 L0.605,563.09 C0.605,563.09 -29.295,563.09 -29.295,563.09 L-29.295,1314.75 L0.585,1314.75 L0.585,1125.22 L2879.745,1153.71 z" fill="#DDB991"/>
    <path d="M-29.295,640.04 L1173.017,617.691 L1530.482,548.327 L2014.135,619.78 L2272.289,582.751 L2489.994,640.04 L2908.805,640.04 L2908.805,1313.89 L-29.295,1313.89 L-29.295,640.04 z" fill="#DDB991"/>
  </g>
</svg>
