<?xml version="1.0" encoding="UTF-8"?>
<svg id="Layer_31" data-name="Layer 31" xmlns="http://www.w3.org/2000/svg" xmlns:xlink="http://www.w3.org/1999/xlink" viewBox="0 0 2880 1310">
  <defs>
    <style>
      .cls-13 {
        fill: #340000;
      }
    </style>
  </defs>
  <g class="cls-1">
    <path class="cls-13" d="m2879.93,901.26c-.05.03-.14.08-.26.15-4.8,2.82-62.78,35.07-219.85,41.86-73.65,3.18-362.95-79.71-436.66-79.06-13.79.13-189.39-25.61-191.81-25.56-2.66.05-5.33.05-7.99.05h-.73c-10.57,0-21.13-.41-31.68-.99-5.68-.31-11.35-.65-17.02-1.03-5.89-.38-11.78-.73-17.65-1.27-6.07-.56-12.11-1.32-18.14-2.15-6.22-.88-12.39-1.96-18.56-3.09-4.73-.86-9.44-1.76-14.15-2.69-1.25-.15-2.5-.29-3.74-.44-5.57-.69-11.13-1.42-16.68-2.18-5.76-.79-11.5-1.6-17.21-2.62-5.78-1.04-11.55-2.1-17.33-3.16-5.6-1.02-11.2-2.07-16.78-3.23-7.59-1.58-15.18-3.19-22.74-4.93-5.58-1.28-11.14-2.66-16.7-4.01-5.62-1.37-11.25-2.75-16.86-4.17-4.27-1.08-8.51-2.22-12.76-3.36-4.38-1.18-8.76-2.34-13.14-3.53-4.16-1.14-8.34-2.29-12.48-3.51-4.85-1.36-9.68-2.79-14.53-4.17-4.6-1.31-9.2-2.63-13.8-3.98-6.54-1.92-13.02-4.05-19.45-6.3-48.84-12.32-97.34-25.95-145.51-40.56-8.2-2.21-16.42-4.49-24.85-5.6-11.15-.89-22.36-.66-33.52.02-.45-8.27-.29-16.57-.12-24.85.28-9.9.71-19.79,1.16-29.68.35-6.24,1.11-12.47.81-18.73-.01-.09-.01-.17-.01-.26,2.22-1.43,4.31-3.07,6.12-5.04.01,0,.01,0,.01,0,.32-.28.61-.57.81-.84.89-.44.85-1.95,1.01-2.88.26-1.33.14-2.65-.24-3.92h0c-.04-.21-.09-.41-.13-.61-.18-.71-.4-1.39-.66-2.06-.2-1.03-.33-2.12-.57-3.14.79-.38,1.2-1.59,1.62-2.36,1.12-3.78,0-7.45-.22-11.34-.05-.51-.27-3.6-.7-5.92,1.53-2.33,3.36-4.77,2.74-7.65-.39-1.61-1.31-3.16-1.63-4.83-.94-3.64.44-7.34.95-10.94,1.02-4.64,3.2-8.94,4.09-13.6.33-1.73.9-3.52.34-5.26-.04-.19-.18-.83-.37-1.6-.01-.46-.06-.91-.15-1.37-.07-1.01-.76-1.81-.85-2.8-.02-.17-.06-.47-.09-.7h0c-.05-.21-.05-.56-.11-.87,1.21-.94,2.28-2.02,3.1-3.34.15-.26.18-.51.13-.69.02-.18-.02-.37-.15-.53-.18-.24-.36-.48-.56-.71-1.21-1.22-2.18-2.73-3.48-3.91-.03-.07-.06-.12-.09-.17-.01-.3-.18-.63-.22-.92-.16-.68-.27-1.41-.41-2.1-.44-2.48-1.25-4.88-1.99-7.29-.49-1.67-.96-3.34-1.54-4.98-.38-1.27-.83-2.53-1.52-3.67.28-.38.48-.8.48-1.31,0-.16-.03-.31-.07-.46,0-.02.01-.03.01-.05.02-1.15-.83-2.12-1.43-3.04-.74-1.02-1.4-2.1-2.17-3.1-2.57-3.26-6.22-7.02-10.54-7.34-.39-.06-.78-.09-1.18-.08-1.6-.26-3.25-.1-4.82.33-2.17.54-4.27,1.64-6.01,2.88-4.32,3.57-5.32,9.01-5.46,14.47-1.49,1.47-3.2,2.77-4.72,4.21-.9.77-1.74,1.63-2.59,2.46-.49.37-.97,1.02-.68,1.59.07.32.4.74.69,1.04,1.12,1.74,4.16,3.51,5.42,4.42.11.12.23.17.36.2.13.06.26.09.42.1.1.04.22.05.33.02.62.06,1.28-.14,1.89-.19.42-.07.85-.1,1.27-.13,1.56-.03,3.11-.06,4.67-.04-.59.35-1.26.58-1.96.55-1.2.06-2.28.16-3.5.19-.8.04-3.12-.05-3.74.8-.35.21-.68.5-.82.71-3.42,4.65-7.65,8.95-9.67,14.48-.73,3.19-.04,6.48.32,9.67.62,7.25,2.35,14.3,4.54,21.24.02.08.05.15.08.2.01.2.01.39.03.58.05.9.11,1.84.2,2.77-1.55.11-3.1.18-4.63.52-.69.25-1.38.51-2.06.77-.24.08-.61.22-.65.5-.02.05-.02.1-.01.15-.1.18-.13.41-.14.64-.2.69-.26,1.5.02,2.15.02.05.04.09.07.13.12.94,1.03,1.54,1.69,2.15,1.02.78,2,1.6,2.94,2.48l-.05.43c-.17,2.13-.28,4.27-.32,6.41.06.94-.28,2.11.37,2.9.1.16.25.24.42.26.16.12.35.18.52.19.77-.02,1.49-.11,2.23-.14-.65,1.37-1.19,2.64-2.32,3.94-.52.94-2.71,1.89-1.48,3.08.06.03.11.06.17.1.16.12.37.24.5.28.49.35,1.02.63,1.56.91.03.03.07.06.11.08.42,3.11.46,6.51.18,9.66-.14.83,0,1.72-.28,2.55-.52,1.81-.97,3.63-1.34,5.48-.28,1.29-.77,2.82.01,4.07.56.75,1.48,1.02,2.32,1.33,1.56.55,3.1,1.14,4.68,1.63.28,3.18.35,6.38.34,9.59-.07,2.52-.09,5.06-.11,7.62-.33,4.7-.48,9.44-.56,14.18-.42,5.91-.69,11.85-1.19,17.76-.75,7.92-1.78,15.81-2.73,23.7-11,1.64-21.86,4.06-32.27,7.98-32.68,12.26-64.14,27.6-97.21,38.87-27.29,10.12-55.06,18.79-82.84,27.43-35.94,11.28-71.9,22.52-107.85,33.78-85.28,27.26-178.32,50.23-273.1,51.71-31.49.49-393.33-119.35-449.7-117.59C306.24,780.38,0,901.21,0,901.21v.05h-32.11v413.87H.84v-.38h2878.83v.38h32.95v-413.87h-32.69Zm-1420.79-166.86s-.03.01-.03.01c0-.09.01-.18.03-.26v.25Zm34.34-191.23c.05-.05.12-.11.17-.16,1.1,3.88,2.45,7.7,3.56,11.57.63,2.18.83,4.46,1.42,6.66-.37-.07-.82-.05-1.43.06-.36.05-.75.04-1.12.02.03-.12.02-.26-.01-.39-.32-1.12-.81-2.19-1.16-3.3-1.06-3.48-2.27-6.89-3.85-10.17-.17-.46-.35-.95-.56-1.44,1.25-.9,2.68-2.47,2.98-2.85Zm-10.18,24.82c-.05-.08-.11-.16-.15-.24,0,0,.01,0,.01,0,.52-.89,1.4-1.64,1.81-2.63.14-1-.3-2-.41-2.99-.04-.35-.05-.72-.05-1.08.19.37.39.74.56,1.12.58,1.19,1.17,2.38,1.96,3.42.27.43.7.94,1.03,1.28.05.08.11.16.15.24.05.07.11.13.18.17.08.06.15.09.23.09.3,0,.58-.41.82-.56.63-.43,1.27-.9,1.9-1.37.42-.25.84-.49,1.3-.69.36-.19.73-.38,1.11-.56.04.03.08.04.12.06.11.06.2.14.27.23-.06.07-.12.14-.2.2-1.13,1.12-2.51,2-3.83,2.88-.44.16-.83.53-.83.97,0,.07.01.13.03.2.03.21.15.42.22.61.71,1.35,1.62,2.59,2.51,3.83.16.23.28.47.47.68.14.23.29.48.55.6.06.04.12.07.18.1.97.29,1.79-.51,2.72-.81.99-.55,2.01-1.12,3.01-1.74-.05.45-.16.89-.28,1.32-.1.32-.23.65-.38.98-1.77,1.33-3.93,2.02-6.14,2.34-.64-.59-1.26-1.2-1.87-1.83-2.16-2.41-4.76-4.44-6.98-6.8-.01,0-.01,0-.02,0Z"/>
  </g>
</svg>