<?xml version="1.0" encoding="UTF-8"?>
<svg id="Layer_31" data-name="Layer 31" xmlns="http://www.w3.org/2000/svg" xmlns:xlink="http://www.w3.org/1999/xlink" viewBox="0 0 2880 1310">
  <defs>
    <style>
      .cls-1 {
        clip-path: url(#clippath);
      }

      .cls-2 {
        fill: none;
      }

      .cls-2, .cls-3, .cls-4, .cls-5, .cls-6, .cls-7, .cls-8, .cls-9, .cls-10, .cls-11, .cls-12, .cls-13, .cls-14 {
        stroke-width: 0px;
      }

      .cls-3 {
        fill: url(#radial-gradient);
      }

      .cls-4 {
        fill: #701e13;
      }

      .cls-5 {
        fill: #3f0b0b;
      }

      .cls-6 {
        fill: #c64f21;
      }

      .cls-7 {
        fill: #d2854a;
      }

      .cls-8 {
        fill: #cc6935;
      }

      .cls-9 {
        fill: #ddb991;
      }

      .cls-10 {
        fill: #e2d3b9;
      }

      .cls-11 {
        fill: #d79f6a;
      }

      .cls-12 {
        fill: #baaea6;
      }

      .cls-13 {
        fill: #340000;
      }

      .cls-14 {
        fill: #9b3118;
      }
    </style>
    <clipPath id="clippath">
      <rect class="cls-2" x="-14.72" y="-4.3" width="2905.65" height="1319.43"/>
    </clipPath>
    <radialGradient id="radial-gradient" cx="1441.38" cy="350.58" fx="1441.38" fy="350.58" r="882.18" gradientTransform="translate(-2.76)" gradientUnits="userSpaceOnUse">
      <stop offset="0" stop-color="#fdf6ec"/>
      <stop offset=".26" stop-color="#e3d8c0"/>
      <stop offset=".36" stop-color="#ded3be"/>
      <stop offset=".64" stop-color="#d4cbbb"/>
      <stop offset="1" stop-color="#baaea6"/>
    </radialGradient>
  </defs>
  <g class="cls-1">
    <rect class="cls-12" x="-29.06" y="-3.9" width="2938.12" height="1317.79"/>
    <rect class="cls-3" x="511.66" y="-483.87" width="1856.69" height="1668.89"/>
    <path class="cls-9" d="m2873.53,563.09v.04c-119.19,1.35-170.57,39.74-249.51,43.13-80.35,3.45-105.6,27.41-181.73,3.45-30.28-9.53-54.65-18.81-73.94-26.78-29.22-12.09-46.81-21.2-55.64-23.69-.02,0-.04,0-.05-.02-6.18-1.74-12.81-3.71-18.41-5.39-4.41-1.47-8.84-2.94-13.36-4.08-.04,0-.05-.02-.05-.02-3.71-.93-7.53-1.67-11.37-1.31-2.4.27-4.76.81-7.12,1.27-6.68,1.35-13.39,2.64-20.11,3.79-23.3,3.96-45.89,11.01-68.58,17.48-12.48,3.62-25.44,5.42-37.87,9.24-4.7,1.63-9.44,3.15-14.17,4.68-2.58.84-5.14,1.68-7.7,2.54-3.58.68-7.2,1.23-10.77,1.88-6.2,1.1-12.33,2.54-18.48,3.91-1.32.24-2.64.5-3.95.77-.22-.05-.44-.08-.66-.13-4.27-.81-8.52-1.61-12.81-2.24-9.17-1.01-18.39-1.5-27.52-2.9-9.17-1.37-18.36-2.64-27.66-2.23-7.13.12-14.24-.06-21.41-.79-10.48-.72-20.96-1.47-31.43-2.41-8.33-.93-16.5-3.24-24.93-3.24-7.83.19-15.71,1.33-23.25,3.48-9.02,2.8-17.59,6.81-26.38,10.26-7.92,3.27-15.75,6.81-23.9,9.49-9.63,3.19-19.53,5.41-29.4,7.66-6.94,1.6-13.82,3.46-20.73,5.2.24.08.48.17.71.27.29.05.56.11.84.2.43.14.82.36,1.19.63.44.2.88.4,1.31.62.38.12.75.27,1.1.45.37-.1.74-.2,1.1-.29-.15,1.93,1.07,4.3,3.51,6.76,2.57,2.38,5.92,3.62,9.14,4.86,5.82,2.09,11.7,3.98,17.61,5.76,6.3,1.85,12.74,3.34,19.27,4.01,4.11.46,8.24.39,12.37.64,6.05.37,12.08,1.11,18.13,1.42.21.02.43.03.65.04,15.67.88,30.76-4.25,46.25-5.44,13.14-1.5,26.44-2.23,39.34-5.3,8.39-1.85,16.24-5.37,24.19-8.52,2.33-.89,4.68-1.7,7.04-2.46,3.68.63,7.38,1.18,11.1,1.56,5.03.57,10.1.69,15.14,1.07,8.97.9,17.94,1.91,26.93,2.52,28.1,1.99,55.74-4.78,83.09-10.25,12.16-2.59,24.25-5.46,36.47-7.73,12.11-2.24,24.26-4.27,36.32-6.81,5.52-1.12,11.03-2.44,16.67-2.86,10.33-.7,20.68-.71,31.02-.45,5.66.24,11.33.43,16.98.72l3.45,22.66,315.29,65.69,266.66-15.14v643.98h29.9v-751.66h-29.9Z"/>
    <path class="cls-8" d="m2880,640.04c-.06,0-.13,0-.19,0h0s.19,0,.19,0Z"/>
    <path class="cls-9" d="m2880,1153.72l-31.17-536.61-681.1,120.45-800.83-58.7-161.13-57.14c3.39-4.19,7.65-9.98,6.23-14.74-.37-.99-1.1-1.72-2.03-2.32,0,0,.02-.02.03-.02.08-.07.17-.14.26-.21-.31-.12-26.25-8.71-37.74-12.12-8.63-2.48-17.09-5.51-25.55-8.53-5.16-1.88-9.88-3.86-14.96-6.19-7.82-3.49-15.78-6.67-23.75-9.79-7.79-3.05-16.04-5.88-24.51-5.42-2.83.11-5.56.97-8.31,1.57-14.07,3.12-27.89,7.17-41.86,10.68-6.6,1.69-13.27,3.31-19.95,4.92-.05-.02-.11-.02-.17-.03-.27-.02-.52.07-.72.22-.14.05-.26.08-.38.12-3.41.82-6.83,1.64-10.23,2.48-4.67.94-9.38,1.68-14.1,2.38-11.68,2.07-23.15,4.57-34.97,5.95-37.45,3.84-75.37,3.81-112.7-1.44-9.42-1.38-18.9-2.54-28.15-4.85-5.22-1.42-10.42-3.1-15.59-4.75-2.08-.67-4.14-1.37-6.2-2.07.4-.05.8-.1,1.2-.14,1.85-.22,3.7-.42,5.55-.65,1.39-.17,2.79-.37,4.18-.55-8.19-1.12-16.39-2.22-24.62-3.11-24.38-3.42-48.99-4.96-73.28-9.02-9.59-1.5-18.93-4.23-28.42-6.21-7.49-1.56-15.07-2.6-22.6-3.96-3.61-.62-7.19-1.45-10.82-1.92-5.55-.7-11.12-1.63-16.72-1.35-5.32.22-10.58.96-15.84,1.69-12.83,1.55-25.15,5.95-37.72,8.87-9.6,2.28-19.28,4.82-28.98,7.24-20.61,4.28-47.63,8.42-73.72,8.07-52.62-.71-92.12,29.29-217.27,34.06-124.78,4.75-155.71-47.18-250.5-47.49h0s-29.9,0-29.9,0v751.66H.84v-189.53l2879.16,28.49Z"/>
    <path class="cls-8" d="m2909.06,640.04v751.66h-29.25v-726.89c-11.05-1.17-363.97,46.27-369.88,44.07-7.6-2.67-174.88-67.2-182.72-69-7.46-1.59-15.01-4-22.63-4.42-3.09,0-6.22-.04-9.29.19-3.9.5-7.75,1.37-11.64,1.97-11.02,1.85-22.18,2.95-33.28,4.13-14.38,1.5-28.64,3.96-42.66,7.47-13.92,3.18-27.96,5.79-41.9,8.87-15.45,3.53-31.3,5.93-46.61,9.89-1.84.46-3.63.98-5.33,1.59h-.01c-.18.06-.35.12-.53.19.43.11.85.22,1.27.32.36.09.66.22.87.54.55.84-.33,2.07-1.32,1.67-.3-.07-.6-.15-.9-.22-.02,0-.05,0-.08-.02-1.11-.28-2.23-.55-3.34-.81-1.61.73-3.2,1.47-4.85,2.06-.57.22-1.25-.17-1.43-.73-.19-.57.16-1.23.73-1.42.64-.23,1.27-.48,1.88-.73-20.1-4.4-40.77-6.5-61.28-7.07-13.66-.63-27.3,1.27-40.94.07-4.01-.33-7.92-1.32-11.81-2.3-.5-.13-.99-.25-1.5-.38-15.37-3.72-31-6.22-46.53-9.19-6.64-1.09-13.13-2.93-19.7-4.35-8.45-1.78-17.03-2.93-25.37-5.2-.7-.18-1.4-.35-2.09-.53-3.88-.98-7.75-1.99-11.53-3.28-.59-.18-1.22-.61-1.44-1.17-.45-.03-.92-.04-1.38-.05-.4,0-.78,0-1.18,0-.12,0-.25-.03-.38-.04.96-.16,1.92-.31,2.87-.48.03-.14.07-.28.15-.42.93-1.21,2.85-.9,4.21-1.17,2.79-.26,5.56-.55,8.33-.89,9.55-2.07,19.02-4.51,28.56-6.64,7.5-1.55,15.06-2.78,22.58-4.19,16.39-3.16,32.73-6.65,48.96-10.54,21.78-4.58,43.5-9.4,65.23-14.25,6.09-1.32,12.11-2.88,18.12-4.48,10.23-2.7,20.43-5.51,30.84-7.37,3.57-.59,7.14-1.11,10.73-1.62,10.4-1.45,20.84-2.71,31.18-4.65,10.84-1.92,21.79-3.13,32.67-4.82,16.39-2.88,33.04-4.39,49.67-4.96,10.38-.03,20.75.66,31.13,1.26,16.01,1.17,31.87,4.27,47.77,6.13,146.74,17.13,289.38,83.49,565.78,62.22.06,0,.13,0,.19,0h29.06Z"/>
    <path class="cls-10" d="m1617.4,599.64c-1.05.14-2.09.3-3.14.45-1.41.21-2.82.41-4.22.63-.38.06-.76.11-1.14.17-.14.24-.38.42-.72.49-.71.03-1.71.15-2.35.25-7.12,1-13.98,3.16-20.85,5.2-5.25,1.53-10.58,2.82-15.83,4.31-4.67,1.37-9.36,2.61-14.12,3.59-1.62.3-3.25.8-4.9.54-6.32-1.68-12.01-5.2-17.93-7.91-3.95-1.96-8.06-3.57-12.05-5.45-1.57-.74-3.11-1.54-4.66-2.33-.8-.33-1.34-.94-1.52-1.59-.02,0-.05.01-.07.02-.01,0-.03,0-.04.01-.12-.32-.28-.62-.5-.94-.28-.41-.65-.72-1.08-.94,6.48-1.79,13.01-3.44,19.35-5.7,7.28-2.52,14.61-6.03,22.5-5.49,7.83.51,15.56,2.16,23.17,3.98,8.18,2.35,16.23,5.13,24.49,7.15,5.17,1.33,10.35,2.58,15.6,3.56Z"/>
    <path class="cls-11" d="m2172.38,493.16c0-1.4.01-2.81.02-4.21-.02,0-.04,0-.06,0-.95-.04-2.39.2-2.42-1.15,0-.08.01-.16.03-.24-.76,0-1.52-.01-2.28-.01-.08,3.69-.16,7.34-.08,11.08.02.39.03.78.05,1.18,1.56.05,3.14.09,4.7.14.01-2.26.03-4.53.03-6.79Zm.03-7.86c0-1.49.01-2.98.02-4.47-1.56-.32-3.1-.62-4.65-.96,0,.56-.01,1.13-.03,1.69,0,.78,0,1.55-.02,2.32.31.04.59.07.82.06.8.05,1.89-.18,2.15.84.04.2.04.37.01.52.56,0,1.13,0,1.69,0Zm3.96,16.68c.44-.02.87-.03,1.31-.05-.02-3.59-.03-7.18-.04-10.77-.01-3.34-.02-6.67-.03-10.01-.33,0-.66.02-.97.04-.05,3.86-.09,7.71-.14,11.57-.04,3.07-.08,6.14-.12,9.21Zm6.09-15.97c-.15,0-.31.02-.46.02,0,.5,0,1-.01,1.5-.02,2.05-.04,4.11-.05,6.16.17,0,.33,0,.5-.01.01-2.56.03-5.12.03-7.68Zm11.23-1.67c-.07-.48-.13-.95-.18-1.43,0,.02,0,.04,0,.06-.03-.24-.05-.46-.08-.69-1.19-.43-2.5-.9-2.84-2.27l-.02-.05c-.53.21-1.18-.07-1.42-.59-.13-.33-.12-.61-.01-.86-.98-.55-1.88-1.29-2.67-2.13,0,.45,0,.91,0,1.36.36.29.69.63,1.04.9,2.11,1.79,4.37,3.65,6.17,5.7Zm5.23-9.46c1.11-.06,2.84.11,2.39,1.64-.22.59-.85.83-1.41.67-1.76-.14-3.31-.09-5.05-.05-.52.82-1.32,1.3-2.16,1.73,0,.28.06.56.24.79,1.78.66,2.77.9,2.82,3.03.16,1.81.64,3.56.98,5.34.14,1.23-1.39,1.82-2.13.81-.61-.82-1.26-1.6-1.98-2.34,0,0,0,0,0,0-1.91-2.13-3.99-4.01-6.16-5.82-.02,3.22-.04,6.43-.06,9.64-.02,6.09-.06,12.17-.09,18.26-.03,6.02-.07,12.04-.09,18.06-.02,6.03-.06,12.06-.09,18.09-.03,6.13-.07,12.25-.09,18.38-.02,6.12-.05,12.24-.09,18.37-.05,6.24-.05,12.48-.09,18.72-.03,4.62-.05,9.25-.07,13.87,0,.02,0,.05.01.07,0,.08,0,.15-.01.23,0,.65,0,1.31,0,1.96,0,.61-.51,1.13-1.13,1.13-.61,0-1.14-.51-1.13-1.12,0-.33,0-.66,0-.99-6.55.13-13.09,1.05-19.56,1.91-.02.59-.52,1.08-1.12,1.09h0c-.61,0-1.13-.51-1.13-1.12-.04-4.73-.08-9.46-.13-14.19-.04-4.77-.08-9.53-.12-14.29-.05-4.56-.08-9.11-.12-13.67-.03-2.72-.07-5.45-.07-8.17,0-.61.5-1.13,1.12-1.14.07,0,.13,0,.19.02.03,0,.05,0,.08,0,.46-.02.92-.05,1.39-.08-.03-4.21.11-8.48-.6-12.62-.07-.34-.42-.42-.65-.62-.82-.56-1.01-1.55-.96-2.48,0-3.04-.02-6.09.07-9.13.05-1.69.16-3.38.16-5.07,0-.61.51-1.13,1.13-1.13.48.05.77.24.94.54.33-1.86.05-3.87.12-5.74-.25-3.79-.09-7.62-.47-11.4-.03-.2-.17-.58-.23-.7-.63-1.22-.8-2.6-.8-3.98-.28-.21-.47-.54-.47-.91-.05-3.39-.08-6.78-.12-10.16-.02-2.02-.05-4.05-.07-6.07-.02-1.8-.06-3.6-.06-5.4,0-.62.51-1.13,1.13-1.13h0c-.24-5.8-.28-11.65-.7-17.41-1.1-.93.27-2.61,1.45-1.91.2.14.36.32.47.52.29-.68.64-1.32,1.14-1.86.05-2.08.14-4.16.32-6.21.11-.77.85-1.05,1.45-.88-.14-3.02-.07-5.87.09-8.8-2.97.13-2.13-2.76-2.14-4.78.03-.94.05-1.87.03-2.81-.06-.43.14-.88.51-1.12.53-.33,1.22-.16,1.56.35.46,1.59.03,3.61.08,5.28,0,0,0,0,0-.01,0,.03,0,.05,0,.07,0,.25-.01.51,0,.76.12-.01.22-.01.32,0,.59-.66,1.93-.39,1.98.7-.21,2.31-.17,4.5-.26,6.78v.02c-.03,1.32.03,2.64.1,3.96,0,.04,0,.09,0,.13.16.44.07.97-.45,1.3-.33.18-.76.31-1.15.3-.01.09-.02.18-.03.27-.24,4.11-.18,8.23-.17,12.36.99.13,1.98.32,2.95.29.6-1.2,2.35-.54,2.14.75.22.08.45.13.68.17.01-.56.03-1.11.06-1.66.06-3.65-.05-7.24-.12-10.82-.21.08-.44.13-.67.12-.61-.03-1.07-.63-1.02-1.23.05-.77.77-.93,1.33-1.22-.22-.56-.03-.95.31-1.26,0-1.65.01-3.31.07-4.97.11-.67.66-.97,1.19-.93,0-.42,0-.84,0-1.26,0-.61.45-1.15,1.08-1.17.59-.03,1.18.46,1.18,1.08,0,1.4-.04,2.8-.05,4.19l-.02,1.22c.64-.11,1.23.05,1.52.83.23.76.07,1.68-.58,2.19-.32.22-.65.43-.98.62,0,.53-.01,1.05-.02,1.58-.05,4.29-.1,8.58-.16,12.88.3-.02.62-.02.92,0v-.3c0-1.78-.02-3.57-.02-5.35,0,0,0-.01-.01-.02,0-.01-.01-.02-.02-.03h0c-.3-.54-.19-1.22.35-1.56.25-.16.57-.2.86-.14.59.03,1.08.52,1.08,1.11v.07h0s.02.03.02.04c0,0,0,0,0,0,0,.01.01.02.02.04h0s.01.01.02.02h0s0,.02.01.02c0,0,0,0,0,0,0,0,0,0,0,0,0,0,.01.02.02.03.01.02.02.04.04.06.03.06.06.11.09.16l.06.11s.05.1.08.15h0s.03.06.04.08c0,.01.02.03.02.04.01.02.03.04.03.05l.02.03c.04.08.08.15.13.23.04.07.08.14.11.19.02.04.04.07.04.07l.05.08s.02.03.02.03c0,0,.01.02.02.03,0,0,0,0,0,0h0c.04.08.08.16.11.21.01.02.02.04.03.05,0,0,0,0,0,.01,0,0,0,.02.01.02,0,.02.02.03.03.06.07.13.14.26.18.33.04.08.08.15.09.17l.05.1s.05.09.06.11l.02.04c.04.07.08.14.09.16.03.05.05.09.07.12.02.03.04.06.05.09l.05.08s.01.02.02.03h0s.03.06.04.08t0,0s0,0,0,0c0,0,0,.01,0,.01.02.04.04.08.06.1.04.07.07.13.09.16.01.02.03.05.04.07l.02.03c.03.05.06.1.07.14.01.02.02.04.03.06,0,0,0,0,0,.01,0,0,.01.02.02.03,0,0,0,.01,0,.02h0s0,.01,0,.02,0,.01,0,.01,0,0,0,0h0c.11.2.17.4.17.62,0,.07,0,.15-.02.22,0,.06.01.12.01.18,0,1.75-.03,3.5-.05,5.25,0,.61-.01,1.23-.02,1.84.15,0,.29,0,.44-.02,0-3.3.03-6.6.03-9.9,0-.29,0-.58,0-.87,0-.21,0-.41,0-.61,0-.29.1-.56.27-.77.45.01.89.02,1.34.03h0c.14,0,.28,0,.42.01.43.01.86.02,1.29.03.06.07.11.14.17.22.06.07.11.14.16.22.45.61.86,1.25,1.31,1.86.31.42.64.83,1.01,1.2.76.83,1.76,1.42,2.79,1.84.02,0,.05.01.07.02.4-.18.77-.35,1.01-.54.79-.45,1.1-1.61,2.16-1.6,1.48-.04,2.95-.07,4.43-.02Z"/>
    <path class="cls-7" d="m1194.83,485.52s.01-.03.02-.04c0,.02-.02.03-.03.05,0,0,0,0,.01-.01Zm8.92,26.26c-.06-4.44-.13-8.88-.19-13.32-2.82,2.88-6.11,5.27-9.36,7.67,1.02,2.11,2.01,4.23,2.99,6.37.43-1.49.85-2.78,2.93-1.76,1.2.39,2.47.54,3.63,1.04Zm15.48,45.97c-.15,1.25.8,3.79-1.06,3.98h-.01c0,.75,0,1.49,0,2.24-.02,4.86-.03,9.72-.04,14.58-.01,4.94-.03,9.88-.04,14.82,0,1.28-.01,2.56-.01,3.85.21.03-7.38,9.42-10.04,11.57-7.09,5.79-13.77,12.04-20.65,18.07-3.06,2.37-9.73,9.25-13.5,8.73-1.12-.44-2.1-1.15-3.07-1.86-.65.42-1.74.16-1.76-.91,0-.32,0-.63,0-.95-.02-.12-.02-.25,0-.36.02-5.81-.25-11.62-.19-17.43.18-8.82.24-17.65-.33-26.46-.5-8.03-.87-16.05-1.24-24.08-.08-.47.06-1.07-.37-1.39-.92-.68-1.9-1.41-2.18-2.59-.5-2.1-.17-4.62,1.53-6.1,1.7-1.36,3.95-1.68,5.84-2.73.88-.26,1.88-1.41,2.81-1.51-.08-3.48-.28-6.96-.12-10.43.06-.52.3-.85.6-1.01.15-.26.42-.46.8-.51,2.36-.02,4.56-1.13,6.91-1.37.74-3.15.96-6.41.91-9.64-.23-1.41.48-2.66,1.29-3.76.51-.78,1.12-1.56,2.02-1.86.43-.18.92-.16,1.3-.43,1.11-.95.59-2.59.96-3.82.69-1.55,2.51-2.24,4.09-2.49.25-.06.53-.07.82-.07-.66-1.05-1.35-2.07-2.13-3.06-.53-.7-1.14-1.36-1.69-2.05-3.58,2.48-7.63,4.74-11.99,4.81-.57.12-1.04.11-1.36-.05-.39-.04-.79-.09-1.19-.16-1.4-.35-7.89-2.07-6.34-4.11.82-1,1.73-.03,2.53.38,1.99.99,4.03,1.64,6.14,1.67,2.44-.75,4.54-2.31,6.73-3.58,1.26-.74,2.49-1.51,3.71-2.31-.55-1.66-1.02-3.34-1.49-5.03-.22.39-.44.77-.56,1.14-.45,1.52-4.98,8.87-6.71,6.31-.57-.98.46-1.58,1.13-2.09,2.19-1.91,3.28-4.61,4.49-7.17.13-.47.5-.78.91-.88-.13-.47-.26-.94-.4-1.41-.01-.04-.02-.08-.03-.12-.56.38-1.46.21-1.71-.51-.65.23-1.5-.12-1.53-1.04.02-2.43.06-4.87.23-7.3.05-.83.16-1.97,1.23-1.97.38,0,.72.19.92.48.39-.34,1-.42,1.44-.06.55.43.44,1.09.42,1.7-.05,1.49-.17,2.92-.28,4.34.24.58.49,1.14.77,1.7.18.17.31.41.33.66.26.51.53,1.02.8,1.53.45-1.37.93-2.73,1.41-4.09.97-2.47,1.45-5.27,2.89-7.5.91-.73,2.21.38,1.71,1.37-1.34,3.09-2.17,6.2-3.32,9.26-.43,1.24-.83,2.49-1.21,3.74.07.13.14.26.2.4.69,1.32,1.36,2.65,2.03,3.99,2.75-2.03,5.37-4.22,7.84-6.59,1-.88,2-1.72,2.97-2.59.04-.03.07-.06.11-.09-.01-.6-.02-1.2-.03-1.8-.03-1.9-.03-3.8-.08-5.7-.02-.62.53-1.13,1.13-1.13.16,0,.31.04.45.1,0-.48.01-.97.02-1.45.01-1.02.03-2.05.04-3.07,0-.62.55-1.11,1.15-1.1.62.02,1.11.54,1.1,1.15-.04,4.35-.1,8.69-.15,13.04,0,.71-.02,1.43-.03,2.14.54.08.97.55.97,1.11,0,4.57.05,9.14.08,13.71,0,1.4.02,2.8.03,4.2,1.26.33,2.61.48,3.75,1.07,0-.62.01-1.23.01-1.84-.61.34-1.54.12-1.68-.81-.13-1.76-.18-3.53-.02-5.29.08-.89,1.09-1.29,1.75-.91.02-3,.05-6,.07-8.99v-.15c.01-.61.54-1.12,1.15-1.1.61.01,1.11.54,1.1,1.15-.05,2.24-.04,4.48-.05,6.72-.02,2.35-.04,4.7-.05,7.05-.01,1.56-.02,3.13-.03,4.69.96.14,1.9.34,2.66,1.04.42.43.87,1.26.98,2.01.28.21.46.55.46.93,0,4.74-.03,9.48-.04,14.23,0,1.56,0,3.12-.01,4.69.43.16.75.57.75,1.05.24,5.81-.08,11.64.25,17.46Z"/>
    <path class="cls-9" d="m1551.12,571.65c0-.15.02-.3.05-.45-.75-.88-1.49-1.77-2.23-2.66,0,1.38,0,2.76,0,4.14.13.14.26.28.39.42.34.36.67.72,1.01,1.08.24-.9.71-1.87.76-2.54Zm3.41,4.08c.01-.17.03-.35.06-.53-.53-.61-1.06-1.22-1.58-1.83-.23.69-.48,1.35-.53,1.81.02.35-.12.68-.34.92.7.74,1.4,1.49,2.1,2.23.01.01.03.03.04.04.06-.87.17-1.73.26-2.64Zm6.25,8.12c.09-.4.24-.83.46-1.17-1.55-1.72-3.09-3.44-4.62-5.18-.11,1.07-.19,2.15-.14,3.22,1.31,1.4,2.62,2.8,3.94,4.2.13-.38.28-.76.37-1.07Zm4.7,3.51c-.86-.94-1.71-1.88-2.57-2.83-.06.15-.1.29-.12.42-.18.54-.32,1.31-.7,1.77.61.65,1.22,1.3,1.83,1.95.36.39.73.77,1.09,1.16.08-.34.16-.68.2-.96.1-.44.13-1.01.27-1.5Zm26.68,24.69c.68.68.06,1.98-.9,1.88-.31-.02-.56-.16-.78-.37-5.38-5.19-10.57-10.56-15.67-16.02-.48.63-1.55.72-1.97-.35-.33-.65-.17-1.23.19-1.57-.71-.76-1.41-1.52-2.11-2.29-1.18-1.29-2.35-2.58-3.53-3.87-.14.71-.18,1.72-.7,2.17.2.22.41.44.61.65h0c.08.06.15.14.21.22,1.97,2.1,3.94,4.2,5.91,6.31,3.09,3.3,6.19,6.6,9.28,9.9.59.63,1.18,1.26,1.76,1.88.42.45.37,1.19-.09,1.59-.21.19-.48.28-.75.28-.31,0-.62-.13-.85-.37-3.01-3.21-6.02-6.43-9.03-9.64-1.86-1.98-3.71-3.96-5.57-5.95.24,2.73.23,5.49.36,8.23-.01,1.47-2.19,1.5-2.26.02-.18-3.72-.1-7.44-.75-11.06-.05-.06-.11-.11-.16-.17.02.26.04.53.06.8.08.97.15,1.94.28,2.91.09.61-.35,1.19-.96,1.27-.6.09-1.19-.35-1.28-.96-.21-1.74-.35-3.49-.44-5.24.03-.38-.02-.84,0-1.28-1.25-1.34-2.51-2.67-3.76-4.01.15,1.54.29,3.12.4,4.53.16,2.21.32,4.17.51,6.34.05.61-.32,1.18-.96,1.27-.58.08-1.22-.34-1.28-.96-.32-3.6-.52-6.92-.86-10.43-.13-1.12-.18-2.32-.32-3.43-.72-.77-1.45-1.54-2.17-2.31-1.88-2.01-3.76-4.02-5.65-6.02,0,4.52,0,9.04.01,13.56,0,4.79,0,9.57.01,14.35,0,2.49,0,4.98,0,7.47.28.39.25.93,0,1.31,0,1.92,0,3.85,0,5.77,0,1.39,0,2.78,0,4.16,0,.61-.51,1.13-1.13,1.13s-1.13-.51-1.13-1.13c0-3.28,0-6.56,0-9.83-4.43-1.43-8.97-2.67-13.16-4.71-.15-.02-.31-.07-.47-.16-.08-.05-.15-.1-.23-.15,0,2.44,0,4.87,0,7.31v1.17c0,.61-.53,1.1-1.13,1.1h-.02c-.62-.01-1.11-.54-1.11-1.15,0-3.25,0-6.5,0-9.75-.09-.06-.16-.13-.22-.21-.4-.23-.81-.46-1.22-.67-.45-.2-.74-.67-.67-1.18.21-1.11,1.31-1.14,2.11-.63v-1.39c0-4.97,0-9.94.01-14.9,0-4.79,0-9.58.01-14.37,0-3.26,0-6.51.01-9.77v-3.08c.39-.33.73-.64.91-.92,1.08-.97.85-2.42.99-3.72.11-1.21.22-2.41.3-3.62.01-.14.02-.28.03-.43.01-.19.02-.38.03-.58.06-1.16.07-2.31,0-3.48-.1-1.45.69-2.48,2.03-2.94.56-.92.18-2.22.3-3.27.01-1.19,0-2.39-.01-3.58-.01-.75-.02-1.5-.03-2.25h2.26c1.1,0,2.2,0,3.29,0,1.98,0,3.95,0,5.93,0,.75,0,1.5,0,2.25,0,0,.75,0,1.5,0,2.25,0,2.62,0,5.24,0,7.85,0,4.87.01,9.74.01,14.61,0,1.6,0,3.19,0,4.79,3.06,3.9,6.33,7.63,9.64,11.32,9.48,10.65,19.02,21.28,29.11,31.36,1.49,1.47,2.97,2.94,4.47,4.4Z"/>
    <path class="cls-11" d="m1075.83,551.5c2.65.41,1.57,4.8,1.66,6.72-.38,7.7,1,15.41-.37,23.01-1.06,3.51-5.24,4.81-6.61,8.06-.96,4.28-.5,8.69-.2,13.02.13,2.93-.15,5.88.09,8.81.32,1.45-1.82,2.04-2.2.53-.06-.52-.09-1.04-.12-1.56-.12-.01-.23-.04-.34-.07-.84-.13-1.59-.63-2.45-.61-.61.06-1.23.14-1.84.23-.12.48-.53.86-1.06.88h-.03c-.4,0-.78-.22-.98-.56-1.47.21-2.94.33-4.42.09-6.25-.92-12.26-2.94-17.76-6.05-4.89-2.63-11.93-5.28-15.16-10.16-.55-.02-1.09-.48-1.09-1.05,0-.35,0-.71,0-1.07-.05-.13-.1-.26-.14-.39-.03-.27.03-.51.14-.69,0-3.97-.02-7.93-.03-11.89-.01-4.74-.02-9.49-.03-14.23-.01-4.67-.02-9.34-.03-14.01-.01-4.57-.02-9.14-.03-13.72,0-1.81,0-3.63-.01-5.44,0-.14.02-.28.07-.41,0-.02,0-.05-.01-.07.01-.99,1.08-1.52,1.59-2.28.29-.32.63-.76,1.01-1.05.16-.39.52-.7.96-.7,2.91-.03,5.81-.06,8.72-.08-.09-2.91-.19-5.82-.28-8.73-.08-2.44-.15-4.88-.24-7.32-.02-.61.44-1.15,1.06-1.19.13,0,.26,0,.39.05.17-.13.3-.31.39-.5-.03-.21-.09-.42-.2-.59-.04-.08-.09-.15-.15-.22-.62-.24-1.27-.52-1.24-1.24-.05-.17-.08-.36-.07-.57-.05-.97.14-1.94.17-2.91,0-.76.42-1.61,1.27-1.63,1.22-.02,2.48-.17,3.6.41.95.36,2.07.95,2.31,2.02.03.96.18,1.75.05,2.66-.09.28-.28.49-.52.61,0,0,0,0,0,0-.04.03-.07.06-.11.09-.27.17-.52.24-.71.5-.16.22-.49.64-.23.89.11.1.24.17.36.25.47.11.84.53.87,1.03.22,4.13.48,8.26.73,12.39.08,1.32.15,2.63.23,3.95,2.9-.03,5.81-.05,8.71-.08.2,0,.39.03.56.11h.02c1.72.61,3.41,1.4,5.11,2.12,1.66,0,3.31-.16,4.97-.18.39.04.72.25.9.57h0c.21.2.34.47.34.77,0,4.06,0,8.13,0,12.19,0,2.84,0,5.68,0,8.53.63,7.35,1.04,14.73,1.68,22.08.13,1.61.38,3.06.72,4.52.14.03.29.07.43.1.93.06,1.84-.1,2.77-.18-.02-3.26-.04-6.52-.06-9.78-.03-4.61-.06-9.22-.09-13.83-.01-1.45-.02-2.9-.03-4.34v-.02c-.29-.67.09-1.64,1.08-1.62.91.04,1.52.3,2.37.13,1.52-.41,2.39.05,2.74,1.62.3.7.27,1.57.78,2.13Z"/>
    <path class="cls-11" d="m1718.22,608.38c-1.45.32-2.9.64-4.34.97-.19.52-.8.81-1.44.84-1.32.23-2.64.53-3.95.85-8.47,2.32-17.15,3.89-25.47,6.76-4.44,1.35-8.85,2.83-13.32,4.09-6.01,1.61-11.95,2.87-17.91,4.58-7.22,2.1-14.14,5.12-21.36,7.22-4.46,1.25-8.96,2.41-13.38,3.8-1.75.54-3.48,1.14-5.14,1.92-1.58.85-3.42,1.28-5.17.71-5.86-2.05-11.74-4.25-17.16-7.31-5.74-3.78-12.03-6.22-18.31-8.82-2.89-1.29-5.73-2.7-8.55-4.15-1.62-.84-3.24-1.69-4.83-2.58-.87-.43-1.96-1.06-2.15-2.02-.49.08-.97.16-1.46.23-.33-.24-.7-.43-1.1-.58-.67-.24-1.31-.39-2.02-.51-.28-.05-.55-.1-.83-.14h0s0,0-.01,0c-.33-.26-.67-.51-1.02-.74,3.9-.63,7.79-1.34,11.66-2.15,8.18-1.91,16.11-4.72,24.12-7.26,8.03-2.46,16.2-4.47,24.47-5.99,13.38-2.6,26.98-3.77,40.55-4.76,6.41-.38,12.84-1.36,19.25-.62,3.87.24,7.6,1.44,11.27,2.62,5.21,1.71,10.41,3.42,15.57,5.26,7.29,2.75,14.64,5.29,22.02,7.78Z"/>
    <path class="cls-8" d="m1154.33,626.81c-12.77-2.48-25.49-5.27-38.06-8.63-12.65-3.03-25.47-5.39-37.97-9.03-10.42-2.9-20.88-6.15-31-10.11-6.68-2.6-13.29-5.37-20.02-7.82-15.52-5.62-31.15-10.9-47-15.53-8.8-2.62-17.53-5.55-26.52-7.5-6.13-1.31-12.33-2.19-18.53-3.05-6.27-1.07-12.61-1.25-18.96-1.13-6.49.09-12.98-.02-19.47.18-9.71.51-19.36,1.74-29.04,2.48-9.9.81-19.84.91-29.72,1.84-6.75.7-13.48,1.66-20.21,2.48-16.98,1.91-34.01,3.82-50.81,7.06-13.4,2.72-26.82,5.35-40.34,7.38-10.08,1.37-20.17,2.69-30.15,4.66-12.94,2.73-25.92,5.29-38.81,8.21-13.01,3.2-25.97,6.58-38.99,9.75-13.38,3.42-26.85,6.58-40.12,10.43-26.16,6.24-71.56,19.42-96.41,25.84-29.87,7.72-129.79-48.88-180.26-59.17-50.47-10.29-45.09,28.98-301.95,54.88h-29.06v751.66H.84v-529.58l1057.05-62.27v-87.24c11.2-9.66,22.97-18.66,34.66-27.71,15.31-11.32,32.08-20.91,48-31.39,6.86-4.16,13.49-8.66,19.95-13.42,3.24-2.26,6.42-4.6,9.52-7.03.2-.16.45-.33.7-.51.36.05.73.09,1.09.14.05-.01.09-.03.14-.04.95-.76,1.93-1.48,2.96-2.13-6.89-1.06-13.76-2.27-20.58-3.7Z"/>
    <path class="cls-7" d="m1654.08,615.59c2.05,1.12,2.57,2.06,2.42,4.67-.06,3.57-.36,7.12-.54,10.69-.03.59-.07,1.17-.1,1.75.18.36.15.78-.06,1.1h0c-.03.57-.05,1.13-.06,1.69-.06.41.13.78.05,1.19-.13.6-.76.98-1.34.86-.78-.18-.99-1.03-1-2.01-8.55,5.77-17.52,10.97-26.94,15.17-4.31,1.75-8.68,4.36-13.45,4.31-5.18-1.27-10.13-3.43-15.11-5.32-4.25-1.71-8.48-3.5-12.76-5.16-.07.54-.49.98-1.06,1.01h-.06c-.58,0-1.12-.47-1.13-1.07,0-.27-.01-.53-.02-.8-.64-.25-1.26-.53-1.82-.93-.94-.54-.65-2.09.48-2.14.3-.02.6.1.82.3.15.08.3.16.45.23-.09-3.66-.18-7.32-.28-10.98-.13-4.91-.25-9.82-.38-14.74-.12-4.85-.24-9.69-.37-14.53-.12-4.76-.24-9.51-.36-14.27-.12-4.62-.24-9.24-.35-13.87,0-.16-.01-.32-.01-.47,0-.23.06-.44.17-.63,0,0,0-.01,0-.02.56-1.26,2.79-2.63,3.33-3.45.31-.31.61-.64.91-.97-1.06-3.6-2.08-7.27-2.84-10.94-.04-.02-.07-.04-.11-.06-1.04-.84-2.94-1.21-2.68-2.9-.09-3.62.19-7.25.07-10.86-.43-2.66,1.46-4.51,2.93-6.44,1.37-2.03,2.95-4.1,5.44-4.73.88-.26,1.88-.75,2.76-.28,1.55.81,2.91,1.95,4.21,3.12.55.07,1.05.53,1.02,1.2-.01,4.52-.3,9.05.06,13.56h0s0-.03,0-.05c0,.02,0,.03,0,.05,1.26.05,2.51.25,3.75.37.02-.4.04-.79-.01-1.11-2.41-.98-2.6-1.86-2.71-4.31-.18-2.86-.18-5.72-.25-8.58-.08-.6.22-1,.63-1.18.59-.45,1.64-.27,1.81.63,1.75-.05,3.31-.76,4.87-1.47v-.02s0-.06,0-.09v-.05c0-.13,0-.27,0-.39,0-.05,0-.09,0-.12,0-.14,0-.28,0-.4,0-.02,0-.04,0-.06v-.13s0-.09,0-.1v-.08c0-.05,0-.1,0-.12v-.04s0-.08,0-.1c0-.05,0-.11,0-.16,0-.05,0-.11,0-.11v-.05s0,0,0,0h0c0-.1,0-.2,0-.29v-.16c0-.21,0-.42.01-.62v-.03s0-.08,0-.1c0-.14,0-.28,0-.36,0-.47.01-.93.02-1.25,0-.24,0-.48,0-.68,0-.04,0-.07,0-.11v-.11c0-.2,0-.4,0-.45,0-.07,0-.14,0-.15,0-.04,0-.08,0-.12v-.09c0-.21,0-.43.01-.59v-.04c0-.07,0-.14,0-.14,0-.22,0-.44,0-.6,0-.16,0-.33,0-.46,0-.02,0-.04,0-.06v-.06c0-.27,0-.55.01-.8v-.2s0-.07,0-.1v-.03c0-.16,0-.31,0-.43,0-.34.01-.67.02-1,0-.14,0-.28,0-.35v-.07c0-.18,0-.36,0-.51,0-.28,0-.55.01-.78,0-.17,0-.34,0-.49,0-.02,0-.04,0-.06v-.06c0-.39,0-.78.01-1.12,0-.18,0-.35,0-.5,0-.02,0-.04,0-.06v-.07c0-.14,0-.27,0-.38,0-.22,0-.43.01-.63,0-.13,0-.25,0-.31v-.11s0-.08,0-.12h0c0-.15,0-.28,0-.35,0-.21,0-.42,0-.59,0-.18,0-.36,0-.5,0-.03,0-.05,0-.07v-.06c0-.13,0-.26,0-.36,0-.04,0-.08,0-.11v-.03s0-.09,0-.12v-.08c0-.05,0-.11,0-.14v-.08c0-.07,0-.14,0-.19,0-.03,0-.05,0-.05v-.16s0-.03,0-.05v-.21c0-.09,0-.17,0-.18,0-.23,0-.46.01-.68-.06-1.69.16-3.3,1.49-4.5.5-.44,1.8-.46,2.92-.16-.04-1.16-.09-2.33.03-3.48.04-.33.12-.65.34-.91.52-.63,1.39-.48,2.07-.24,2.01.67.91,5.12,1.22,6.82.53.14.84.45,1.01.84.15.21.23.47.23.74,0,4.33-.03,8.66-.04,12.99,0,2.28-.01,4.57-.02,6.85.75.1,1.49.21,2.24.28,1.22.08,2.88.44,3.18,1.83.23,0,.46-.02.69-.04.33-1.6,2.21-1.25,3.38-.93.92.14,1.51.89,1.64,1.78,5.1.53,10.33,1.4,14.65,4.35.37.2.75.52,1.01.88.28.21.47.55.43,1.01-.11,2.52-.32,5.22-.08,7.69.11.88-.62,1.35-1.28,1.28,0,1.51-.06,3.18-.13,4.61-.15,2.72-.22,5.47-.02,8.19,1.15.02,2.3.05,3.45.09,1.39-.1,2.79.53,2.52,2.14,1.21.04,2.46.27,3.64.03.1-.72.37-1.51,1.13-1.76.63-.19,1.33-.05,1.98-.06.09,0,.18,0,.27,0,0,0,.02,0,.02,0,.59-.03,1.18.46,1.18,1.07,0,4.58.03,9.15.04,13.72.01,4.68.03,9.37.04,14.05.02,4.73.03,9.46.05,14.19.01,3.22.02,6.43.03,9.65Z"/>
    <path class="cls-6" d="m830.35,669.6c-.52-.16-1.03-.33-1.54-.49-6.65-2.11-13.29-4.28-20.15-5.75-13.64-3.21-27.63-4.7-41.46-6.97-12.09-2.07-24-4.28-35.73-7.46-6.76-1.83-13.48-3.78-20.33-5.33-12.12-2.95-25.06-3.29-37.37-4.64-14.07-1.41-28.04-3.57-42.08-5.1-6.72-.67-13.53-.55-20.23.29-13.87,2.03-158.18,37.21-171.56,41.05-.25.07-107.63-26.44-129.18-27.71-42.17-2.48-103.39,33.18-125.27,31.38-100.85-8.32-177.94-17.71-185.07-16.78H.38s-26.87,0-26.87,0v193.82H.38v-85.95c17.08-1.68,563.94-37.74,570-38.77,7.9-1.57,15.59-3.83,23.34-5.93,10.73-2.62,21.39-5.45,32.15-7.94,7.25-1.72,14.63-3.01,21.89-4.72,5.74-1.34,11.41-2.97,17.14-4.38,5.4-1.35,10.79-2.7,16.22-3.94,1.16-.27,1.1-2.03-.12-2.17,11.2-2.64,22.61-4.13,33.94-6.09,11.47-2.4,22.89-5.02,34.17-8.09,6.27-1.16,12.62-1.9,18.92-2.92,11.4-1.8,22.56-4.49,33.72-7.1,7.73-1.6,15.13-3.21,22.69-5.17.88-.26,1.82-.43,2.72-.68.02,0,.05-.02.08-.02.71-.21,1.41-.46,2.02-.86.39-.4.43-1,.11-1.42.28-.05.56-.11.84-.15.04,0,.09-.02.14-.02Zm-191.04,42.55c4.68-1.22,9.36-2.2,14.05-3.26-4.64,1.23-9.33,2.3-14.05,3.26Z"/>
    <path class="cls-14" d="m729.41,688.79c-7.7-2.81-15.18-6.19-22.89-9.28-6.61-2.44-12.71-5.99-19.15-8.8-10.2-4.5-20.73-8.17-31.17-12.06-8.1-3.03-16.2-6.04-24.31-9.06-1.03-.39-2.05-.77-3.08-1.15-3.84-1.44-7.68-2.88-11.51-4.33-1.54-.58-3.06-1.16-4.6-1.75-1.35-.52-108.49-25.57-139.94-24.42-39.56,1.45-126.51,76.83-218.25,98.79-67.85,16.24-123.47-41.59-171.55-29.22-39.04,10.05-54.49,36.03-82.82,36.12h-28.31v238.23H.47v-171.8c18.85-2.14,527.21-46.69,535.05-48.26,18.66-3.93,37.67-6.01,56.15-10.8,14.38-3.63,28.67-6.93,43.13-10.5,12.81-3.23,25.65-7.45,38.5-10.71,8.77-2.24,17.21-5.5,25.65-8.72,8.99-3.26,18.07-6.27,26.96-9.76.78.27,1.6-.46,1.45-1.27-.02-.08-.03-.14-.06-.21.63-.31,1.26-.62,1.89-.93.07-.04.14-.08.21-.11Z"/>
    <path class="cls-8" d="m2006.35,661.6c.44.11.88.22,1.33.33-1.68.06-3.4.02-5.04.38-.82.18-1.53.63-2.07,1.24-.8-.15-1.6-.3-2.4-.45-3.34.57-6.7.93-10.07,1.29-7.64.92-15.21,2.25-22.76,3.67-6.83,1.21-13.44,2.01-20.13,3.45-10.97,2.2-22.01,4.05-32.99,6.2-10.92,2.35-21.92,4.28-32.92,6.2-18.78,3.8-37.37,8.52-56.31,11.53-10.71,1.99-21.36,4.33-32.17,5.8-6.77.96-13.58,1.58-20.33,2.68-12.34,2.24-24.4,5.9-36.91,7.26-3.37.43-6.76.81-10.15,1.13,2.35,1.27,4.69,2.57,7.04,3.84,1.21.62.44,2.67-1.01,2.02-6.58-3.69-13.37-7.01-19.82-10.94-4.26-2.62-8.45-5.36-12.7-8-17.29-10.74-34.4-21.73-51.51-32.75-8.63-5.62-17.77-10.43-26.14-16.43-3.97-2.89-7.8-6.26-12.27-8.28-.9-.21-1.07-1.26-.61-1.84-.29-.27-.61-.51-.96-.7,6.34-2.26,12.68-4.49,19.1-6.51,12.81-3.72,25.65-7.32,38.4-11.24,16.7-5.27,33.5-10.38,50.61-14.15,14.88-3.62,29.69-8.19,45.02-9.43,4.29-.4,8.63-.68,12.83.47,6.19,1.46,12.29,3.36,18.16,5.8,17.3,6.94,34.26,14.76,51.97,20.63,9.91,3.29,20.06,5.87,30.29,7.98,10.8,1.93,21.67,2.99,32.45,5.06,22.45,3.79,44.52,9.42,66.47,15.4,9.98,2.56,20.04,4.77,30.07,7.08,0,0,.01,0,.02,0,.33-.08.68.02.94.22h0c1.52.35,3.04.71,4.57,1.07Z"/>
    <path class="cls-6" d="m2878.82,662.06h0c-21.7-.34-319.83,28.99-325.52,27.2-12.4-3.84-227.25-53.07-240.11-55.1-6.21-.84-12.52-.96-18.75-.29-13.02,1.53-25.97,3.69-39.01,5.1-11.41,1.35-23.4,1.69-34.64,4.64-6.34,1.55-12.58,3.49-18.84,5.33-10.87,3.18-21.91,5.39-33.12,7.46-12.82,2.26-25.79,3.76-38.44,6.97-6.36,1.47-12.51,3.64-18.67,5.75-.48.16-.95.33-1.43.49.05,0,.09.02.13.02.26.05.52.1.78.15-.3.43-.26,1.03.11,1.42.56.4,1.21.65,1.87.86.03,0,.05.02.08.02.83.24,1.7.42,2.52.68,7,1.96,13.87,3.56,21.03,5.17,10.34,2.61,20.69,5.3,31.26,7.1,5.84,1.02,11.72,1.75,17.53,2.92,10.45,3.07,21.05,5.69,31.68,8.09,10.51,1.96,21.08,3.45,31.46,6.09-1.13.14-1.19,1.9-.11,2.17,5.03,1.24,10.04,2.59,15.04,3.94,5.31,1.41,10.56,3.04,15.88,4.38,6.74,1.72,13.57,3,20.29,4.72,9.98,2.48,19.86,5.32,29.81,7.94,7.18,2.1,14.31,4.35,21.63,5.93,5.55,1.01,499.75,36.17,527.55,38.69v26.22h24.02v-134.05h-24.02Zm-604.46,46.83c4.35,1.06,8.68,2.04,13.02,3.26-4.37-.96-8.72-2.03-13.02-3.26Z"/>
    <path class="cls-14" d="m2880,723.73v-.09c-49.65,3.87-211.28-54.72-329.76-61.48-26.12-1.49-258.11,49.7-283.38,42.99-9.63-2.72-19.24-5.48-28.93-7.92-16.51-3.81-33.34-6.04-49.79-10.11-19.59-4.93-39.11-10.16-58.92-14.14-5.12-1.12-10.24-2.28-15.36-3.4-.71-.16-1.43-.31-2.14-.46-10.61-2.32-21.26-4.48-32.02-5.99-23.2-2.93-46.64-3.59-70-2.96-5.86.27-11.75.33-17.57.96-.58.06-1.16.12-1.73.2-12.61,1.69-25.03,4.55-37.61,6.42-6.44.98-12.86,2.07-19.2,3.52-13.5,2.89-27.08,5.28-40.56,8.2-13.29,2.83-26.38,6.56-39.74,9.05-16.48,3.37-33.3,4.53-49.91,7.09-9.79,1.3-19.43,3.43-29.1,5.33-14.57,2.89-29.21,5.32-43.93,7.21-5.28.73-10.51,1.7-15.72,2.74.75.12,1.48.27,2.22.43,1.03.23,2.05.49,3.06.8.04.02.08.02.11.04,1.12,2.58,8.16,5.13,10.48,6.52,3.85,1.94,7.64,4.03,11.5,5.97,10.52,5.07,21.52,9.08,32.38,13.35,8.46,3.21,16.43,7.48,24.54,11.45,13.28,6.21,27.27,10.92,41.31,15.09,12.2,3.41,24.64,6.11,36.49,10.62,5.02,1.88,9.95,3.97,14.77,6.27,8.4,3.83,16.95,7.38,25.14,11.65,5.57,3.2,11.12,6.56,16.51,10.06,2.99,1.94,5.99,4.36,9.5,5.19.63.15,1.28.24,1.95.28,2.61.12,5.21-.33,7.69-1.14,5.57-1.75,11.09-3.6,16.62-5.46,4.77-1.66,9.58-3.19,14.4-4.68,4.93-1.38,10.01-2.1,14.93-3.52,5.41-1.5,10.55-3.88,16.08-4.92,9.86-1.05,19.81.24,29.71.17,12.45.11,24.96-.15,37.28-2.13,8.96-1.33,17.58-4.25,26.54-5.6,20.48-2.94,41.24-.23,61.84-1.06,13.53-.22,26.94-2.25,40.25-4.53,12.82-2.17,25.58-4.15,38.47-6.07,18.74-3.06,37.58-5.53,56.58-6.04,14.87-.3,29.78-.11,44.64-.87,6.12-.19,499.59,88.42,529.08,92.02v171.81h29.67v-302.86h-28.35Z"/>
    <path class="cls-6" d="m917.19,576.39c.41-3.04,1.39-5.72,1.35-8.74-1.17-2.07-2.31-4.16-3.31-6.31-.44,2.36-2.14,4.31-3.79,6.04-.45.59-.71,1.26-.91,1.96h0c.08.21.09.44.04.67-.05,2.83,5.64,5.43,6.52,8.53.02-.72.04-1.43.1-2.15Zm9.88,17.13c.38-4.07-.71-8.13-.93-12.18-1.29-2.36-2.58-4.73-3.88-7.09-.57-1.06-1.16-2.11-1.76-3.17,0,.04-.01.07-.01.11-.32,2.2-1.01,4.07-1.11,6.19-.04,1.63-.04,3.26-.15,4.89.05.09.1.18.13.29.81,1.91,2.1,3.52,3.42,5.09,2.1,2.45,2.81,5.67,3.46,8.75.02.33.15.6.33.82.23-1.22.41-2.45.5-3.68Zm4.2,3.2c.33-1.78.51-3.44.54-5.13-.94-1.68-1.88-3.36-2.81-5.04.28,2.45.5,4.89.3,7.35-.1,1.6-.39,3.19-.73,4.76.7.57,1.29,1.28,1.76,2.06.33-1.33.65-2.66.93-4Zm8.26-3.9c0-.92,0-1.84,0-2.76,0-8.73-.01-17.47-.01-26.2,0-3.49,0-6.98,0-10.46-1.87-1.71-3.92-3.22-6.14-4.43-3.38-1.74-6.87-3.31-10.53-4.33-2.02-.74-4.11-.57-4.45,1.99-1.45,9.31,6.13,18.09,10.03,26.06,3.64,6.77,7.33,13.5,11.13,20.14Zm51.69,90.18c.25-1.43.51-2.86.7-4.3-1.59-2.11-3.19-4.21-4.79-6.32-.76,1.62-2.12,2.99-2.99,4.57-.12.27-.3.55-.14.84.43,1.06.97,2.07,1.44,3.12.58,1.34-1.44,2.26-2.06.92-.56-1.4-1.49-2.69-1.7-4.2.09-2.05,1.71-3.5,2.81-5.06.54-.74.81-1.59.92-2.46-1.84-2.42-3.68-4.84-5.53-7.25.04,6.11.07,12.22.11,18.33,0,.92.01,1.84.02,2.76,2.02.45,3.94,1.05,4.68,1.28,1.95.68,3.88,1.45,5.77,2.31.2-1.55.48-3.08.77-4.54Zm12.3,12.44c.28,0,.55,0,.82.03-3.46-4.79-6.98-9.54-10.53-14.26-.42,2.45-.92,4.9-1.2,7.36,2.24,1.11,4.42,2.35,6.52,3.7,1.1.82,1.69,2.11,2.71,3.02.54.15,1.12.1,1.68.14Zm30.5,36.46c.05.61-.45,1.15-1.06,1.19-.05,0-.11,0-.16,0,0,0-.01.02-.02.02-.6.5-1.04,1.31-1.88,1.3-.42.3-1.04.27-1.42-.09-.21-.21-.32-.42-.35-.64-2.73.34-5.35.59-8.09.38-12.17-1.09-24.42-1.43-36.5-3.42-8.2-1.22-16.2-3.27-24.28-4.99-5.88-1.37-11.47-3.71-17.29-5.32-.39-.14-.79-.27-1.18-.42-.13.45-.5.81-1.01.83-.02,0-.04,0-.06,0-.57,0-1.13-.47-1.13-1.07,0-8.63-.01-17.26-.01-25.88,0-8.54-.01-17.08-.01-25.62,0-8.73,0-17.46-.01-26.19,0-8.72,0-17.45-.01-26.17,0-3.57,0-7.14,0-10.71-1.58-2.66-3.12-5.35-4.62-8.07-.37-.65-.75-1.29-1.11-1.94-.29,2.22-.77,4.41-1.35,6.57-.26.6-.31,1.63-.55,2.42.31.78.59,1.58.74,2.41.38,1.39-.01,2.9.62,4.15,2.22,2.29,3.59,5.44,3.08,8.67-.31,1.14.08,3.42-1.63,3.35-1.3-.23-.95-1.55-.78-2.49.25-1.23.36-2.49.09-3.72-.21-.9-.49-1.8-1.03-2.57-.65-.94-1.61-1.7-2.03-2.79-.49-2.26-.28-4.31-1.21-6.4,0,0,0,0,0-.01-.04-.07-.07-.14-.1-.21-.06-.13-.13-.25-.19-.37-.48-1.22-1-2.46-1.94-3.4-.06-.06-.12-.11-.18-.17-.09-.07-.18-.14-.27-.21-.29-.22-.61-.43-.92-.63-.91-.61-1.78-1.26-1.98-2.41-.61-2.49-.98-5.15-2.43-7.32-.86-1.16-1.81-2.26-2.65-3.43,0,1.57-.16,3.15-.03,4.71.19,1.8.58,3.34.94,5,.37,1.41-1.76,2.03-2.17.61-.43-1.93-.92-3.88-1.04-5.86-.25-2.36.5-4.88-.35-7.14-3.03-4.06.8-3.56-4.39-8.02-.9-.91-1.98-1.8-2.75-2.86-.06.09-.13.19-.2.28-1.02,1.48-2.22,2.84-3.3,4.28-.84.82-1.53,3-2.98,2.06-1.11-.93.19-2.08.78-2.89,1.27-1.77,2.89-3.45,3.98-5.29.8-1.64.75-3.61,1.86-5.11,3.05-3.3,4.23-4.6,3.48-9.28-.09-.42.01-.83.23-1.14h0c-.5-1.64-.87-3.31-1.06-5.04-1.06.78-2.07,1.61-2.94,2.6-1.89,2.42-6.66,7.63-9.98,6.76-.79.18-1.75.09-1.9-.88-.09-.61.35-1.18.95-1.28.92-.29,1.9.29,2.75-.24,2.64-1.47,4.77-3.62,6.6-5.98,1.26-1.41,2.93-2.65,4.45-3.71.18-3.36,1.17-5.88,2.79-7.55-1.81-.96-3.35-2.41-4.55-4.13-.67-.98-1.21-2.08-2.12-2.87-.87-.71-1.81-1.34-2.81-1.86-.55-.28-.71-1.03-.41-1.54.99-1.64,3.73,1.05,4.75,1.75.99.86,1.65,2,2.34,3.09,1.09,1.44,2.25,2.76,3.84,3.61.35.16.71.29,1.08.41,2.89-1.4,6.85-1.11,11.38.96,3.91,1.49,7.77,3.24,11.22,5.6,0-2.49,0-4.98,0-7.47,0-6.97-.01-13.94-.01-20.9,0-.6.41-1.13,1.02-1.18.17-.23.43-.39.72-.43,2.77-.44,5.58-.43,8.35,0,3.44.39,6.55.98,9.66,2.39,2.27.94,4.71,1.52,6.78,2.88,2.98.94,6.32,1.54,8.47,4.02.95.76,2.01,1.49,3.08,2.06.47.14,1,.37,1.2.81,0,0,0,0,0,0,.17.18.28.42.28.68,0,3.73.05,7.47.07,11.21.03,4.18.05,8.37.08,12.55.06,8.46.11,16.92.16,25.38.05,8.64.1,17.29.16,25.93.06,8.57.11,17.14.16,25.7.05,7.84.09,15.67.14,23.51,1.16,1.55,2.32,3.09,3.49,4.63-.01-.29-.02-.58-.01-.87-.04-1.99.4-4.02.42-5.97.05-.61.66-1.05,1.26-.98.6.07,1,.6.99,1.1-.01,1.52-.26,3.03-.37,4.55-.12,1.74.04,3.47.29,5.19,0,.12,0,.25.02.4.03.04.05.07.08.1.17-.37.32-.69.42-.92,1.27-2.76,4.04-4.91,4.06-8.15.07-.69-.08-1.39.03-2.07.3-1.07.79-2.07,1.14-3.13.79-1.71-.37-3.26-1.2-4.69-1.36-2.31-1.95-5.05-1.36-7.69.12-1.04.67-2.77,2.03-2.1.53.29.75,1,.44,1.53-.73,2.16-.54,4.62.59,6.61.16.34.34.67.53,1,.4-1.69,1.3-4.21,2.76-3.45.52.29.76,1.01.44,1.53-.95,1.48-1.28,3.37-1.38,5.01.01.06.02.11.03.17,1.69-.43,3.56-.34,4.88.89.89.95,1.14,2.12,2.26,2.81,1.12.96,2.44,1.5,3.75,2.02,1.37.57.55,2.6-.83,2.09-2.25-.87-4.55-2.05-5.98-4.05-.78-2.17-2.71-1.96-4.52-1.25-.08.1-.16.18-.26.24-.32.99-.78,1.95-1.09,2.91.41,3.79-1.22,6.25-3.35,9.15-.71,1.12-1.33,2.3-1.76,3.56,0,.02,0,.03-.01.04,1.7,2.23,3.41,4.46,5.11,6.68,0-.49-.03-.99-.08-1.48-.14-1.38-.41-2.76-.19-4.15.21-2.66,1.96-5.15,1.53-7.85-.21-.26-.3-.6-.2-.96.15-.57.79-1,1.37-.82,1.71.77,1.17,3.3.89,4.78-.73,2.64-1.87,5.28-1.23,8.07.22,1.72.19,3.49.06,5.23,1.32,1.73,2.63,3.45,3.94,5.19.29-1.23.53-2.46.53-3.74.07-1.53.09-3.09-.21-4.6-.25-.63.02-1.4.71-1.6,2.74-.81,1.65,7.92,1.42,9.45-.19.95-.49,1.87-.7,2.79.72.95,1.44,1.91,2.15,2.87.41-2,1.05-3.98,1.45-5.96.36-1.95.21-3.71.52-5.61.41-1.39,2.48-.91,2.2.52-.2,1.59-.18,3.09-.36,4.63-.39,3.05-1.71,5.91-1.89,8.99.3.41.6.81.9,1.22.12-1.2.27-2.4.42-3.58.11-.98.31-1.94.44-2.92.03-.77.83-1.39,1.58-1.08.53.21.86.86.65,1.41-.32,1.93-.56,3.86-.76,5.8-.14,1.06-.23,2.13-.24,3.2,2.34,3.21,4.64,6.44,6.9,9.7,2.37,3.34,4.68,6.72,6.87,10.17,1.37,1.29,2.68,2.63,3.68,4.25,1.05,1.71,2.16,3.38,3.74,4.66,1.3,1.07,2.69,2.15,3.28,3.79.82,2.72,1.49,5.5,1.84,8.32.15.27.19.6.1.89.02.22.04.45.06.67Z"/>
    <path class="cls-4" d="m2880,777.05h0s-61.99,26.13-181.26,28.34c-115.56,2.14-287.26-85.91-395.13-87.1-5.02-.06-70.31,27.25-122.27,32.94-27.7,3.14-37.45,19.8-65.23,22.33-12.39,1.11-24.8,2.05-37.18,3.21-16.81,2.08-33.56,4.61-50.38,6.59-9.32,1.38-18.83,1.91-27.94,4.43-14.83,4.73-28.7,11.5-43.62,16.14-4.73,1.68-9.53,3.08-14.36,4.38-.64.17-1.27.34-1.91.51.83.4,200.02,157.75,220.64,160.39.28.04,710.28,29.28,718.62,28.6v118.68h25.73v-339.44h-25.7Z"/>
    <path class="cls-4" d="m972.74,775.49c-4.34-1.81-8.12-4.17-12.36-6.42-3.73-2.18-7.77-3.99-11.38-6.41-4.13-2.92-8.35-5.72-12.6-8.45-6.82-4.48-14.03-8.32-20.98-12.59-7.01-4.42-14.03-8.83-21.09-13.17-13.5-8.42-26.62-17.66-41.16-24.26-9.55-4.12-19.28-7.84-28.64-12.39-10.27-4.78-24.09-7.56-28.46-19.38-.57-2.24.08-4.91,1.79-6.57,2.11-1.88,4.39-3.37,6.97-4.58,1.09-.87,3.87-2.49,3.21-3.64-2.51-.01-5.02.25-7.48.7-5.7,1.2-10.62,4.51-15.97,6.68-8.86,4.2-18.53,6.5-27.66,10.06-10.54,4.09-20.88,8.69-31.52,12.52-49.02,17.66-188.64,40.05-213.75,44.61-92.58,16.81-208.09-27.51-282.63-23.03C99.1,722.74,9.42,775.11.38,776.98h-28.14v337.95H.38v-96.23c17.27-1.99,526.8-53.99,534.4-55.34,30.68-6.08,61.46-11.96,91.64-20.24,35.32-9.75,68.26-26.13,103.24-36.92,19.32-6.55,38.31-14,57.5-20.89,19.48-7.26,39.25-13.82,58.37-21.98,8.17-3.73,15.75-8.58,23.48-13.12,8.58-5.13,17.24-10.18,25.59-15.69,6.09-4.13,11.91-8.63,17.89-12.91,3.91-2.8,7.89-5.53,11.61-8.58,4.52-3.95,9.11-7.82,13.96-11.37,11.13-8.3,22.51-16.31,34.53-23.29.27.1.54.2.81.3.14-.1.27-.2.41-.29.42-.33.85-.67,1.28-1-.78-.63-1.57-1.26-2.36-1.88Z"/>
    <path class="cls-14" d="m1029.82,733.91c-3.72,3.89-7.67,7.54-11.75,11.06-7.33,6.2-14.58,12.53-22.18,18.41-5.98,4.41-12.25,8.4-18.62,12.22.16.13-3.75.51-4.54-.12-4.34-1.81-8.12-4.17-12.36-6.42-3.73-2.18-7.77-3.99-11.38-6.41-4.13-2.92-8.35-5.72-12.6-8.45-6.82-4.48-14.03-8.32-20.98-12.59-7.01-4.42-14.03-8.83-21.09-13.17-13.5-8.42-26.62-17.66-41.16-24.26-9.55-4.12-19.28-7.84-28.64-12.39-10.27-4.78-24.09-7.56-28.46-19.38-.57-2.24.08-4.91,1.79-6.57,2.11-1.88,4.39-3.37,6.97-4.58,1.09-.87,3.87-2.49,3.21-3.64,0,0,0,0,0-.01.49,0,.99.03,1.48.04h.04s.06.02.08.02c0,0,.01,0,.02,0,.01,0,.02,0,.03,0h0s0,0,0,0c.08.01.16.03.25.03.06,0,.13.02.19.02.1.01.19.02.29.03h0c.1.01.19.02.29.03.29.03.58.05.87.08.2.02.39.04.59.05,7.64,1.66,14.66,5.41,21.92,8.21,10.91,4.43,21.74,9.07,32.52,13.82,7.67,3.27,15.41,6.38,22.95,9.94,11.52,5.63,22.95,11.68,34.92,16.3,14.57,5.6,29.5,10.36,44.66,14.08,20.12,4.73,40.67,8.26,61.33,8.86.06-.09.14-.18.23-.25.29-.22.66-.28.99-.19.01,0,.02,0,.03.01.03.01.06.02.09.03-.01,0-.02,0-.03-.01.04.01.07.03.11.04-.01,0-.02,0-.03-.01.04.02.07.04.11.06-.02-.02-.05-.03-.07-.04.26.11.44.25.56.41,1.77.04-2.13,4.12-2.63,4.72Z"/>
    <path class="cls-5" d="m1370.57,617.67c1.24,6.03.54,12.79-3.7,17.54-4.05,4.81-8.68,9.22-13.88,12.78-7.22,4.81-15.07,8.58-22.81,12.48-6.23,3.09-12.28,6.51-18.59,9.44-8.53,3.82-17.43,6.77-26.34,9.55-11.72,3.61-23.33,7.56-34.89,11.66-9.5,3.33-19.1,6.62-28.11,11.07-10,4.71-24.07,14.79-11.9,25.57,7.01,5.68,16.09,8.05,24.67,10.28,21.26,4.55,42.53,9.08,63.51,14.86,7.57,2.03,15.35,4.42,22.92,6.21,6.2,1.5,12.39,2.86,18.49,4.73,6.32,2.05,12.59,4.24,18.81,6.53.11-.03.21-.06.31-.1.12.74.28,1.48.44,2.22-.67.2-1.35.41-2.03.6-1.31.61-2.66,1.13-4.02,1.65-8.91,3.26-17.58,7.16-26.57,10.2-5.67,1.9-11.6,3.61-17.23,5.44-10.73,3.38-21.2,7.51-31.88,11.03-8.33,2.63-16.73,5.14-25.05,7.79-6.24,2.03-12.38,4.33-18.67,6.24-17.76,5.56-35.64,10.74-53.38,16.36-11.25,3.41-22.04,7.53-33.27,10.88-8.83,2.85-17.91,5.06-26.78,7.77-7.14,2.36-14.09,5.3-21.23,7.68-11.08,3.87-22.61,6.19-33.92,9.24-8.59,2.19-17.21,4.25-25.9,5.99-8.98,1.64-18.05,2.75-27.02,4.38-18.87,3.47-36.96,10.12-55.33,15.5-8.13,2.6-16.46,4.45-24.88,5.78-18.74,3.57-37.65,5.99-56.47,8.99-6.9,1.23-13.7,3.01-20.61,4.16-.36.06-.71-.1-.95-.36-1.58.31-3.16.65-4.74.96-30.65,6.62-61.1,14.24-92.09,19.16-25.99,4.18-51.95,8.81-78.28,10.15-10.16.73-20.36,1.3-30.44,2.87-11.4,1.35-22.87,3.23-34.37,2.5-1.39-.1-2.77-.22-4.16-.22-.48,0-.89-.33-1.04-.77-.22.07-.44.15-.65.25-.18.09-.36.19-.52.3-.8.1-1.59.23-2.38.4-.48.1-.96.22-1.43.34,1.66-.65,3.31-1.29,4.97-1.93.14-.49.59-.83,1.12-.83.28.03.57.05.85.07,6.88-2.67,13.76-5.33,20.62-8.05,19.25-7.71,39.07-13.86,58.31-21.6,10.91-4.13,22.07-7.57,32.98-11.68,12.96-5.03,25.79-10.42,38.93-15.01,17.18-6.08,35.07-10.15,52.3-16.07,16.45-5.94,32.31-13.41,47.7-21.71,10.96-6.03,21.82-12.42,31.79-19.96.7-.49,1.4-.97,2.11-1.44,1.6-1.23,3.19-2.46,4.79-3.68,4.19-3.21,8.37-6.44,12.57-9.65,1.87-1.56,3.84-2.99,5.81-4.43,1.6-1.21,3.21-2.42,4.82-3.62,0,0,0,0,0,0,1.98-1.55,4.01-3.05,6.08-4.49,4.07-2.97,8.19-5.87,12.37-8.69,21.96-14.95,45.27-28,65.87-44.88,20.96-17.03,40.6-35.64,61.9-52.28,20.25-15.96,41.81-30.2,63.95-43.38,14.64-9.2,29.07-19.09,43.11-29.11,15.87-11.24,30.63-23.96,46.72-34.88,21.4-14.47,45.04-25.12,67.23-38.25,10.51-6.56,21.82-11.64,33-16.92,5.7-2.73,11.32-5.72,17.36-7.66,3.54-.98,7.24-1.27,10.93-1.2h0s.09,0,.14,0c.22.34.58.66.89.99t0,0c1.68,2.47.93,4.3-.25,5.77-1.82,1.41-4.53,2.46-5.92,3.23-5.02,2.54-9.92,5.33-14.87,8-5.15,2.77-10.43,5.33-15.32,8.54-10.76,6.8-21.31,14.05-30.74,22.57-4.33,3.97-9.28,7.68-12.25,12.84-.71,1.55-2.07,3.27-1.4,5.03v-.03c3.54,4.2,23.51,3.34,29.87,4.28,6.56.7,13.08,1.76,19.6,2.69,8.91,1.24,17.93,1.81,26.74,3.62,7.43,1.68,19.98,5.24,21.69,13.76Z"/>
    <path class="cls-4" d="m2023.21,840.63c-.64-.12-1.29-.2-1.93-.29-.99-.14-1.97-.27-2.96-.4-1.93-.25-3.85-.6-5.79-.78-1.95-.18-3.91-.23-5.86-.26-.89-.01-1.79-.03-2.68-.04-.44-.01-.88-.03-1.33-.04-3.52-.86-7.02-1.77-10.49-2.82-.42-.13-.84-.27-1.25-.41-.88-.03-1.75-.06-2.63-.1-27.59-1.61-54.95-5.68-82.28-9.62-14.47-1.96-28.98-3.71-43.34-6.37-15.39-3.04-30.65-6.77-45.95-10.21-35.84-8.17-72.27-13.78-107.77-23.41-17.37-4.89-34.35-11.09-51.79-15.72-11.67-3.04-23.3-6.22-34.92-9.43-14.73-3.86-29.46-7.71-43.87-12.65-16.13-5.4-32.58-9.71-49.21-13.22-2.96-.67-5.94-1.34-8.93-1.93-.06.62-.53,1.07-1.16,1.07-.57-.08-1.15-.09-1.73-.14-9.78-.94-19.67-1.27-29.48-.93-8.3.35-16.56,1.33-24.81,2.2-4.7.84-9.36,1.9-14.03,2.88-.62.13-1.24.26-1.86.4-17.16,5.09-33.31,12.87-49.78,19.77-11.24,4.72-29.1,18.24-35.42,16.18-6.1-1.87-34.28-13.77-40.49-15.27-7.58-1.8-15.35-4.18-22.92-6.21-20.97-5.77-42.24-10.31-63.51-14.86-8.58-2.22-17.66-4.59-24.67-10.28-12.17-10.78,1.91-20.85,11.9-25.57,9.01-4.45,18.62-7.74,28.11-11.07,11.56-4.1,23.17-8.05,34.89-11.66,8.91-2.79,17.81-5.73,26.34-9.55,6.3-2.93,12.36-6.35,18.59-9.44,7.74-3.89,15.58-7.67,22.81-12.48,5.2-3.56,9.83-7.98,13.88-12.78,4.24-4.74,4.93-11.51,3.7-17.54-1.71-8.52-14.26-12.08-21.69-13.76-8.82-1.8-17.84-2.38-26.74-3.62-6.53-.93-13.04-1.99-19.6-2.69-6.36-.94-26.33-.08-29.87-4.28v.03c-.67-1.76.69-3.48,1.4-5.03,2.96-5.16,7.91-8.86,12.25-12.84,9.43-8.53,19.98-15.77,30.74-22.57,4.89-3.21,10.17-5.77,15.32-8.54,4.96-2.67,9.85-5.46,14.87-8,1.38-.77,4.1-1.82,5.92-3.23,1.18-1.47,1.93-3.29.25-5.77t0,0c-.31-.32-.67-.64-.89-.99,0,0,0,0,0,0,.25.01.51.02.77.03.02,0,.05,0,.07,0,.06,0,.12,0,.19,0,.17,0,.33.01.5.02h.01s0,0-.01,0c0,0,.02,0,.03,0h.03c.09,0,.17,0,.26.01.02,0,.04,0,.07,0h0c.18.01.36.03.53.04.1,0,.19.02.28.02.11,0,.21.02.31.03.02,0,.03,0,.05,0,.03,0,.06,0,.09,0,0,0,0,0,0,0,.61.05,1.22.09,1.84.15.45.05.89.1,1.34.16.19.03.38.05.57.08,6.06,1.12,11.55,4.29,17.16,6.74,13.29,6.31,26.31,13.85,39.84,19.57,11.54,4.94,23.42,9.05,35.06,13.76,17.06,6.35,33.26,14.67,49.64,22.56,18.23,8.63,36.77,15.74,55.1,24.03,13.86,6.63,28.19,12.28,41.89,19.23,26.82,15.29,51.47,34.01,77.7,50.25,12.58,7.57,24.22,16.71,37.33,23.34,16.26,8.18,32.87,15.63,49.66,22.62,7.34,3.16,14.28,7.17,21.49,10.61,10.4,5.2,21.05,9.93,32.09,13.62,27.45,9.16,55.72,16.05,82.5,27.11,4.71,2.17,9.09,4.98,13.54,7.62,13.96,8.4,27.8,17.17,41.76,25.37,9.46,5.64,19.03,11.2,29.19,15.49,4.08,1.83,8.23,3.26,12.43,4.47,1.11-.06,2.21-.16,3.31-.3.46-.21,1.04-.18,1.4.22.36.38.39.96.11,1.39,5.65,1.45,11.37,2.67,17.08,4.13,1.89.45,3.71,1.09,5.46,1.86Z"/>
    <path class="cls-5" d="m1673.76,546.4c-.1-1.43-.68-2.73-1.1-4.08-4.63,1.37-9.08,3.25-13.52,5.01-2.32.94-5.83,1.98-4.11,5.18.11.06.23.12.36.13,2.74-.25,5.31-1.44,7.9-2.27,2.09-.71,4.17-1.41,6.25-2.15,1.39-.59,3.03-.86,4.21-1.83Zm5.09,18.09c-.27-1.48-.78-2.92-1.34-4.3-3.58.6-7.01,1.98-10.45,3.08.89,1.62,1.66,3.55,3.51,4.25,2.8-.83,5.72-1.63,8.29-3.03Zm12.15,38.07c.16-1.15-.64-2.34-.91-3.47-1.14-3.31-2.37-6.26-3.76-9.39-1.06-2.25-1.82-4.72-3.48-6.59-5.31,2.29-10.91,3.98-16.16,6.16,2.16,4.2,4.44,19.56,8.51,20.6,3.71-.89,7.13-2.74,10.67-4.14,1.83-.8,3.79-1.66,5.12-3.18Zm4.89-66.34c.03-1.62-.68-3.16-.82-4.71-3.72,1.35-7.44,2.72-11.06,4.35-.61.27-1.22.54-1.83.81-.45.28-1.24.32-1.45.86-.18,1.5.02,3.1.41,4.53.03,0,.05.01.08.01,3.24-.51,6.21-2.09,9.24-3.27,1.8-.85,3.84-1.34,5.42-2.58Zm1.41,99.24c.05-.47-.31-1.11-.5-1.44-.78-1.22-1.57-2.44-2.42-3.61h-.02c-1.22,0-2.33.6-3.44,1.04-2.26,1-4.52,2.02-6.73,3.14.95,1.52,1.74,3.07,2.83,4.49h0c.11.03.22.05.34.05,3.51-.4,6.84-2.06,9.93-3.66Zm5.32-81.24c0-1.38-.55-2.82-1.05-4.11-5.98,1.94-11.89,4.23-17.76,6.41.27.21.39.65.44.96.34,1.39,1.02,2.7,1.85,3.85,3.75-1.41,7.37-2.84,11.11-4.23,1.88-.79,3.82-1.58,5.4-2.89Zm8.31,43.65c.59-2.78.03-5.66-.11-8.46-.26-4.07-.53-8.32-1.06-12.32-5.36.87-10.4,3.14-15.55,4.79,1.36,3.81,2.78,7.6,4.04,11.45.6,1.82,1.16,3.67,1.85,5.46.27.6.59,1.49,1.26,1.68,3.38-.25,6.44-1.43,9.56-2.59Zm-.1,97.09c2.47-.98,4.94-1.94,7.42-2.89-2.09-5.57-4.39-11.06-6.37-16.67-1.29-3.71-2.52-7.58-3.87-11.32-1.76.71-3.53,1.4-5.3,2.07-6.12,2.21-12.29,4.31-18.58,5.99.24,2.26.46,4.52.78,6.76,1.06,7.62,2.57,15.08,4.02,22.61,2.88-.98,5.75-1.97,8.72-2.65,4.41-1.25,9.01-1.98,13.19-3.91Zm18.17,30.23c-2.57-7.73-5.17-15.46-7.63-23.23-6.26,1.9-12.62,3.53-18.77,5.56-3.42,1.15-6.83,2.32-10.21,3.59-.43.16-.85.33-1.27.5,2.35,9.31,5.46,18.43,8.53,27.51,2.66,7.59,5.18,15.24,7.73,22.87,1.32-1.08,2.66-2.15,3.59-3.59,1.37-1.99.41-4.66.18-6.88-.35-2.42-.81-4.83-.92-7.27-.07-1.66,1.3-2.79,2.34-3.89.62-.53,1.24-1.22,1.05-2.1-.24-1.24-.89-2.59-.19-3.8.54-1.18,1.49-2.15,2.62-2.78.3-.19.7-.25.9-.56.66-1.01.65-2.31,1.3-3.32,2.2-3.21,7.37-1.7,10.72-2.63Zm-4.17-201c.12-2.36-1.23-4.37-2.37-6.37-1.91.7-3.75,1.59-5.63,2.35-.48.13-1.08.47-1.69.73,1.26,2.26,2.47,4.58,3.35,7.02,1.73-.62,3.32-1.6,4.88-2.55.49-.38,1.25-.56,1.46-1.18Zm3.21,103.37c.08-.66-.26-1.25-.58-1.79-.94-1.55-2.09-2.96-3.16-4.42-.29-.06-.57-.09-.86-.09h0c-1.52,0-3.02.76-4.44,1.22-2.4.88-4.63,1.94-6.87,3.12.79,1.54,1.4,3.16,2.08,4.73.35.82.68,1.66,1.1,2.44.08.14.22.22.39.21,2.84-.16,5.29-1.87,7.79-3.06,1.51-.81,3.08-1.51,4.56-2.37Zm10.94-237.4c.94-4.74-4.51-7.45-8.09-9.07-.86-.51-1.63.47-2.35.85-2.59,1.78-5.24,3.46-7.89,5.15-1.68,1.15-3.91,3.43-6.11,2.47-.64-.48-.79-1.34-1.37-1.87-4.66,2.59-8.49,6.31-12.73,9.5-2.4,1.68-4.44,4.07-7.18,5.18-3.68.71-7.4,1.31-11.14,1.67-.23,2.2.11,4.51,1.28,6.42,2.12.16,4.31-.11,6.39.44,3.16,1.19,6.01,3.09,9.04,4.56,1.53.73,2.95,1.88,4.68,2.05,3.18-.75,6.44-1.3,9.69-1.53,1.65-.23,3.61-.26,4.94-1.36,3.28-2.46,6.65-4.74,9.69-7.49,1.04-.91,2.26-1.91,3.74-1.59.15.03.47.07.5.08,2.25.32,4.62-.08,6.75-.79-.19-3.09-1.04-6.15-.4-9.23-1.7.11-2.88-1.15-1.96-2.75.61-1.11,1.89-1.62,2.53-2.68Zm.48,293.38c1.5-.6,3-1.19,4.51-1.77-1.82-4.47-2.97-9.18-4.34-13.8-1.63-5.12-3.12-10.54-5.37-15.42-6.02,2.8-12.06,5.55-18.16,8.17,2.43,6.63,5.03,13.21,7.87,19.67.94,2.12,1.91,4.23,2.84,6.36.25.57.49,1.13.74,1.7,4-1.57,7.98-3.2,11.92-4.91Zm8.61-64.28c-.39-1.35-1.22-2.7-1.85-3.82-.44-.59-.73-1.71-1.59-1.71h-.02c-4.11.4-8.03,2.09-11.74,3.83.76,1.94,1.71,3.91,2.71,5.63.28.39.43,1.08,1.03,1,1.15-.06,2.22-.53,3.26-.97,2.8-1.19,5.51-2.55,8.19-3.97Zm.25,90.08c.14-.11.32-.26.53-.44-2.02-5.1-4.1-10.18-6.36-15.18-3.71,1.77-7.45,3.43-11.29,4.9,1.93,6.53,4.04,13.01,6.15,19.48.14-.31.28-.61.44-.9.88-1.39,2.6-1.42,4.07-1.2h.41c1.13.02,2.35.03,3.06-.97,1-1.89,1.38-4.16,2.99-5.7Zm21.57-37.85c-.06-.11-.11-.22-.17-.34-4.92-9.38-9.99-18.7-14.35-28.36-3.89,1.76-7.76,3.55-11.63,5.35,3.76,9.81,7.56,19.61,11.36,29.41,3.63-1.39,7.23-2.82,10.79-4.37,1.34-.55,2.67-1.11,4-1.69Zm5.94,22.94c1.29-.05,2.58-.1,3.87-.11-2-4.91-3.9-9.86-6.01-14.72-.22.09-.43.18-.65.27-4.91,1.93-9.87,3.94-14.68,6.11.93,2.41,1.86,4.81,2.79,7.22.32.82.65,1.64.98,2.45,4.51-.83,9.13-.92,13.7-1.21Zm37.51-91.21c-1.78-6.09-3.56-12.17-5.29-18.28-.56-1.62-1.1-3.24-1.62-4.86-3.51-.2-6.93-.97-9.8-3.22-5.74-3.65-1.92-10.54-10.64-12.32-2.3,2.34-5.25,3.89-7.5,6.25-.36.49-.29,1.17-.2,1.75.07.32.6.37.8.33,1.41-.11,2.88-.3,4.11-.3,2.66,0,4.27.86,1.97,5.21-1.54,2.36-4.04,3.83-6.13,5.65-1.9,1.85-3.35,3.94-5.24,5.73-1.57,1.57-3.36,2.91-5.21,4.13-1.61,1.14-3.56,1.76-5.2,2.84.73,1.76,1.4,3.55,2.19,5.27,1.77,4.24,3.48,8.5,5.1,12.8.65,1.73,1.3,3.46,1.95,5.19,8.01-3.5,16.06-6.92,24.14-10.25,5.5-2.02,11.03-3.97,16.56-5.93Zm7.31,50.05c2.49.09,4.99.11,7.48.15-3.78-12.19-7.64-24.36-10.94-36.68-1.87.79-3.74,1.59-5.61,2.38-10.74,4.39-21.65,8.33-32.35,12.83-4.29,1.84-8.55,3.78-12.79,5.74,2.27,6.64,5.16,13.07,8,19.49,3.32,7.37,6.06,14.71,9.02,22.14.74,1.81,1.48,3.62,2.23,5.43.11-.11.22-.21.3-.31,2.21-1.95,4.36-3.99,6.71-5.77,1.49-.95,3.92-.7,2.18-3.1-1.63-.24-1.35-2.24.22-2.38,2.67-1.57,5.31-3.3,7.5-5.48-1.15-3.72-1.28-5.66,1.85-8.35.89-.84.78-2.14,1.28-3.19.76-2.36,3.34-2.79,5.48-3.15,3.13-.9,6.27.14,9.44.25Zm7.71-55.53c-1.59-5.06-3.16-10.13-4.77-15.19-.35-.92-.69-1.85-1.02-2.78-.45-.18-.9-.36-1.35-.52-.31-.12-.61-.16-.9-.16-1.31,0-2.49.99-3.77,1.25-.13.04-.26.07-.4.09,1.56,4.5,3.11,9,4.52,13.55.59,1.99,1.18,3.98,1.76,5.97,1.98-.72,3.96-1.46,5.93-2.2Zm7.66-2.98c1.84-.74,3.67-1.49,5.5-2.27-2.51-2.4-5.43-4.31-8.25-6.34.96,2.85,1.9,5.71,2.76,8.6Zm1.71-83.11c.39-.31.03-.68-.15-1-1.33-1.72-2.37-3.63-3.63-5.4-2.01.86-4.03,1.75-5.45,3.33,1.18,2.34,2.25,4.64,4.31,6.23,1.67-1,3.51-1.79,4.92-3.16Zm-.03,138.11c2.95-1.31,4.33-1.72,6.59-1.18-3.21-10.39-6.35-20.79-9.5-31.19-.82-2.35-1.61-4.7-2.39-7.07-2.09.88-4.17,1.76-6.26,2.64,2.82,9.99,5.65,19.98,8.88,29.85.73,2.39,1.48,4.77,2.23,7.15.15-.07.31-.14.46-.2Zm20.23-129.57c1.6-1.15,1.44-2.27.54-3.85-.69-1.44-1.39-2.89-2.09-4.32-2.67-5.33-5.25-10.72-7.69-16.16-2.64,2.11-5.61,3.6-8.05,5.89,1.42,3.28,9.91,21.27,12.81,21.26.76-.06,1.34-.64,1.96-1.02.87-.58,1.75-1.11,2.53-1.8Zm11.7,21.5c-.43-1.72-1.42-3.26-2.13-4.89-1.53-2.85-2.49-6.04-4.65-8.45-2.17,1.64-4.27,3.46-6.53,4.97-.04.02-.08.05-.12.07.19.3.36.64.53.91,2.01,3.54,3.85,7.19,6.04,10.62.02.04.04.08.06.11.23.3.45.6.66.92,2.26-1.22,4.48-2.35,6.14-4.27Zm25.81-8.44s.01,0,.02-.01c-.52-1.25-1.01-2.51-1.52-3.77-3.55-8.28-7.45-16.41-10.93-24.71-3.71-8.31-8.66-16.01-13.81-23.49-.07,0-.14,0-.21.01-1.23.08-2.46.2-3.64.43-.41.06-.8.14-.99.56-1.2,2.63-.99,5.84-.61,8.59,2.8,5.47,5.31,11.02,7.73,16.66,3.37,8.38,7.23,16.54,10.59,24.92.62,1.62,1.21,3.25,1.86,4.85.17-.03.33-.06.5-.09,2.98-.65,5.59-1.65,8.35-2.79.92-.39,1.85-.77,2.66-1.16Zm-.28,103.39c2.1-.48,4.23-.89,6.26-1.62-3.48-3.14-6.99-6.54-11.38-8.2-.99-.32-2.25.04-3.13.28-1.63.45-3.25.95-4.86,1.46-1.81.72-3.66,1.03-5.59.94-1.56.46-3.07,1.07-4.54,1.68-1.93.72-4.1,1.9-6.16,1.09-3.3-2-6.09-4.87-8.11-8.16-1.62-2.06-1.91-4.69-2.59-7.14-.67-2.12-1.28-4.45-2.74-6.17-1.19-.83-2.6-.77-3.99-.72-.47.02-.94.04-1.39.02-.73-.05-1.45-.07-2.16-.07-1.41,0-2.81.07-4.2.1,2.06,6.96,4.1,13.93,6.17,20.88,2,6.18,4.15,12.33,6.19,18.5,2.47-.19,4.87-.78,6.37-2.23.11-6.75,5.08-3.67,9.34-3.32,1.05.11,2-.37,3.01-.53,3.48-.34,7.06.05,10.5-.69.37-3.44,1.9-4.26,5.11-4.82,2.63-.43,5.28-.73,7.88-1.3Zm131.49,255.36c.24.66.5,1.31.75,1.96-1.58-.26-3.16-.52-4.72-.85-1.98-.42-3.97-.86-5.96-1.26-3.95-.81-7.9-1.57-11.86-2.34-7.64-1.49-15.27-2.97-22.89-4.57-4.1-.86-8.21-1.72-12.31-2.57-3.87-.81-7.77-1.48-11.67-2.13-2.04-.35-4.08-.66-6.12-.98-1.7-.27-3.4-.47-5.1-.77-2.01-.35-4.01-.68-6.01-1.1-1.93-.41-3.86-.84-5.79-1.23-3.93-.8-7.87-1.62-11.83-2.29-3.75-.64-7.5-1.27-11.24-1.96-3.95-.73-7.89-1.51-11.82-2.33-3.7-.76-7.41-1.54-11.11-2.29-4.15-.84-8.3-1.66-12.45-2.46-3.94-.75-7.85-1.64-11.78-2.47-7.61-1.62-15.2-3.35-22.82-4.9-3.98-.81-7.97-1.6-11.94-2.41-3.72-.76-7.43-1.59-11.14-2.42-2.18-.56-4.34-1.14-6.5-1.77-2.42-.7-4.85-1.41-7.27-2.12-2.33-.68-4.67-1.34-7-2-2.21-.62-4.44-1.18-6.67-1.77-1.95-.51-3.92-.96-5.88-1.43-1.93-.47-3.85-.96-5.78-1.44-1.86-.47-3.71-.97-5.57-1.46-1.86-.5-3.72-.99-5.56-1.54-3.67-1.1-7.33-2.2-10.93-3.49-3.94-1.41-7.86-2.88-11.78-4.34-3.41-1.27-6.86-2.44-10.31-3.6-3.76-1.26-7.52-2.51-11.28-3.74-1.95-.63-3.91-1.26-5.87-1.89-1.73-.55-3.47-1.07-5.18-1.66-2.8-.96-5.58-1.95-8.36-2.97l-.34-.98c.03-.56-.2-1.13-.35-1.66-.13-.47-.27-.95-.4-1.42-.68-2.39-1.4-4.76-2.18-7.12-.58-2.47-1.15-4.94-1.7-7.41-.63-2.82-1.24-5.64-1.9-8.45-.66-2.84-1.6-5.6-2.68-8.3-.47-1.18-.98-2.34-1.51-3.51.38.1.76.19,1.14.29-2.94-9.93-5.89-19.86-8.84-29.78-4.62-15.53-9.22-31.06-13.83-46.59-4.55-15.32-9.08-30.64-13.64-45.95-4.58-15.38-9.13-30.77-13.7-46.16-4.47-15.04-8.93-30.07-13.39-45.11-4.54-15.3-9.09-30.6-13.63-45.9-4.45-15.02-8.92-30.05-13.38-45.07-4.01-13.52-8.02-27.03-12.04-40.55-.48-1.63-.96-3.25-1.45-4.88-.05-.17-.1-.33-.15-.5.13-1.04.26-2.09.39-3.13.1-.82.21-1.64.31-2.46.36-2.89.73-5.77,1.09-8.65.1-.8.2-1.59.3-2.39.19-.04.39-.08.58-.12.14-.03.29-.05.43-.08,0,0,0,0,.01,0,.08-.01.16-.03.24-.04.35-.06.7-.11,1.06-.15,1.05-.13,2.11-.19,3.15-.19,3.33-.03,6.74-.02,9.99.83,2.51.76,1.75,3.4,2.53,5.21.06.13.19.2.33.19,1.63-.57,3.24-1.21,4.85-1.82,2.18-.84,4.39-1.63,6.4-2.51.64-.31,1.34-.55,1.9-.99.49-1.43.43-3.04,1.15-4.4.57-.86,1.66-1.14,2.64-1.07,1.61.1,3.21.18,4.82.27.61-.01,1.28.04,1.97.08,2.27.15,4.79.3,6.21-1.46.32-1.89.37-3.86,1.09-5.65.67-2.11,2.77-2.49,4.72-2.34.59-.05,1.2-.01,1.82.03,1.08.07,2.17.14,3.14-.28.56-.54.45-1.47.81-2.15.85-2.49,3.69-2.97,5.93-3.56,2.39-.62,4.63-1.05,6.83-1.91,1.35-.6,1.34-1.14.9-2.48-.29-1.1-.13-2.38.88-3.06.41-.35.98-.43,1.38-.79.69-1.1.51-2.52.77-3.75.52-3.52.97-7.15,2.47-10.4.82-1.71,2.86-2.1,4.52-2.56,2.39-.61,4.79-1.17,7.18-1.8,3.09-.69,6.18-1.67,9.35-1.83.84-.03,1.81.3,2.12,1.15.28.75-.07,1.31.11,2.03,1.11-.17,2.39-.38,3.32-1-2.55-2.76-.91-4.01,2.08-4.86,3.55-1.15,7.15-2.15,10.66-3.4,7.99-3.09,16.29-5.67,24.13-9.11.15-2.22.45-4.45,1.51-6.4.91-1.36,2.42-2.16,3.62-3.23,5.31-4.48,10.84-8.67,16.44-12.78,2.7-2.16,6.07-3.89,7.75-7.03.75-3.5,2.3-7.11,1.77-10.72-.92-3.38-3-6.12-4.19-9.37-.77-2.03-1.91-4.05-1.84-6.27.06-1.65,1.82-2.09,3.14-2.4,1.59-.44,3.21-.76,4.78-1.28,3.99-2.46,8.11-4.85,12.05-7.45.68-.45,1.35-.91,2.02-1.37.67.45,1.34.9,2.01,1.34,7.37,4.92,14.8,9.72,22.27,14.46,1.4.89,2.8,1.77,4.2,2.66.41.7.81,1.41,1.21,2.12.37.66.74,1.33,1.1,2,2.3,4.24,4.43,8.57,6.69,12.84,2.6,4.83,5.35,9.59,7.94,14.42,1.21,2.54,3.06,4.85,3.89,7.53.86,7.89-3.31,4,1.97,14.34,1.71,3.33,3.37,6.66,5.01,9.93,2.22,4.66,4.93,9.1,6.88,13.88.48,1.32.83,2.76.57,4.17-.32,1.86-1.58,3.56-1.17,5.51.66,2.54,1.8,5.17,2.91,7.48,3.86,7.66,8.65,14.91,12.48,22.58.11.22.22.43.32.65.11.21.21.43.31.64.21.44.42.88.62,1.32.13.28.26.57.39.85.13.3.27.6.4.9.13.3.26.6.39.91.01.02.02.05.03.07,0,.18,0,.36,0,.54,0,.72,0,1.43-.02,2.15-.01.71-.03,1.43-.05,2.15-.09,3.49-.19,6.98.13,10.44.96,3.07,2.87,5.89,4.33,8.62,2.98,5.39,5.68,10.94,8.51,16.41.81,1.83,3.22,4.59-.08,5.31-.38.1-.36.48-.28.8.63,2.01,1.98,3.69,3.07,5.46.62,1,1.36,2.01,1.36,3.25.21,1.57-.62,2.63-1.04,3.99.65,3.2,1.82,6.08,3.36,8.91,2.27,4.09,4.63,7.89,6.42,12.17.93,2.49,1.54,5.13,2.16,7.69.76,3.11,1.64,6.25,2.35,9.36.35,1.44.71,2.88,1.11,4.32.13.47.26.94.39,1.4.05.16.09.32.14.48.4,1.37.83,2.73,1.3,4.07.08.22.15.44.23.65.1.28.2.55.3.83.06.15.11.3.17.45.08.21.16.43.25.64.1.25.2.5.3.75.19.47.39.94.6,1.4.05.12.11.24.16.37.1.22.2.45.31.67.09.18.17.37.26.55.01.03.02.05.04.08.05.12.11.23.17.34.1.21.21.42.31.63.11.35.22.7.33,1.05.09.28.18.56.27.83.14.42.27.84.42,1.26.11.33.23.67.34,1.01,0,.01,0,.03.01.04.21.61.42,1.22.64,1.83,1.91,5.29,4.12,10.48,5.88,15.82,3.21,9.63,5.71,19.17,9.14,28.66,4.08,11.42,9.49,21.94,14.58,32.83,7.78,17,15.52,34.08,21.55,51.8,15.65,47.59,32.71,94.71,49.54,141.89,1.25,3.28,2.5,6.54,3.77,9.8.04.1.06.2.07.29,1.81,4.52,3.56,9.06,5.27,13.62.07,0,.13.02.2.02l.16.57c.03.2.07.4.1.59.16.87.37,1.72.71,2.54.43,1.04.94,2.03,1.48,3,.12.3.26.6.41.89.05.14.11.29.16.43.54,1.54.88,3.13,1.3,4.71.53,1.98,1.08,3.94,1.53,5.94.36,1.73.67,3.47,1.06,5.19.37,1.66.79,3.31,1.23,4.95.94,3.49,2.01,6.95,2.88,10.46.77,3.32,1.49,6.66,2.33,9.97.59,2.37,1.17,4.76,2.02,7.04Z"/>
    <rect class="cls-2" x="511.66" y="-4.3" width="1856.69" height="1319.05"/>
    <rect class="cls-2" x="-29.06" y="-3.9" width="2938.11" height="1317.79"/>
    <path class="cls-13" d="m2879.93,901.26c-.05.03-.14.08-.26.15-4.8,2.82-62.78,35.07-219.85,41.86-73.65,3.18-362.95-79.71-436.66-79.06-13.79.13-189.39-25.61-191.81-25.56-2.66.05-5.33.05-7.99.05h-.73c-10.57,0-21.13-.41-31.68-.99-5.68-.31-11.35-.65-17.02-1.03-5.89-.38-11.78-.73-17.65-1.27-6.07-.56-12.11-1.32-18.14-2.15-6.22-.88-12.39-1.96-18.56-3.09-4.73-.86-9.44-1.76-14.15-2.69-1.25-.15-2.5-.29-3.74-.44-5.57-.69-11.13-1.42-16.68-2.18-5.76-.79-11.5-1.6-17.21-2.62-5.78-1.04-11.55-2.1-17.33-3.16-5.6-1.02-11.2-2.07-16.78-3.23-7.59-1.58-15.18-3.19-22.74-4.93-5.58-1.28-11.14-2.66-16.7-4.01-5.62-1.37-11.25-2.75-16.86-4.17-4.27-1.08-8.51-2.22-12.76-3.36-4.38-1.18-8.76-2.34-13.14-3.53-4.16-1.14-8.34-2.29-12.48-3.51-4.85-1.36-9.68-2.79-14.53-4.17-4.6-1.31-9.2-2.63-13.8-3.98-6.54-1.92-13.02-4.05-19.45-6.3-48.84-12.32-97.34-25.95-145.51-40.56-8.2-2.21-16.42-4.49-24.85-5.6-11.15-.89-22.36-.66-33.52.02-.45-8.27-.29-16.57-.12-24.85.28-9.9.71-19.79,1.16-29.68.35-6.24,1.11-12.47.81-18.73-.01-.09-.01-.17-.01-.26,2.22-1.43,4.31-3.07,6.12-5.04.01,0,.01,0,.01,0,.32-.28.61-.57.81-.84.89-.44.85-1.95,1.01-2.88.26-1.33.14-2.65-.24-3.92h0c-.04-.21-.09-.41-.13-.61-.18-.71-.4-1.39-.66-2.06-.2-1.03-.33-2.12-.57-3.14.79-.38,1.2-1.59,1.62-2.36,1.12-3.78,0-7.45-.22-11.34-.05-.51-.27-3.6-.7-5.92,1.53-2.33,3.36-4.77,2.74-7.65-.39-1.61-1.31-3.16-1.63-4.83-.94-3.64.44-7.34.95-10.94,1.02-4.64,3.2-8.94,4.09-13.6.33-1.73.9-3.52.34-5.26-.04-.19-.18-.83-.37-1.6-.01-.46-.06-.91-.15-1.37-.07-1.01-.76-1.81-.85-2.8-.02-.17-.06-.47-.09-.7h0c-.05-.21-.05-.56-.11-.87,1.21-.94,2.28-2.02,3.1-3.34.15-.26.18-.51.13-.69.02-.18-.02-.37-.15-.53-.18-.24-.36-.48-.56-.71-1.21-1.22-2.18-2.73-3.48-3.91-.03-.07-.06-.12-.09-.17-.01-.3-.18-.63-.22-.92-.16-.68-.27-1.41-.41-2.1-.44-2.48-1.25-4.88-1.99-7.29-.49-1.67-.96-3.34-1.54-4.98-.38-1.27-.83-2.53-1.52-3.67.28-.38.48-.8.48-1.31,0-.16-.03-.31-.07-.46,0-.02.01-.03.01-.05.02-1.15-.83-2.12-1.43-3.04-.74-1.02-1.4-2.1-2.17-3.1-2.57-3.26-6.22-7.02-10.54-7.34-.39-.06-.78-.09-1.18-.08-1.6-.26-3.25-.1-4.82.33-2.17.54-4.27,1.64-6.01,2.88-4.32,3.57-5.32,9.01-5.46,14.47-1.49,1.47-3.2,2.77-4.72,4.21-.9.77-1.74,1.63-2.59,2.46-.49.37-.97,1.02-.68,1.59.07.32.4.74.69,1.04,1.12,1.74,4.16,3.51,5.42,4.42.11.12.23.17.36.2.13.06.26.09.42.1.1.04.22.05.33.02.62.06,1.28-.14,1.89-.19.42-.07.85-.1,1.27-.13,1.56-.03,3.11-.06,4.67-.04-.59.35-1.26.58-1.96.55-1.2.06-2.28.16-3.5.19-.8.04-3.12-.05-3.74.8-.35.21-.68.5-.82.71-3.42,4.65-7.65,8.95-9.67,14.48-.73,3.19-.04,6.48.32,9.67.62,7.25,2.35,14.3,4.54,21.24.02.08.05.15.08.2.01.2.01.39.03.58.05.9.11,1.84.2,2.77-1.55.11-3.1.18-4.63.52-.69.25-1.38.51-2.06.77-.24.08-.61.22-.65.5-.02.05-.02.1-.01.15-.1.18-.13.41-.14.64-.2.69-.26,1.5.02,2.15.02.05.04.09.07.13.12.94,1.03,1.54,1.69,2.15,1.02.78,2,1.6,2.94,2.48l-.05.43c-.17,2.13-.28,4.27-.32,6.41.06.94-.28,2.11.37,2.9.1.16.25.24.42.26.16.12.35.18.52.19.77-.02,1.49-.11,2.23-.14-.65,1.37-1.19,2.64-2.32,3.94-.52.94-2.71,1.89-1.48,3.08.06.03.11.06.17.1.16.12.37.24.5.28.49.35,1.02.63,1.56.91.03.03.07.06.11.08.42,3.11.46,6.51.18,9.66-.14.83,0,1.72-.28,2.55-.52,1.81-.97,3.63-1.34,5.48-.28,1.29-.77,2.82.01,4.07.56.75,1.48,1.02,2.32,1.33,1.56.55,3.1,1.14,4.68,1.63.28,3.18.35,6.38.34,9.59-.07,2.52-.09,5.06-.11,7.62-.33,4.7-.48,9.44-.56,14.18-.42,5.91-.69,11.85-1.19,17.76-.75,7.92-1.78,15.81-2.73,23.7-11,1.64-21.86,4.06-32.27,7.98-32.68,12.26-64.14,27.6-97.21,38.87-27.29,10.12-55.06,18.79-82.84,27.43-35.94,11.28-71.9,22.52-107.85,33.78-85.28,27.26-178.32,50.23-273.1,51.71-31.49.49-393.33-119.35-449.7-117.59C306.24,780.38,0,901.21,0,901.21v.05h-32.11v413.87H.84v-.38h2878.83v.38h32.95v-413.87h-32.69Zm-1420.79-166.86s-.03.01-.03.01c0-.09.01-.18.03-.26v.25Zm34.34-191.23c.05-.05.12-.11.17-.16,1.1,3.88,2.45,7.7,3.56,11.57.63,2.18.83,4.46,1.42,6.66-.37-.07-.82-.05-1.43.06-.36.05-.75.04-1.12.02.03-.12.02-.26-.01-.39-.32-1.12-.81-2.19-1.16-3.3-1.06-3.48-2.27-6.89-3.85-10.17-.17-.46-.35-.95-.56-1.44,1.25-.9,2.68-2.47,2.98-2.85Zm-10.18,24.82c-.05-.08-.11-.16-.15-.24,0,0,.01,0,.01,0,.52-.89,1.4-1.64,1.81-2.63.14-1-.3-2-.41-2.99-.04-.35-.05-.72-.05-1.08.19.37.39.74.56,1.12.58,1.19,1.17,2.38,1.96,3.42.27.43.7.94,1.03,1.28.05.08.11.16.15.24.05.07.11.13.18.17.08.06.15.09.23.09.3,0,.58-.41.82-.56.63-.43,1.27-.9,1.9-1.37.42-.25.84-.49,1.3-.69.36-.19.73-.38,1.11-.56.04.03.08.04.12.06.11.06.2.14.27.23-.06.07-.12.14-.2.2-1.13,1.12-2.51,2-3.83,2.88-.44.16-.83.53-.83.97,0,.07.01.13.03.2.03.21.15.42.22.61.71,1.35,1.62,2.59,2.51,3.83.16.23.28.47.47.68.14.23.29.48.55.6.06.04.12.07.18.1.97.29,1.79-.51,2.72-.81.99-.55,2.01-1.12,3.01-1.74-.05.45-.16.89-.28,1.32-.1.32-.23.65-.38.98-1.77,1.33-3.93,2.02-6.14,2.34-.64-.59-1.26-1.2-1.87-1.83-2.16-2.41-4.76-4.44-6.98-6.8-.01,0-.01,0-.02,0Z"/>
  </g>
</svg>