<?xml version="1.0" encoding="UTF-8"?>
<svg id="Layer_31" data-name="Layer 31" xmlns="http://www.w3.org/2000/svg" xmlns:xlink="http://www.w3.org/1999/xlink" viewBox="0 0 2880 1310">
  <g id="Layer_6" transform="translate(0, 0)">
    <path d="M-29.315,677.668 L1077.486,666.07 L1174.655,630.51 L1342.342,584.894 L1457.914,623.75 L1682.765,617.8 L1885.155,638.19 L2111.027,655.011 L2296.479,623.75 L2479.243,677.668 L2908.805,655.011 L2908.805,1313.89 L-29.315,1313.89 L-29.315,677.668 z" fill="#CC6835"/>
    <path d="M2908.805,640.04 L2908.805,1391.7 L2879.555,1391.7 L2879.555,664.81 C2868.505,663.64 2515.585,711.08 2509.675,708.88 C2502.075,706.21 2334.795,641.68 2326.955,639.88 C2319.495,638.29 2311.945,635.88 2304.325,635.46 C2301.235,635.46 2298.105,635.42 2295.035,635.65 C2291.135,636.15 2287.285,637.02 2283.395,637.62 C2272.375,639.47 2261.215,640.57 2250.115,641.75 C2235.735,643.25 2221.475,645.71 2207.455,649.22 C2193.535,652.4 2179.495,655.01 2165.555,658.09 C2150.105,661.62 2134.255,664.02 2118.945,667.98 C2117.105,668.44 2115.315,668.96 2113.615,669.57 L2113.605,669.57 C2113.425,669.63 2113.255,669.69 2113.075,669.76 C2113.505,669.87 2113.925,669.98 2114.345,670.08 C2114.705,670.17 2115.005,670.3 2115.215,670.62 C2115.765,671.46 2114.885,672.69 2113.895,672.29 C2113.595,672.22 2113.295,672.14 2112.995,672.07 C2112.975,672.07 2112.945,672.07 2112.915,672.05 C2111.805,671.77 2110.685,671.5 2109.575,671.24 C2107.965,671.97 2106.375,672.71 2104.725,673.3 C2104.155,673.52 2103.475,673.13 2103.295,672.57 C2103.105,672 2103.455,671.34 2104.025,671.15 C2104.665,670.92 2105.295,670.67 2105.905,670.42 C2085.805,666.02 2065.135,663.92 2044.625,663.35 C2030.965,662.72 2017.325,664.62 2003.685,663.42 C1999.675,663.09 1995.765,662.1 1991.875,661.12 C1991.375,660.99 1990.885,660.87 1990.375,660.74 C1975.005,657.02 1959.375,654.52 1943.845,651.55 C1937.205,650.46 1930.715,648.62 1924.145,647.2 C1915.695,645.42 1907.115,644.27 1898.775,642 C1898.075,641.82 1897.375,641.65 1896.685,641.47 C1892.805,640.49 1888.935,639.48 1885.155,638.19 C1884.565,638.01 1883.935,637.58 1883.715,637.02 C1883.265,636.99 1882.795,636.98 1882.335,636.97 C1881.935,636.97 1881.555,636.97 1881.155,636.97 C1881.035,636.97 1880.905,636.94 1880.775,636.93 C1881.735,636.77 1882.695,636.62 1883.645,636.45 C1883.675,636.31 1883.715,636.17 1883.795,636.03 C1884.725,634.82 1886.645,635.13 1888.005,634.86 C1890.795,634.6 1893.565,634.31 1896.335,633.97 C1905.885,631.9 1915.355,629.46 1924.895,627.33 C1932.395,625.78 1939.955,624.55 1947.475,623.14 C1963.865,619.98 1980.205,616.49 1996.435,612.6 C2018.215,608.02 2039.935,603.2 2061.665,598.35 C2067.755,597.03 2073.775,595.47 2079.785,593.87 C2090.015,591.17 2100.215,588.36 2110.625,586.5 C2114.195,585.91 2117.765,585.39 2121.355,584.88 C2131.755,583.43 2142.195,582.17 2152.535,580.23 C2163.375,578.31 2174.325,577.1 2185.205,575.41 C2201.595,572.53 2218.245,571.02 2234.875,570.45 C2245.255,570.42 2255.625,571.11 2266.005,571.71 C2282.015,572.88 2297.875,575.98 2313.775,577.84 C2460.515,594.97 2603.155,661.33 2879.555,640.06 C2879.615,640.06 2879.685,640.06 2879.745,640.06 L2908.805,640.06 z" fill="#CC6935"/>
    <path d="M1617.145,599.64 C1616.095,599.78 1615.055,599.94 1614.005,600.09 C1612.595,600.3 1611.185,600.5 1609.785,600.72 C1609.405,600.78 1609.025,600.83 1608.645,600.89 C1608.505,601.13 1608.265,601.31 1607.925,601.38 C1607.215,601.41 1606.215,601.53 1605.575,601.63 C1598.455,602.63 1591.595,604.79 1584.725,606.83 C1579.475,608.36 1574.145,609.65 1568.895,611.14 C1564.225,612.51 1559.535,613.75 1554.775,614.73 C1553.155,615.03 1551.525,615.53 1549.875,615.27 C1543.555,613.59 1537.865,610.07 1531.945,607.36 C1527.995,605.4 1523.885,603.79 1519.895,601.91 C1518.325,601.17 1516.785,600.37 1515.235,599.58 C1514.435,599.25 1513.895,598.64 1513.715,597.99 C1513.695,597.99 1513.665,598 1513.645,598.01 C1513.635,598.01 1513.615,598.01 1513.605,598.02 C1513.485,597.7 1513.325,597.4 1513.105,597.08 C1512.825,596.67 1512.455,596.36 1512.025,596.14 C1518.505,594.35 1525.035,592.7 1531.375,590.44 C1538.655,587.92 1545.985,584.41 1553.875,584.95 C1561.705,585.46 1569.435,587.11 1577.045,588.93 C1585.225,591.28 1593.275,594.06 1601.535,596.08 C1606.705,597.41 1611.885,598.66 1617.135,599.64 z" fill="#E2D3B9"/>
    <path d="M2172.125,493.16 C2172.125,491.76 2172.135,490.35 2172.145,488.95 C2172.125,488.95 2172.105,488.95 2172.085,488.95 C2171.135,488.91 2169.695,489.15 2169.665,487.8 C2169.665,487.72 2169.675,487.64 2169.695,487.56 C2168.935,487.56 2168.175,487.55 2167.415,487.55 C2167.335,491.24 2167.255,494.89 2167.335,498.63 C2167.355,499.02 2167.365,499.41 2167.385,499.81 C2168.945,499.86 2170.525,499.9 2172.085,499.95 C2172.095,497.69 2172.115,495.42 2172.115,493.16 z M2172.155,485.3 C2172.155,483.81 2172.165,482.32 2172.175,480.83 C2170.615,480.51 2169.075,480.21 2167.525,479.87 C2167.525,480.43 2167.515,481 2167.495,481.56 C2167.495,482.34 2167.495,483.11 2167.475,483.88 C2167.785,483.92 2168.065,483.95 2168.295,483.94 C2169.095,483.99 2170.185,483.76 2170.445,484.78 C2170.485,484.98 2170.485,485.15 2170.455,485.3 C2171.015,485.3 2171.585,485.3 2172.145,485.3 z M2176.115,501.98 C2176.555,501.96 2176.985,501.95 2177.425,501.93 C2177.405,498.34 2177.395,494.75 2177.385,491.16 C2177.375,487.82 2177.365,484.49 2177.355,481.15 C2177.025,481.15 2176.695,481.17 2176.385,481.19 C2176.335,485.05 2176.295,488.9 2176.245,492.76 C2176.205,495.83 2176.165,498.9 2176.125,501.97 z M2182.205,486.01 C2182.055,486.01 2181.895,486.03 2181.745,486.03 C2181.745,486.53 2181.745,487.03 2181.735,487.53 C2181.715,489.58 2181.695,491.64 2181.685,493.69 C2181.855,493.69 2182.015,493.69 2182.185,493.68 C2182.195,491.12 2182.215,488.56 2182.215,486 z M2193.435,484.34 C2193.365,483.86 2193.305,483.39 2193.255,482.91 C2193.255,482.93 2193.255,482.95 2193.255,482.97 C2193.225,482.73 2193.205,482.51 2193.175,482.28 C2191.985,481.85 2190.675,481.38 2190.335,480.01 L2190.315,479.96 C2189.785,480.17 2189.135,479.89 2188.895,479.37 C2188.765,479.04 2188.775,478.76 2188.885,478.51 C2187.905,477.96 2187.005,477.22 2186.215,476.38 C2186.215,476.83 2186.215,477.29 2186.215,477.74 C2186.575,478.03 2186.905,478.37 2187.255,478.64 C2189.365,480.43 2191.625,482.29 2193.425,484.34 z M2198.665,474.88 C2199.775,474.82 2201.505,474.99 2201.055,476.52 C2200.835,477.11 2200.205,477.35 2199.645,477.19 C2197.885,477.05 2196.335,477.1 2194.595,477.14 C2194.075,477.96 2193.275,478.44 2192.435,478.87 C2192.435,479.15 2192.495,479.43 2192.675,479.66 C2194.455,480.32 2195.445,480.56 2195.495,482.69 C2195.655,484.5 2196.135,486.25 2196.475,488.03 C2196.615,489.26 2195.085,489.85 2194.345,488.84 C2193.735,488.02 2193.085,487.24 2192.365,486.5 C2192.365,486.5 2192.365,486.5 2192.365,486.5 C2190.455,484.37 2188.375,482.49 2186.205,480.68 C2186.185,483.9 2186.165,487.11 2186.145,490.32 C2186.125,496.41 2186.085,502.49 2186.055,508.58 C2186.025,514.6 2185.985,520.62 2185.965,526.64 C2185.945,532.67 2185.905,538.7 2185.875,544.73 C2185.845,550.86 2185.805,556.98 2185.785,563.11 C2185.765,569.23 2185.735,575.35 2185.695,581.48 C2185.645,587.72 2185.645,593.96 2185.605,600.2 C2185.575,604.82 2185.555,609.45 2185.535,614.07 C2185.535,614.09 2185.535,614.12 2185.545,614.14 C2185.545,614.22 2185.545,614.29 2185.535,614.37 C2185.535,615.02 2185.535,615.68 2185.535,616.33 C2185.535,616.94 2185.025,617.46 2184.405,617.46 C2183.795,617.46 2183.265,616.95 2183.275,616.34 C2183.275,616.01 2183.275,615.68 2183.275,615.35 C2176.725,615.48 2170.185,616.4 2163.715,617.26 C2163.695,617.85 2163.195,618.34 2162.595,618.35 L2162.595,618.35 C2161.985,618.35 2161.465,617.84 2161.465,617.23 C2161.425,612.5 2161.385,607.77 2161.335,603.04 C2161.295,598.27 2161.255,593.51 2161.215,588.75 C2161.165,584.19 2161.135,579.64 2161.095,575.08 C2161.065,572.36 2161.025,569.63 2161.025,566.91 C2161.025,566.3 2161.525,565.78 2162.145,565.77 C2162.215,565.77 2162.275,565.77 2162.335,565.79 C2162.365,565.79 2162.385,565.79 2162.415,565.79 C2162.875,565.77 2163.335,565.74 2163.805,565.71 C2163.775,561.5 2163.915,557.23 2163.205,553.09 C2163.135,552.75 2162.785,552.67 2162.555,552.47 C2161.735,551.91 2161.545,550.92 2161.595,549.99 C2161.595,546.95 2161.575,543.9 2161.665,540.86 C2161.715,539.17 2161.825,537.48 2161.825,535.79 C2161.825,535.18 2162.335,534.66 2162.955,534.66 C2163.435,534.71 2163.725,534.9 2163.895,535.2 C2164.225,533.34 2163.945,531.33 2164.015,529.46 C2163.765,525.67 2163.925,521.84 2163.545,518.06 C2163.515,517.86 2163.375,517.48 2163.315,517.36 C2162.685,516.14 2162.515,514.76 2162.515,513.38 C2162.235,513.17 2162.045,512.84 2162.045,512.47 C2161.995,509.08 2161.965,505.69 2161.925,502.31 C2161.905,500.29 2161.875,498.26 2161.855,496.24 C2161.835,494.44 2161.795,492.64 2161.795,490.84 C2161.795,490.22 2162.305,489.71 2162.925,489.71 L2162.925,489.71 C2162.685,483.91 2162.645,478.06 2162.225,472.3 C2161.125,471.37 2162.495,469.69 2163.675,470.39 C2163.875,470.53 2164.035,470.71 2164.145,470.91 C2164.435,470.23 2164.785,469.59 2165.285,469.05 C2165.335,466.97 2165.425,464.89 2165.605,462.84 C2165.715,462.07 2166.455,461.79 2167.055,461.96 C2166.915,458.94 2166.985,456.09 2167.145,453.16 C2164.175,453.29 2165.015,450.4 2165.005,448.38 C2165.035,447.44 2165.055,446.51 2165.035,445.57 C2164.975,445.14 2165.175,444.69 2165.545,444.45 C2166.075,444.12 2166.765,444.29 2167.105,444.8 C2167.565,446.39 2167.135,448.41 2167.185,450.08 C2167.185,450.08 2167.185,450.08 2167.185,450.07 C2167.185,450.1 2167.185,450.12 2167.185,450.14 C2167.185,450.39 2167.175,450.65 2167.185,450.9 C2167.305,450.89 2167.405,450.89 2167.505,450.9 C2168.095,450.24 2169.435,450.51 2169.485,451.6 C2169.275,453.91 2169.315,456.1 2169.225,458.38 L2169.225,458.4 C2169.195,459.72 2169.255,461.04 2169.325,462.36 C2169.325,462.4 2169.325,462.45 2169.325,462.49 C2169.485,462.93 2169.395,463.46 2168.875,463.79 C2168.545,463.97 2168.115,464.1 2167.725,464.09 C2167.715,464.18 2167.705,464.27 2167.695,464.36 C2167.455,468.47 2167.515,472.59 2167.525,476.72 C2168.515,476.85 2169.505,477.04 2170.475,477.01 C2171.075,475.81 2172.825,476.47 2172.615,477.76 C2172.835,477.84 2173.065,477.89 2173.295,477.93 C2173.305,477.37 2173.325,476.82 2173.355,476.27 C2173.415,472.62 2173.305,469.03 2173.235,465.45 C2173.025,465.53 2172.795,465.58 2172.565,465.57 C2171.955,465.54 2171.495,464.94 2171.545,464.34 C2171.595,463.57 2172.315,463.41 2172.875,463.12 C2172.655,462.56 2172.845,462.17 2173.185,461.86 C2173.185,460.21 2173.195,458.55 2173.255,456.89 C2173.365,456.22 2173.915,455.92 2174.445,455.96 C2174.445,455.54 2174.445,455.12 2174.445,454.7 C2174.445,454.09 2174.895,453.55 2175.525,453.53 C2176.115,453.5 2176.705,453.99 2176.705,454.61 C2176.705,456.01 2176.665,457.41 2176.655,458.8 L2176.635,460.02 C2177.275,459.91 2177.865,460.07 2178.155,460.85 C2178.385,461.61 2178.225,462.53 2177.575,463.04 C2177.255,463.26 2176.925,463.47 2176.595,463.66 C2176.595,464.19 2176.585,464.71 2176.575,465.24 C2176.525,469.53 2176.475,473.82 2176.415,478.12 C2176.715,478.1 2177.035,478.1 2177.335,478.12 L2177.335,477.82 C2177.335,476.04 2177.315,474.25 2177.315,472.47 C2177.315,472.47 2177.315,472.46 2177.305,472.45 C2177.305,472.44 2177.295,472.43 2177.285,472.42 L2177.285,472.42 C2176.985,471.88 2177.095,471.2 2177.635,470.86 C2177.885,470.7 2178.205,470.66 2178.495,470.72 C2179.085,470.75 2179.575,471.24 2179.575,471.83 L2179.575,471.9 L2179.575,471.9 C2179.575,471.9 2179.595,471.93 2179.595,471.94 C2179.595,471.94 2179.595,471.94 2179.595,471.94 C2179.595,471.95 2179.605,471.96 2179.615,471.98 L2179.615,471.98 C2179.615,471.98 2179.625,471.99 2179.635,472 L2179.635,472 C2179.635,472 2179.635,472.02 2179.645,472.02 C2179.645,472.02 2179.645,472.02 2179.645,472.02 C2179.645,472.02 2179.645,472.02 2179.645,472.02 C2179.645,472.02 2179.655,472.04 2179.665,472.05 C2179.675,472.07 2179.685,472.09 2179.705,472.11 C2179.735,472.17 2179.765,472.22 2179.795,472.27 L2179.855,472.38 C2179.855,472.38 2179.905,472.48 2179.935,472.53 L2179.935,472.53 C2179.935,472.53 2179.965,472.59 2179.975,472.61 C2179.975,472.62 2179.995,472.64 2179.995,472.65 C2180.005,472.67 2180.025,472.69 2180.025,472.7 L2180.045,472.73 C2180.085,472.81 2180.125,472.88 2180.175,472.96 C2180.215,473.03 2180.255,473.1 2180.285,473.15 C2180.305,473.19 2180.325,473.22 2180.325,473.22 L2180.375,473.3 C2180.375,473.3 2180.395,473.33 2180.395,473.33 C2180.395,473.33 2180.405,473.35 2180.415,473.36 C2180.415,473.36 2180.415,473.36 2180.415,473.36 L2180.415,473.36 C2180.455,473.44 2180.495,473.52 2180.525,473.57 C2180.535,473.59 2180.545,473.61 2180.555,473.62 C2180.555,473.62 2180.555,473.62 2180.555,473.63 C2180.555,473.63 2180.555,473.65 2180.565,473.65 C2180.565,473.67 2180.585,473.68 2180.595,473.71 C2180.665,473.84 2180.735,473.97 2180.775,474.04 C2180.815,474.12 2180.855,474.19 2180.865,474.21 L2180.915,474.31 C2180.915,474.31 2180.965,474.4 2180.975,474.42 L2180.995,474.46 C2181.035,474.53 2181.075,474.6 2181.085,474.62 C2181.115,474.67 2181.135,474.71 2181.155,474.74 C2181.175,474.77 2181.195,474.8 2181.205,474.83 L2181.255,474.91 C2181.255,474.91 2181.265,474.93 2181.275,474.94 L2181.275,474.94 C2181.275,474.94 2181.305,475 2181.315,475.02 Q2181.315,475.02 2181.315,475.02 C2181.315,475.02 2181.315,475.02 2181.315,475.02 C2181.315,475.02 2181.315,475.03 2181.315,475.03 C2181.335,475.07 2181.355,475.11 2181.375,475.13 C2181.415,475.2 2181.445,475.26 2181.465,475.29 C2181.475,475.31 2181.495,475.34 2181.505,475.36 L2181.525,475.39 C2181.555,475.44 2181.585,475.49 2181.595,475.53 C2181.605,475.55 2181.615,475.57 2181.625,475.59 C2181.625,475.59 2181.625,475.59 2181.625,475.6 C2181.625,475.6 2181.635,475.62 2181.645,475.63 C2181.645,475.63 2181.645,475.64 2181.645,475.65 L2181.645,475.65 C2181.645,475.65 2181.645,475.66 2181.645,475.67 C2181.645,475.68 2181.645,475.68 2181.645,475.68 C2181.645,475.68 2181.645,475.68 2181.645,475.68 L2181.645,475.68 C2181.755,475.88 2181.815,476.08 2181.815,476.3 C2181.815,476.37 2181.815,476.45 2181.795,476.52 C2181.795,476.58 2181.805,476.64 2181.805,476.7 C2181.805,478.45 2181.775,480.2 2181.755,481.95 C2181.755,482.56 2181.745,483.18 2181.735,483.79 C2181.885,483.79 2182.025,483.79 2182.175,483.77 C2182.175,480.47 2182.205,477.17 2182.205,473.87 C2182.205,473.58 2182.205,473.29 2182.205,473 C2182.205,472.79 2182.205,472.59 2182.205,472.39 C2182.205,472.1 2182.305,471.83 2182.475,471.62 C2182.925,471.63 2183.365,471.64 2183.815,471.65 L2183.815,471.65 C2183.955,471.65 2184.095,471.65 2184.235,471.66 C2184.665,471.67 2185.095,471.68 2185.525,471.69 C2185.585,471.76 2185.635,471.83 2185.695,471.91 C2185.755,471.98 2185.805,472.05 2185.855,472.13 C2186.305,472.74 2186.715,473.38 2187.165,473.99 C2187.475,474.41 2187.805,474.82 2188.175,475.19 C2188.935,476.02 2189.935,476.61 2190.965,477.03 C2190.985,477.03 2191.015,477.04 2191.035,477.05 C2191.435,476.87 2191.805,476.7 2192.045,476.51 C2192.835,476.06 2193.145,474.9 2194.205,474.91 C2195.685,474.87 2197.155,474.84 2198.635,474.89 z" fill="#D79F6A"/>
    <path d="M1194.575,485.52 C1194.575,485.52 1194.585,485.49 1194.595,485.48 C1194.595,485.5 1194.575,485.51 1194.565,485.53 C1194.565,485.53 1194.565,485.53 1194.575,485.52 z M1203.495,511.78 C1203.435,507.34 1203.365,502.9 1203.305,498.46 C1200.485,501.34 1197.195,503.73 1193.945,506.13 C1194.965,508.24 1195.955,510.36 1196.935,512.5 C1197.365,511.01 1197.785,509.72 1199.865,510.74 C1201.065,511.13 1202.335,511.28 1203.495,511.78 z M1218.975,557.75 C1218.825,559 1219.775,561.54 1217.915,561.73 L1217.905,561.73 C1217.905,562.48 1217.905,563.22 1217.905,563.97 C1217.885,568.83 1217.875,573.69 1217.865,578.55 C1217.855,583.49 1217.835,588.43 1217.825,593.37 C1217.825,594.65 1217.815,595.93 1217.815,597.22 C1218.025,597.25 1210.435,606.64 1207.775,608.79 C1200.685,614.58 1194.005,620.83 1187.125,626.86 C1184.065,629.23 1177.395,636.11 1173.625,635.59 C1172.505,635.15 1171.525,634.44 1170.555,633.73 C1169.905,634.15 1168.815,633.89 1168.795,632.82 C1168.795,632.5 1168.795,632.19 1168.795,631.87 C1168.775,631.75 1168.775,631.62 1168.795,631.51 C1168.815,625.7 1168.545,619.89 1168.605,614.08 C1168.785,605.26 1168.845,596.43 1168.275,587.62 C1167.775,579.59 1167.405,571.57 1167.035,563.54 C1166.955,563.07 1167.095,562.47 1166.665,562.15 C1165.745,561.47 1164.765,560.74 1164.485,559.56 C1163.985,557.46 1164.315,554.94 1166.015,553.46 C1167.715,552.1 1169.965,551.78 1171.855,550.73 C1172.735,550.47 1173.735,549.32 1174.665,549.22 C1174.585,545.74 1174.385,542.26 1174.545,538.79 C1174.605,538.27 1174.845,537.94 1175.145,537.78 C1175.295,537.52 1175.565,537.32 1175.945,537.27 C1178.305,537.25 1180.505,536.14 1182.855,535.9 C1183.595,532.75 1183.815,529.49 1183.765,526.26 C1183.535,524.85 1184.245,523.6 1185.055,522.5 C1185.565,521.72 1186.175,520.94 1187.075,520.64 C1187.505,520.46 1187.995,520.48 1188.375,520.21 C1189.485,519.26 1188.965,517.62 1189.335,516.39 C1190.025,514.84 1191.845,514.15 1193.425,513.9 C1193.675,513.84 1193.955,513.83 1194.245,513.83 C1193.585,512.78 1192.895,511.76 1192.115,510.77 C1191.585,510.07 1190.975,509.41 1190.425,508.72 C1186.845,511.2 1182.795,513.46 1178.435,513.53 C1177.865,513.65 1177.395,513.64 1177.075,513.48 C1176.685,513.44 1176.285,513.39 1175.885,513.32 C1174.485,512.97 1167.995,511.25 1169.545,509.21 C1170.365,508.21 1171.275,509.18 1172.075,509.59 C1174.065,510.58 1176.105,511.23 1178.215,511.26 C1180.655,510.51 1182.755,508.95 1184.945,507.68 C1186.205,506.94 1187.435,506.17 1188.655,505.37 C1188.105,503.71 1187.635,502.03 1187.165,500.34 C1186.945,500.73 1186.725,501.11 1186.605,501.48 C1186.155,503 1181.625,510.35 1179.895,507.79 C1179.325,506.81 1180.355,506.21 1181.025,505.7 C1183.215,503.79 1184.305,501.09 1185.515,498.53 C1185.645,498.06 1186.015,497.75 1186.425,497.65 C1186.295,497.18 1186.165,496.71 1186.025,496.24 C1186.015,496.2 1186.005,496.16 1185.995,496.12 C1185.435,496.5 1184.535,496.33 1184.285,495.61 C1183.635,495.84 1182.785,495.49 1182.755,494.57 C1182.775,492.14 1182.815,489.7 1182.985,487.27 C1183.035,486.44 1183.145,485.3 1184.215,485.3 C1184.595,485.3 1184.935,485.49 1185.135,485.78 C1185.525,485.44 1186.135,485.36 1186.575,485.72 C1187.125,486.15 1187.015,486.81 1186.995,487.42 C1186.945,488.91 1186.825,490.34 1186.715,491.76 C1186.955,492.34 1187.205,492.9 1187.485,493.46 C1187.665,493.63 1187.795,493.87 1187.815,494.12 C1188.075,494.63 1188.345,495.14 1188.615,495.65 C1189.065,494.28 1189.545,492.92 1190.025,491.56 C1190.995,489.09 1191.475,486.29 1192.915,484.06 C1193.825,483.33 1195.125,484.44 1194.625,485.43 C1193.285,488.52 1192.455,491.63 1191.305,494.69 C1190.875,495.93 1190.475,497.18 1190.095,498.43 C1190.165,498.56 1190.235,498.69 1190.295,498.83 C1190.985,500.15 1191.655,501.48 1192.325,502.82 C1195.075,500.79 1197.695,498.6 1200.165,496.23 C1201.165,495.35 1202.165,494.51 1203.135,493.64 C1203.175,493.61 1203.205,493.58 1203.245,493.55 C1203.235,492.95 1203.225,492.35 1203.215,491.75 C1203.185,489.85 1203.185,487.95 1203.135,486.05 C1203.115,485.43 1203.665,484.92 1204.265,484.92 C1204.425,484.92 1204.575,484.96 1204.715,485.02 C1204.715,484.54 1204.725,484.05 1204.735,483.57 C1204.745,482.55 1204.765,481.52 1204.775,480.5 C1204.775,479.88 1205.325,479.39 1205.925,479.4 C1206.545,479.42 1207.035,479.94 1207.025,480.55 C1206.985,484.9 1206.925,489.24 1206.875,493.59 C1206.875,494.3 1206.855,495.02 1206.845,495.73 C1207.385,495.81 1207.815,496.28 1207.815,496.84 C1207.815,501.41 1207.865,505.98 1207.895,510.55 C1207.895,511.95 1207.915,513.35 1207.925,514.75 C1209.185,515.08 1210.535,515.23 1211.675,515.82 C1211.675,515.2 1211.685,514.59 1211.685,513.98 C1211.075,514.32 1210.145,514.1 1210.005,513.17 C1209.875,511.41 1209.825,509.64 1209.985,507.88 C1210.065,506.99 1211.075,506.59 1211.735,506.97 C1211.755,503.97 1211.785,500.97 1211.805,497.98 L1211.805,497.83 C1211.815,497.22 1212.345,496.71 1212.955,496.73 C1213.565,496.74 1214.065,497.27 1214.055,497.88 C1214.005,500.12 1214.015,502.36 1214.005,504.6 C1213.985,506.95 1213.965,509.3 1213.955,511.65 C1213.945,513.21 1213.935,514.78 1213.925,516.34 C1214.885,516.48 1215.825,516.68 1216.585,517.38 C1217.005,517.81 1217.455,518.64 1217.565,519.39 C1217.845,519.6 1218.025,519.94 1218.025,520.32 C1218.025,525.06 1217.995,529.8 1217.985,534.55 C1217.985,536.11 1217.985,537.67 1217.975,539.24 C1218.405,539.4 1218.725,539.81 1218.725,540.29 C1218.965,546.1 1218.645,551.93 1218.975,557.75 z" fill="#D2854A"/>
    <path d="M1550.865,571.65 C1550.865,571.5 1550.885,571.35 1550.915,571.2 C1550.165,570.32 1549.425,569.43 1548.685,568.54 C1548.685,569.92 1548.685,571.3 1548.685,572.68 C1548.815,572.82 1548.945,572.96 1549.075,573.1 C1549.415,573.46 1549.745,573.82 1550.085,574.18 C1550.325,573.28 1550.795,572.31 1550.845,571.64 z M1554.275,575.73 C1554.285,575.56 1554.305,575.38 1554.335,575.2 C1553.805,574.59 1553.275,573.98 1552.755,573.37 C1552.525,574.06 1552.275,574.72 1552.225,575.18 C1552.245,575.53 1552.105,575.86 1551.885,576.1 C1552.585,576.84 1553.285,577.59 1553.985,578.33 C1553.995,578.34 1554.015,578.36 1554.025,578.37 C1554.085,577.5 1554.195,576.64 1554.285,575.73 z M1560.525,583.85 C1560.615,583.45 1560.765,583.02 1560.985,582.68 C1559.435,580.96 1557.895,579.24 1556.365,577.5 C1556.255,578.57 1556.175,579.65 1556.225,580.72 C1557.535,582.12 1558.845,583.52 1560.165,584.92 C1560.295,584.54 1560.445,584.16 1560.535,583.85 z M1565.225,587.36 C1564.365,586.42 1563.515,585.48 1562.655,584.53 C1562.595,584.68 1562.555,584.82 1562.535,584.95 C1562.355,585.49 1562.215,586.26 1561.835,586.72 C1562.445,587.37 1563.055,588.02 1563.665,588.67 C1564.025,589.06 1564.395,589.44 1564.755,589.83 C1564.835,589.49 1564.915,589.15 1564.955,588.87 C1565.055,588.43 1565.085,587.86 1565.225,587.37 z M1591.905,612.05 C1592.585,612.73 1591.965,614.03 1591.005,613.93 C1590.695,613.91 1590.445,613.77 1590.225,613.56 C1584.845,608.37 1579.655,603 1574.555,597.54 C1574.075,598.17 1573.005,598.26 1572.585,597.19 C1572.255,596.54 1572.415,595.96 1572.775,595.62 C1572.065,594.86 1571.365,594.1 1570.665,593.33 C1569.485,592.04 1568.315,590.75 1567.135,589.46 C1566.995,590.17 1566.955,591.18 1566.435,591.63 C1566.635,591.85 1566.845,592.07 1567.045,592.28 L1567.045,592.28 C1567.125,592.34 1567.195,592.42 1567.255,592.5 C1569.225,594.6 1571.195,596.7 1573.165,598.81 C1576.255,602.11 1579.355,605.41 1582.445,608.71 C1583.035,609.34 1583.625,609.97 1584.205,610.59 C1584.625,611.04 1584.575,611.78 1584.115,612.18 C1583.905,612.37 1583.635,612.46 1583.365,612.46 C1583.055,612.46 1582.745,612.33 1582.515,612.09 C1579.505,608.88 1576.495,605.66 1573.485,602.45 C1571.625,600.47 1569.775,598.49 1567.915,596.5 C1568.155,599.23 1568.145,601.99 1568.275,604.73 C1568.265,606.2 1566.085,606.23 1566.015,604.75 C1565.835,601.03 1565.915,597.31 1565.265,593.69 C1565.215,593.63 1565.155,593.58 1565.105,593.52 C1565.125,593.78 1565.145,594.05 1565.165,594.32 C1565.245,595.29 1565.315,596.26 1565.445,597.23 C1565.535,597.84 1565.095,598.42 1564.485,598.5 C1563.885,598.59 1563.295,598.15 1563.205,597.54 C1562.995,595.8 1562.855,594.05 1562.765,592.3 C1562.795,591.92 1562.745,591.46 1562.765,591.02 C1561.515,589.68 1560.255,588.35 1559.005,587.01 C1559.155,588.55 1559.295,590.13 1559.405,591.54 C1559.565,593.75 1559.725,595.71 1559.915,597.88 C1559.965,598.49 1559.595,599.06 1558.955,599.15 C1558.375,599.23 1557.735,598.81 1557.675,598.19 C1557.355,594.59 1557.155,591.27 1556.815,587.76 C1556.685,586.64 1556.635,585.44 1556.495,584.33 C1555.775,583.56 1555.045,582.79 1554.325,582.02 C1552.445,580.01 1550.565,578 1548.675,576 C1548.675,580.52 1548.675,585.04 1548.685,589.56 C1548.685,594.35 1548.685,599.13 1548.695,603.91 C1548.695,606.4 1548.695,608.89 1548.695,611.38 C1548.975,611.77 1548.945,612.31 1548.695,612.69 C1548.695,614.61 1548.695,616.54 1548.695,618.46 C1548.695,619.85 1548.695,621.24 1548.695,622.62 C1548.695,623.23 1548.185,623.75 1547.565,623.75 C1546.945,623.75 1546.435,623.24 1546.435,622.62 C1546.435,619.34 1546.435,616.06 1546.435,612.79 C1542.005,611.36 1537.465,610.12 1533.275,608.08 C1533.125,608.06 1532.965,608.01 1532.805,607.92 C1532.725,607.87 1532.655,607.82 1532.575,607.77 C1532.575,610.21 1532.575,612.64 1532.575,615.08 L1532.575,616.25 C1532.575,616.86 1532.045,617.35 1531.445,617.35 L1531.425,617.35 C1530.805,617.34 1530.315,616.81 1530.315,616.2 C1530.315,612.95 1530.315,609.7 1530.315,606.45 C1530.225,606.39 1530.155,606.32 1530.095,606.24 C1529.695,606.01 1529.285,605.78 1528.875,605.57 C1528.425,605.37 1528.135,604.9 1528.205,604.39 C1528.415,603.28 1529.515,603.25 1530.315,603.76 L1530.315,602.37 C1530.315,597.4 1530.315,592.43 1530.325,587.47 C1530.325,582.68 1530.325,577.89 1530.335,573.1 C1530.335,569.84 1530.335,566.59 1530.345,563.33 L1530.345,560.25 C1530.735,559.92 1531.075,559.61 1531.255,559.33 C1532.335,558.36 1532.105,556.91 1532.245,555.61 C1532.355,554.4 1532.465,553.2 1532.545,551.99 C1532.555,551.85 1532.565,551.71 1532.575,551.56 C1532.585,551.37 1532.595,551.18 1532.605,550.98 C1532.665,549.82 1532.675,548.67 1532.605,547.5 C1532.505,546.05 1533.295,545.02 1534.635,544.56 C1535.195,543.64 1534.815,542.34 1534.935,541.29 C1534.945,540.1 1534.935,538.9 1534.925,537.71 C1534.915,536.96 1534.905,536.21 1534.895,535.46 L1537.155,535.46 C1538.255,535.46 1539.355,535.46 1540.445,535.46 C1542.425,535.46 1544.395,535.46 1546.375,535.46 C1547.125,535.46 1547.875,535.46 1548.625,535.46 C1548.625,536.21 1548.625,536.96 1548.625,537.71 C1548.625,540.33 1548.625,542.95 1548.625,545.56 C1548.625,550.43 1548.635,555.3 1548.635,560.17 C1548.635,561.77 1548.635,563.36 1548.635,564.96 C1551.695,568.86 1554.965,572.59 1558.275,576.28 C1567.755,586.93 1577.295,597.56 1587.385,607.64 C1588.875,609.11 1590.355,610.58 1591.855,612.04 z" fill="#DDB991"/>
    <path d="M1075.575,551.5 C1078.225,551.91 1077.145,556.3 1077.235,558.22 C1076.855,565.92 1078.235,573.63 1076.865,581.23 C1075.805,584.74 1071.625,586.04 1070.255,589.29 C1069.295,593.57 1069.755,597.98 1070.055,602.31 C1070.185,605.24 1069.905,608.19 1070.145,611.12 C1070.465,612.57 1068.325,613.16 1067.945,611.65 C1067.885,611.13 1067.855,610.61 1067.825,610.09 C1067.705,610.08 1067.595,610.05 1067.485,610.02 C1066.645,609.89 1065.895,609.39 1065.035,609.41 C1064.425,609.47 1063.805,609.55 1063.195,609.64 C1063.075,610.12 1062.665,610.5 1062.135,610.52 L1062.105,610.52 C1061.705,610.52 1061.325,610.3 1061.125,609.96 C1059.655,610.17 1058.185,610.29 1056.705,610.05 C1050.455,609.13 1044.445,607.11 1038.945,604 C1034.055,601.37 1027.015,598.72 1023.785,593.84 C1023.235,593.82 1022.695,593.36 1022.695,592.79 C1022.695,592.44 1022.695,592.08 1022.695,591.72 C1022.645,591.59 1022.595,591.46 1022.555,591.33 C1022.525,591.06 1022.585,590.82 1022.695,590.64 C1022.695,586.67 1022.675,582.71 1022.665,578.75 C1022.655,574.01 1022.645,569.26 1022.635,564.52 C1022.625,559.85 1022.615,555.18 1022.605,550.51 C1022.595,545.94 1022.585,541.37 1022.575,536.79 C1022.575,534.98 1022.575,533.16 1022.565,531.35 C1022.565,531.21 1022.585,531.07 1022.635,530.94 C1022.635,530.92 1022.635,530.89 1022.625,530.87 C1022.635,529.88 1023.705,529.35 1024.215,528.59 C1024.505,528.27 1024.845,527.83 1025.225,527.54 C1025.385,527.15 1025.745,526.84 1026.185,526.84 C1029.095,526.81 1031.995,526.78 1034.905,526.76 C1034.815,523.85 1034.715,520.94 1034.625,518.03 C1034.545,515.59 1034.475,513.15 1034.385,510.71 C1034.365,510.1 1034.825,509.56 1035.445,509.52 C1035.575,509.52 1035.705,509.52 1035.835,509.57 C1036.005,509.44 1036.135,509.26 1036.225,509.07 C1036.195,508.86 1036.135,508.65 1036.025,508.48 C1035.985,508.4 1035.935,508.33 1035.875,508.26 C1035.255,508.02 1034.605,507.74 1034.635,507.02 C1034.585,506.85 1034.555,506.66 1034.565,506.45 C1034.515,505.48 1034.705,504.51 1034.735,503.54 C1034.735,502.78 1035.155,501.93 1036.005,501.91 C1037.225,501.89 1038.485,501.74 1039.605,502.32 C1040.555,502.68 1041.675,503.27 1041.915,504.34 C1041.945,505.3 1042.095,506.09 1041.965,507 C1041.875,507.28 1041.685,507.49 1041.445,507.61 C1041.445,507.61 1041.445,507.61 1041.445,507.61 C1041.405,507.64 1041.375,507.67 1041.335,507.7 C1041.065,507.87 1040.815,507.94 1040.625,508.2 C1040.465,508.42 1040.135,508.84 1040.395,509.09 C1040.505,509.19 1040.635,509.26 1040.755,509.34 C1041.225,509.45 1041.595,509.87 1041.625,510.37 C1041.845,514.5 1042.105,518.63 1042.355,522.76 C1042.435,524.08 1042.505,525.39 1042.585,526.71 C1045.485,526.68 1048.395,526.66 1051.295,526.63 C1051.495,526.63 1051.685,526.66 1051.855,526.74 L1051.875,526.74 C1053.595,527.35 1055.285,528.14 1056.985,528.86 C1058.645,528.86 1060.295,528.7 1061.955,528.68 C1062.345,528.72 1062.675,528.93 1062.855,529.25 L1062.855,529.25 C1063.065,529.45 1063.195,529.72 1063.195,530.02 C1063.195,534.08 1063.195,538.15 1063.195,542.21 C1063.195,545.05 1063.195,547.89 1063.195,550.74 C1063.825,558.09 1064.235,565.47 1064.875,572.82 C1065.005,574.43 1065.255,575.88 1065.595,577.34 C1065.735,577.37 1065.885,577.41 1066.025,577.44 C1066.955,577.5 1067.865,577.34 1068.795,577.26 C1068.775,574 1068.755,570.74 1068.735,567.48 C1068.705,562.87 1068.675,558.26 1068.645,553.65 C1068.635,552.2 1068.625,550.75 1068.615,549.31 L1068.615,549.29 C1068.325,548.62 1068.705,547.65 1069.695,547.67 C1070.605,547.71 1071.215,547.97 1072.065,547.8 C1073.585,547.39 1074.455,547.85 1074.805,549.42 C1075.105,550.12 1075.075,550.99 1075.585,551.55 z" fill="#D79F6A"/>
    <path d="M1717.965,608.38 C1716.515,608.7 1715.065,609.02 1713.625,609.35 C1713.435,609.87 1712.825,610.16 1712.185,610.19 C1710.865,610.42 1709.545,610.72 1708.235,611.04 C1699.765,613.36 1691.085,614.93 1682.765,617.8 C1678.325,619.15 1673.915,620.63 1669.445,621.89 C1663.435,623.5 1657.495,624.76 1651.535,626.47 C1644.315,628.57 1637.395,631.59 1630.175,633.69 C1625.715,634.94 1621.215,636.1 1616.795,637.49 C1615.045,638.03 1613.315,638.63 1611.655,639.41 C1610.075,640.26 1608.235,640.69 1606.485,640.12 C1600.625,638.07 1594.745,635.87 1589.325,632.81 C1583.585,629.03 1577.295,626.59 1571.015,623.99 C1568.125,622.7 1565.285,621.29 1562.465,619.84 C1560.845,619 1559.225,618.15 1557.635,617.26 C1556.765,616.83 1555.675,616.2 1555.485,615.24 C1554.995,615.32 1554.515,615.4 1554.025,615.47 C1553.695,615.23 1553.325,615.04 1552.925,614.89 C1552.255,614.65 1551.615,614.5 1550.905,614.38 C1550.625,614.33 1550.355,614.28 1550.075,614.24 L1550.075,614.24 C1550.075,614.24 1550.075,614.24 1550.065,614.24 C1549.735,613.98 1549.395,613.73 1549.045,613.5 C1552.945,612.87 1556.835,612.16 1560.705,611.35 C1568.885,609.44 1576.815,606.63 1584.825,604.09 C1592.855,601.63 1601.025,599.62 1609.295,598.1 C1622.675,595.5 1636.275,594.33 1649.845,593.34 C1656.255,592.96 1662.685,591.98 1669.095,592.72 C1672.965,592.96 1676.695,594.16 1680.365,595.34 C1685.575,597.05 1690.775,598.76 1695.935,600.6 C1703.225,603.35 1710.575,605.89 1717.955,608.38 z" fill="#D79F6A"/>
    <path d="M1154.075,626.81 C1141.305,624.33 1128.585,621.54 1116.015,618.18 C1103.365,615.15 1090.545,612.79 1078.045,609.15 C1067.625,606.25 1057.165,603 1047.045,599.04 C1040.365,596.44 1033.755,593.67 1027.025,591.22 C1011.505,585.6 995.875,580.32 980.025,575.69 C971.225,573.07 962.495,570.14 953.505,568.19 C947.375,566.88 941.175,566 934.975,565.14 C928.705,564.07 922.365,563.89 916.015,564.01 C909.525,564.1 903.035,563.99 896.545,564.19 C886.835,564.7 877.185,565.93 867.505,566.67 C857.605,567.48 847.665,567.58 837.785,568.51 C831.035,569.21 824.305,570.17 817.575,570.99 C800.595,572.9 783.565,574.81 766.765,578.05 C753.365,580.77 739.945,583.4 726.425,585.43 C716.345,586.8 706.255,588.12 696.275,590.09 C683.335,592.82 670.355,595.38 657.465,598.3 C644.455,601.5 631.495,604.88 618.475,608.05 C605.095,611.47 591.625,614.63 578.355,618.48 C552.195,624.72 506.795,637.9 481.945,644.32 C452.075,652.04 352.155,595.44 301.685,585.15 C251.215,574.86 256.595,614.13 -0.265,640.03 L-29.325,640.03 L-29.325,1391.69 L0.585,1391.69 L0.585,862.11 L1057.635,799.84 L1057.635,712.6 C1068.835,702.94 1080.605,693.94 1092.295,684.89 C1107.605,673.57 1124.375,663.98 1140.295,653.5 C1147.155,649.34 1153.785,644.84 1160.245,640.08 C1163.485,637.82 1166.665,635.48 1169.765,633.05 C1169.965,632.89 1170.215,632.72 1170.465,632.54 C1170.825,632.59 1171.195,632.63 1171.555,632.68 C1171.605,632.67 1171.645,632.65 1171.695,632.64 C1172.645,631.88 1173.625,631.16 1174.655,630.51 C1167.765,629.45 1160.895,628.24 1154.075,626.81 z" fill="#CC6935"/>
    <path d="M1653.825,615.59 C1655.875,616.71 1656.395,617.65 1656.245,620.26 C1656.185,623.83 1655.885,627.38 1655.705,630.95 C1655.675,631.54 1655.635,632.12 1655.605,632.7 C1655.785,633.06 1655.755,633.48 1655.545,633.8 L1655.545,633.8 C1655.515,634.37 1655.495,634.93 1655.485,635.49 C1655.425,635.9 1655.615,636.27 1655.535,636.68 C1655.405,637.28 1654.775,637.66 1654.195,637.54 C1653.415,637.36 1653.205,636.51 1653.195,635.53 C1644.645,641.3 1635.675,646.5 1626.255,650.7 C1621.945,652.45 1617.575,655.06 1612.805,655.01 C1607.625,653.74 1602.675,651.58 1597.695,649.69 C1593.445,647.98 1589.215,646.19 1584.935,644.53 C1584.865,645.07 1584.445,645.51 1583.875,645.54 L1583.815,645.54 C1583.235,645.54 1582.695,645.07 1582.685,644.47 C1582.685,644.2 1582.675,643.94 1582.665,643.67 C1582.025,643.42 1581.405,643.14 1580.845,642.74 C1579.905,642.2 1580.195,640.65 1581.325,640.6 C1581.625,640.58 1581.925,640.7 1582.145,640.9 C1582.295,640.98 1582.445,641.06 1582.595,641.13 C1582.505,637.47 1582.415,633.81 1582.315,630.15 C1582.185,625.24 1582.065,620.33 1581.935,615.41 C1581.815,610.56 1581.695,605.72 1581.565,600.88 C1581.445,596.12 1581.325,591.37 1581.205,586.61 C1581.085,581.99 1580.965,577.37 1580.855,572.74 C1580.855,572.58 1580.845,572.42 1580.845,572.27 C1580.845,572.04 1580.905,571.83 1581.015,571.64 C1581.015,571.64 1581.015,571.63 1581.015,571.62 C1581.575,570.36 1583.805,568.99 1584.345,568.17 C1584.655,567.86 1584.955,567.53 1585.255,567.2 C1584.195,563.6 1583.175,559.93 1582.415,556.26 C1582.375,556.24 1582.345,556.22 1582.305,556.2 C1581.265,555.36 1579.365,554.99 1579.625,553.3 C1579.535,549.68 1579.815,546.05 1579.695,542.44 C1579.265,539.78 1581.155,537.93 1582.625,536 C1583.995,533.97 1585.575,531.9 1588.065,531.27 C1588.945,531.01 1589.945,530.52 1590.825,530.99 C1592.375,531.8 1593.735,532.94 1595.035,534.11 C1595.585,534.18 1596.085,534.64 1596.055,535.31 C1596.045,539.83 1595.755,544.36 1596.115,548.87 L1596.115,548.87 C1596.115,548.87 1596.115,548.84 1596.115,548.82 C1596.115,548.84 1596.115,548.85 1596.115,548.87 C1597.375,548.92 1598.625,549.12 1599.865,549.24 C1599.885,548.84 1599.905,548.45 1599.855,548.13 C1597.445,547.15 1597.255,546.27 1597.145,543.82 C1596.965,540.96 1596.965,538.1 1596.895,535.24 C1596.815,534.64 1597.115,534.24 1597.525,534.06 C1598.115,533.61 1599.165,533.79 1599.335,534.69 C1601.085,534.64 1602.645,533.93 1604.205,533.22 L1604.205,533.2 C1604.205,533.2 1604.205,533.14 1604.205,533.11 L1604.205,533.06 C1604.205,532.93 1604.205,532.79 1604.205,532.67 C1604.205,532.62 1604.205,532.58 1604.205,532.55 C1604.205,532.41 1604.205,532.27 1604.205,532.15 C1604.205,532.13 1604.205,532.11 1604.205,532.09 L1604.205,531.96 C1604.205,531.96 1604.205,531.87 1604.205,531.86 L1604.205,531.78 C1604.205,531.73 1604.205,531.68 1604.205,531.66 L1604.205,531.62 C1604.205,531.62 1604.205,531.54 1604.205,531.52 C1604.205,531.47 1604.205,531.41 1604.205,531.36 C1604.205,531.31 1604.205,531.25 1604.205,531.25 L1604.205,531.2 C1604.205,531.2 1604.205,531.2 1604.205,531.2 L1604.205,531.2 C1604.205,531.1 1604.205,531 1604.205,530.91 L1604.205,530.75 C1604.205,530.54 1604.205,530.33 1604.215,530.13 L1604.215,530.1 C1604.215,530.1 1604.215,530.02 1604.215,530 C1604.215,529.86 1604.215,529.72 1604.215,529.64 C1604.215,529.17 1604.225,528.71 1604.235,528.39 C1604.235,528.15 1604.235,527.91 1604.235,527.71 C1604.235,527.67 1604.235,527.64 1604.235,527.6 L1604.235,527.49 C1604.235,527.29 1604.235,527.09 1604.235,527.04 C1604.235,526.97 1604.235,526.9 1604.235,526.89 C1604.235,526.85 1604.235,526.81 1604.235,526.77 L1604.235,526.68 C1604.235,526.47 1604.235,526.25 1604.245,526.09 L1604.245,526.05 C1604.245,525.98 1604.245,525.91 1604.245,525.91 C1604.245,525.69 1604.245,525.47 1604.245,525.31 C1604.245,525.15 1604.245,524.98 1604.245,524.85 C1604.245,524.83 1604.245,524.81 1604.245,524.79 L1604.245,524.73 C1604.245,524.46 1604.245,524.18 1604.255,523.93 L1604.255,523.73 C1604.255,523.73 1604.255,523.66 1604.255,523.63 L1604.255,523.6 C1604.255,523.44 1604.255,523.29 1604.255,523.17 C1604.255,522.83 1604.265,522.5 1604.275,522.17 C1604.275,522.03 1604.275,521.89 1604.275,521.82 L1604.275,521.75 C1604.275,521.57 1604.275,521.39 1604.275,521.24 C1604.275,520.96 1604.275,520.69 1604.285,520.46 C1604.285,520.29 1604.285,520.12 1604.285,519.97 C1604.285,519.95 1604.285,519.93 1604.285,519.91 L1604.285,519.85 C1604.285,519.46 1604.285,519.07 1604.295,518.73 C1604.295,518.55 1604.295,518.38 1604.295,518.23 C1604.295,518.21 1604.295,518.19 1604.295,518.17 L1604.295,518.1 C1604.295,517.96 1604.295,517.83 1604.295,517.72 C1604.295,517.5 1604.295,517.29 1604.305,517.09 C1604.305,516.96 1604.305,516.84 1604.305,516.78 L1604.305,516.67 C1604.305,516.67 1604.305,516.59 1604.305,516.55 L1604.305,516.55 C1604.305,516.4 1604.305,516.27 1604.305,516.2 C1604.305,515.99 1604.305,515.78 1604.305,515.61 C1604.305,515.43 1604.305,515.25 1604.305,515.11 C1604.305,515.08 1604.305,515.06 1604.305,515.04 L1604.305,514.98 C1604.305,514.85 1604.305,514.72 1604.305,514.62 C1604.305,514.58 1604.305,514.54 1604.305,514.51 L1604.305,514.48 C1604.305,514.48 1604.305,514.39 1604.305,514.36 L1604.305,514.28 C1604.305,514.23 1604.305,514.17 1604.305,514.14 L1604.305,514.06 C1604.305,513.99 1604.305,513.92 1604.305,513.87 C1604.305,513.84 1604.305,513.82 1604.305,513.82 L1604.305,513.66 C1604.305,513.66 1604.305,513.63 1604.305,513.61 L1604.305,513.4 C1604.305,513.31 1604.305,513.23 1604.305,513.22 C1604.305,512.99 1604.305,512.76 1604.315,512.54 C1604.255,510.85 1604.475,509.24 1605.805,508.04 C1606.305,507.6 1607.605,507.58 1608.725,507.88 C1608.685,506.72 1608.635,505.55 1608.755,504.4 C1608.795,504.07 1608.875,503.75 1609.095,503.49 C1609.615,502.86 1610.485,503.01 1611.165,503.25 C1613.175,503.92 1612.075,508.37 1612.385,510.07 C1612.915,510.21 1613.225,510.52 1613.395,510.91 C1613.545,511.12 1613.625,511.38 1613.625,511.65 C1613.625,515.98 1613.595,520.31 1613.585,524.64 C1613.585,526.92 1613.575,529.21 1613.565,531.49 C1614.315,531.59 1615.055,531.7 1615.805,531.77 C1617.025,531.85 1618.685,532.21 1618.985,533.6 C1619.215,533.6 1619.445,533.58 1619.675,533.56 C1620.005,531.96 1621.885,532.31 1623.055,532.63 C1623.975,532.77 1624.565,533.52 1624.695,534.41 C1629.795,534.94 1635.025,535.81 1639.345,538.76 C1639.715,538.96 1640.095,539.28 1640.355,539.64 C1640.635,539.85 1640.825,540.19 1640.785,540.65 C1640.675,543.17 1640.465,545.87 1640.705,548.34 C1640.815,549.22 1640.085,549.69 1639.425,549.62 C1639.425,551.13 1639.365,552.8 1639.295,554.23 C1639.145,556.95 1639.075,559.7 1639.275,562.42 C1640.425,562.44 1641.575,562.47 1642.725,562.51 C1644.115,562.41 1645.515,563.04 1645.245,564.65 C1646.455,564.69 1647.705,564.92 1648.885,564.68 C1648.985,563.96 1649.255,563.17 1650.015,562.92 C1650.645,562.73 1651.345,562.87 1651.995,562.86 C1652.085,562.86 1652.175,562.86 1652.265,562.86 C1652.265,562.86 1652.285,562.86 1652.285,562.86 C1652.875,562.83 1653.465,563.32 1653.465,563.93 C1653.465,568.51 1653.495,573.08 1653.505,577.65 C1653.515,582.33 1653.535,587.02 1653.545,591.7 C1653.565,596.43 1653.575,601.16 1653.595,605.89 C1653.605,609.11 1653.615,612.32 1653.625,615.54 z" fill="#D2854A"/>
  </g>
</svg>
