<?xml version="1.0" encoding="UTF-8"?>
<svg id="Layer_31" data-name="Layer 31" xmlns="http://www.w3.org/2000/svg" xmlns:xlink="http://www.w3.org/1999/xlink" viewBox="0 0 2880 1310">
  <g id="Layer_3" transform="translate(0, 0)">
    <path d="M-29.315,926.777 L659.664,926.777 L979.502,881.086 L1205.399,816.581 L1357.215,773.09 L1474.04,983.219 L1474.04,1313.89 L-29.315,1313.89 L-29.315,926.777 z" fill="#3F0B0B"/>
    <path d="M1357.215,773.09 L1490.166,717.136 L1734.748,774.36 L2027.145,893.96 L2137.904,907.964 L2920.027,907.964 L2920.027,1313.89 L1474.04,1313.89 L1474.04,999.346 L1357.215,773.09 z" fill="#701E13"/>
    <path d="M1370.315,617.67 C1371.555,623.7 1370.855,630.46 1366.615,635.21 C1362.565,640.02 1357.935,644.43 1352.735,647.99 C1345.515,652.8 1337.665,656.57 1329.925,660.47 C1323.695,663.56 1317.645,666.98 1311.335,669.91 C1302.805,673.73 1293.905,676.68 1284.995,679.46 C1273.275,683.07 1261.665,687.02 1250.105,691.12 C1240.605,694.45 1231.005,697.74 1221.995,702.19 C1211.995,706.9 1197.925,716.98 1210.095,727.76 C1217.105,733.44 1226.185,735.81 1234.765,738.04 C1256.025,742.59 1277.295,747.12 1298.275,752.9 C1305.845,754.93 1313.625,757.32 1321.195,759.11 C1327.395,760.61 1333.585,761.97 1339.685,763.84 C1346.005,765.89 1352.275,768.08 1358.495,770.37 C1358.605,770.34 1358.705,770.31 1358.805,770.27 C1358.925,771.01 1359.085,771.75 1359.245,772.49 C1358.575,772.69 1357.895,772.9 1357.215,773.09 C1355.905,773.7 1354.555,774.22 1353.195,774.74 C1344.285,778 1335.615,781.9 1326.625,784.94 C1320.955,786.84 1315.025,788.55 1309.395,790.38 C1298.665,793.76 1288.195,797.89 1277.515,801.41 C1269.185,804.04 1260.785,806.55 1252.465,809.2 C1246.225,811.23 1240.085,813.53 1233.795,815.44 C1216.035,821 1198.155,826.18 1180.415,831.8 C1169.165,835.21 1158.375,839.33 1147.145,842.68 C1138.315,845.53 1129.235,847.74 1120.365,850.45 C1113.225,852.81 1106.275,855.75 1099.135,858.13 C1088.055,862 1076.525,864.32 1065.215,867.37 C1056.625,869.56 1048.005,871.62 1039.315,873.36 C1030.335,875 1021.265,876.11 1012.295,877.74 C993.425,881.21 975.335,887.86 956.965,893.24 C948.835,895.84 940.505,897.69 932.085,899.02 C913.345,902.59 894.435,905.01 875.615,908.01 C868.715,909.24 861.915,911.02 855.005,912.17 C854.645,912.23 854.295,912.07 854.055,911.81 C852.475,912.12 850.895,912.46 849.315,912.77 C818.665,919.39 788.215,927.01 757.225,931.93 C731.235,936.11 705.275,940.74 678.945,942.08 C668.785,942.81 658.585,943.38 648.505,944.95 C637.105,946.3 625.635,948.18 614.135,947.45 C612.745,947.35 611.365,947.23 609.975,947.23 C609.495,947.23 609.085,946.9 608.935,946.46 C608.715,946.53 608.495,946.61 608.285,946.71 C608.105,946.8 607.925,946.9 607.765,947.01 C606.965,947.11 606.175,947.24 605.385,947.41 C604.905,947.51 604.425,947.63 603.955,947.75 C605.615,947.1 607.265,946.46 608.925,945.82 C609.065,945.33 609.515,944.99 610.045,944.99 C610.325,945.02 610.615,945.04 610.895,945.06 C617.775,942.39 624.655,939.73 631.515,937.01 C650.765,929.3 670.585,923.15 689.825,915.41 C700.735,911.28 711.895,907.84 722.805,903.73 C735.765,898.7 748.595,893.31 761.735,888.72 C778.915,882.64 796.805,878.57 814.035,872.65 C830.485,866.71 846.345,859.24 861.735,850.94 C872.695,844.91 883.555,838.52 893.525,830.98 C894.225,830.49 894.925,830.01 895.635,829.54 C897.235,828.31 898.825,827.08 900.425,825.86 C904.615,822.65 908.795,819.42 912.995,816.21 C914.865,814.65 916.835,813.22 918.805,811.78 C920.405,810.57 922.015,809.36 923.625,808.16 C923.625,808.16 923.625,808.16 923.625,808.16 C925.605,806.61 927.635,805.11 929.705,803.67 C933.775,800.7 937.895,797.8 942.075,794.98 C964.035,780.03 987.345,766.98 1007.945,750.1 C1028.905,733.07 1048.545,714.46 1069.845,697.82 C1090.095,681.86 1111.655,667.62 1133.795,654.44 C1148.435,645.24 1162.865,635.35 1176.905,625.33 C1192.775,614.09 1207.535,601.37 1223.625,590.45 C1245.025,575.98 1268.665,565.33 1290.855,552.2 C1301.365,545.64 1312.675,540.56 1323.855,535.28 C1329.555,532.55 1335.175,529.56 1341.215,527.62 C1344.755,526.64 1348.455,526.35 1352.145,526.42 L1352.145,526.42 C1352.145,526.42 1352.235,526.42 1352.285,526.42 C1352.505,526.76 1352.865,527.08 1353.175,527.41 Q1353.175,527.41 1353.175,527.41 C1354.855,529.88 1354.105,531.71 1352.925,533.18 C1351.105,534.59 1348.395,535.64 1347.005,536.41 C1341.985,538.95 1337.085,541.74 1332.135,544.41 C1326.985,547.18 1321.705,549.74 1316.815,552.95 C1306.055,559.75 1295.505,567 1286.075,575.52 C1281.745,579.49 1276.795,583.2 1273.825,588.36 C1273.115,589.91 1271.755,591.63 1272.425,593.39 L1272.425,593.36 C1275.965,597.56 1295.935,596.7 1302.295,597.64 C1308.855,598.34 1315.375,599.4 1321.895,600.33 C1330.805,601.57 1339.825,602.14 1348.635,603.95 C1356.065,605.63 1368.615,609.19 1370.325,617.71 z" fill="#3F0B0B"/>
    <path d="M2022.955,840.63 C2022.315,840.51 2021.665,840.43 2021.025,840.34 C2020.035,840.2 2019.055,840.07 2018.065,839.94 C2016.135,839.69 2014.215,839.34 2012.275,839.16 C2010.325,838.98 2008.365,838.93 2006.415,838.9 C2005.525,838.89 2004.625,838.87 2003.735,838.86 C2003.295,838.85 2002.855,838.83 2002.405,838.82 C1998.885,837.96 1995.385,837.05 1991.915,836 C1991.495,835.87 1991.075,835.73 1990.665,835.59 C1989.785,835.56 1988.915,835.53 1988.035,835.49 C1960.445,833.88 1933.085,829.81 1905.755,825.87 C1891.285,823.91 1876.775,822.16 1862.415,819.5 C1847.025,816.46 1831.765,812.73 1816.465,809.29 C1780.625,801.12 1744.195,795.51 1708.695,785.88 C1691.325,780.99 1674.345,774.79 1656.905,770.16 C1645.235,767.12 1633.605,763.94 1621.985,760.73 C1607.255,756.87 1592.525,753.02 1578.115,748.08 C1561.985,742.68 1545.535,738.37 1528.905,734.86 C1525.945,734.19 1522.965,733.52 1519.975,732.93 C1519.915,733.55 1519.445,734 1518.815,734 C1518.245,733.92 1517.665,733.91 1517.085,733.86 C1507.305,732.92 1497.415,732.59 1487.605,732.93 C1479.305,733.28 1471.045,734.26 1462.795,735.13 C1458.095,735.97 1453.435,737.03 1448.765,738.01 C1448.145,738.14 1447.525,738.27 1446.905,738.41 C1429.745,743.5 1413.595,751.28 1397.125,758.18 C1385.885,762.9 1368.025,776.42 1361.705,774.36 C1355.605,772.49 1327.425,760.59 1321.215,759.09 C1313.635,757.29 1305.865,754.91 1298.295,752.88 C1277.325,747.11 1256.055,742.57 1234.785,738.02 C1226.205,735.8 1217.125,733.43 1210.115,727.74 C1197.945,716.96 1212.025,706.89 1222.015,702.17 C1231.025,697.72 1240.635,694.43 1250.125,691.1 C1261.685,687 1273.295,683.05 1285.015,679.44 C1293.925,676.65 1302.825,673.71 1311.355,669.89 C1317.655,666.96 1323.715,663.54 1329.945,660.45 C1337.685,656.56 1345.525,652.78 1352.755,647.97 C1357.955,644.41 1362.585,639.99 1366.635,635.19 C1370.875,630.45 1371.565,623.68 1370.335,617.65 C1368.625,609.13 1356.075,605.57 1348.645,603.89 C1339.825,602.09 1330.805,601.51 1321.905,600.27 C1315.375,599.34 1308.865,598.28 1302.305,597.58 C1295.945,596.64 1275.975,597.5 1272.435,593.3 L1272.435,593.33 C1271.765,591.57 1273.125,589.85 1273.835,588.3 C1276.795,583.14 1281.745,579.44 1286.085,575.46 C1295.515,566.93 1306.065,559.69 1316.825,552.89 C1321.715,549.68 1326.995,547.12 1332.145,544.35 C1337.105,541.68 1341.995,538.89 1347.015,536.35 C1348.395,535.58 1351.115,534.53 1352.935,533.12 C1354.115,531.65 1354.865,529.83 1353.185,527.35 Q1353.185,527.35 1353.185,527.35 C1352.875,527.03 1352.515,526.71 1352.295,526.36 C1352.295,526.36 1352.295,526.36 1352.295,526.36 C1352.545,526.37 1352.805,526.38 1353.065,526.39 C1353.085,526.39 1353.115,526.39 1353.135,526.39 C1353.195,526.39 1353.255,526.39 1353.325,526.39 C1353.495,526.39 1353.655,526.4 1353.825,526.41 L1353.835,526.41 C1353.835,526.41 1353.835,526.41 1353.825,526.41 C1353.825,526.41 1353.845,526.41 1353.855,526.41 L1353.885,526.41 C1353.975,526.41 1354.055,526.41 1354.145,526.42 C1354.165,526.42 1354.185,526.42 1354.215,526.42 L1354.215,526.42 C1354.395,526.43 1354.575,526.45 1354.745,526.46 C1354.845,526.46 1354.935,526.48 1355.025,526.48 C1355.135,526.48 1355.235,526.5 1355.335,526.51 C1355.355,526.51 1355.365,526.51 1355.385,526.51 C1355.415,526.51 1355.445,526.51 1355.475,526.51 C1355.475,526.51 1355.475,526.51 1355.475,526.51 C1356.085,526.56 1356.695,526.6 1357.315,526.66 C1357.765,526.71 1358.205,526.76 1358.655,526.82 C1358.845,526.85 1359.035,526.87 1359.225,526.9 C1365.285,528.02 1370.775,531.19 1376.385,533.64 C1389.675,539.95 1402.695,547.49 1416.225,553.21 C1427.765,558.15 1439.645,562.26 1451.285,566.97 C1468.345,573.32 1484.545,581.64 1500.925,589.53 C1519.155,598.16 1537.695,605.27 1556.025,613.56 C1569.885,620.19 1584.215,625.84 1597.915,632.79 C1624.735,648.08 1649.385,666.8 1675.615,683.04 C1688.195,690.61 1699.835,699.75 1712.945,706.38 C1729.205,714.56 1745.815,722.01 1762.605,729 C1769.945,732.16 1776.885,736.17 1784.095,739.61 C1794.495,744.81 1805.145,749.54 1816.185,753.23 C1843.635,762.39 1871.905,769.28 1898.685,780.34 C1903.395,782.51 1907.775,785.32 1912.225,787.96 C1926.185,796.36 1940.025,805.13 1953.985,813.33 C1963.445,818.97 1973.015,824.53 1983.175,828.82 C1987.255,830.65 1991.405,832.08 1995.605,833.29 C1996.715,833.23 1997.815,833.13 1998.915,832.99 C1999.375,832.78 1999.955,832.81 2000.315,833.21 C2000.675,833.59 2000.705,834.17 2000.425,834.6 C2006.075,836.05 2011.795,837.27 2017.505,838.73 C2019.395,839.18 2021.215,839.82 2022.965,840.59 z" fill="#701E13"/>
    <path d="M1673.505,546.4 C1673.405,544.97 1672.825,543.67 1672.405,542.32 C1667.775,543.69 1663.325,545.57 1658.885,547.33 C1656.565,548.27 1653.055,549.31 1654.775,552.51 C1654.885,552.57 1655.005,552.63 1655.135,552.64 C1657.875,552.39 1660.445,551.2 1663.035,550.37 C1665.125,549.66 1667.205,548.96 1669.285,548.22 C1670.675,547.63 1672.315,547.36 1673.495,546.39 z M1678.595,564.49 C1678.325,563.01 1677.815,561.57 1677.255,560.19 C1673.675,560.79 1670.245,562.17 1666.805,563.27 C1667.695,564.89 1668.465,566.82 1670.315,567.52 C1673.115,566.69 1676.035,565.89 1678.605,564.49 z M1690.745,602.56 C1690.905,601.41 1690.105,600.22 1689.835,599.09 C1688.695,595.78 1687.465,592.83 1686.075,589.7 C1685.015,587.45 1684.255,584.98 1682.595,583.11 C1677.285,585.4 1671.685,587.09 1666.435,589.27 C1668.595,593.47 1670.875,608.83 1674.945,609.87 C1678.655,608.98 1682.075,607.13 1685.615,605.73 C1687.445,604.93 1689.405,604.07 1690.735,602.55 z M1695.635,536.22 C1695.665,534.6 1694.955,533.06 1694.815,531.51 C1691.095,532.86 1687.375,534.23 1683.755,535.86 C1683.145,536.13 1682.535,536.4 1681.925,536.67 C1681.475,536.95 1680.685,536.99 1680.475,537.53 C1680.295,539.03 1680.495,540.63 1680.885,542.06 C1680.915,542.06 1680.935,542.07 1680.965,542.07 C1684.205,541.56 1687.175,539.98 1690.205,538.8 C1692.005,537.95 1694.045,537.46 1695.625,536.22 z M1697.045,635.46 C1697.095,634.99 1696.735,634.35 1696.545,634.02 C1695.765,632.8 1694.975,631.58 1694.125,630.41 L1694.105,630.41 C1692.885,630.41 1691.775,631.01 1690.665,631.45 C1688.405,632.45 1686.145,633.47 1683.935,634.59 C1684.885,636.11 1685.675,637.66 1686.765,639.08 L1686.765,639.08 C1686.875,639.11 1686.985,639.13 1687.105,639.13 C1690.615,638.73 1693.945,637.07 1697.035,635.47 z M1702.365,554.22 C1702.365,552.84 1701.815,551.4 1701.315,550.11 C1695.335,552.05 1689.425,554.34 1683.555,556.52 C1683.825,556.73 1683.945,557.17 1683.995,557.48 C1684.335,558.87 1685.015,560.18 1685.845,561.33 C1689.595,559.92 1693.215,558.49 1696.955,557.1 C1698.835,556.31 1700.775,555.52 1702.355,554.21 z M1710.675,597.87 C1711.265,595.09 1710.705,592.21 1710.565,589.41 C1710.305,585.34 1710.035,581.09 1709.505,577.09 C1704.145,577.96 1699.105,580.23 1693.955,581.88 C1695.315,585.69 1696.735,589.48 1697.995,593.33 C1698.595,595.15 1699.155,597 1699.845,598.79 C1700.115,599.39 1700.435,600.28 1701.105,600.47 C1704.485,600.22 1707.545,599.04 1710.665,597.88 z M1710.575,694.96 C1713.045,693.98 1715.515,693.02 1717.995,692.07 C1715.905,686.5 1713.605,681.01 1711.625,675.4 C1710.335,671.69 1709.105,667.82 1707.755,664.08 C1705.995,664.79 1704.225,665.48 1702.455,666.15 C1696.335,668.36 1690.165,670.46 1683.875,672.14 C1684.115,674.4 1684.335,676.66 1684.655,678.9 C1685.715,686.52 1687.225,693.98 1688.675,701.51 C1691.555,700.53 1694.425,699.54 1697.395,698.86 C1701.805,697.61 1706.405,696.88 1710.585,694.95 z M1728.745,725.19 C1726.175,717.46 1723.575,709.73 1721.115,701.96 C1714.855,703.86 1708.495,705.49 1702.345,707.52 C1698.925,708.67 1695.515,709.84 1692.135,711.11 C1691.705,711.27 1691.285,711.44 1690.865,711.61 C1693.215,720.92 1696.325,730.04 1699.395,739.12 C1702.055,746.71 1704.575,754.36 1707.125,761.99 C1708.445,760.91 1709.785,759.84 1710.715,758.4 C1712.085,756.41 1711.125,753.74 1710.895,751.52 C1710.545,749.1 1710.085,746.69 1709.975,744.25 C1709.905,742.59 1711.275,741.46 1712.315,740.36 C1712.935,739.83 1713.555,739.14 1713.365,738.26 C1713.125,737.02 1712.475,735.67 1713.175,734.46 C1713.715,733.28 1714.665,732.31 1715.795,731.68 C1716.095,731.49 1716.495,731.43 1716.695,731.12 C1717.355,730.11 1717.345,728.81 1717.995,727.8 C1720.195,724.59 1725.365,726.1 1728.715,725.17 z M1724.575,524.19 C1724.695,521.83 1723.345,519.82 1722.205,517.82 C1720.295,518.52 1718.455,519.41 1716.575,520.17 C1716.095,520.3 1715.495,520.64 1714.885,520.9 C1716.145,523.16 1717.355,525.48 1718.235,527.92 C1719.965,527.3 1721.555,526.32 1723.115,525.37 C1723.605,524.99 1724.365,524.81 1724.575,524.19 z M1727.785,627.56 C1727.865,626.9 1727.525,626.31 1727.205,625.77 C1726.265,624.22 1725.115,622.81 1724.045,621.35 C1723.755,621.29 1723.475,621.26 1723.185,621.26 L1723.185,621.26 C1721.665,621.26 1720.165,622.02 1718.745,622.48 C1716.345,623.36 1714.115,624.42 1711.875,625.6 C1712.665,627.14 1713.275,628.76 1713.955,630.33 C1714.305,631.15 1714.635,631.99 1715.055,632.77 C1715.135,632.91 1715.275,632.99 1715.445,632.98 C1718.285,632.82 1720.735,631.11 1723.235,629.92 C1724.745,629.11 1726.315,628.41 1727.795,627.55 z M1738.725,390.16 C1739.665,385.42 1734.215,382.71 1730.635,381.09 C1729.775,380.58 1729.005,381.56 1728.285,381.94 C1725.695,383.72 1723.045,385.4 1720.395,387.09 C1718.715,388.24 1716.485,390.52 1714.285,389.56 C1713.645,389.08 1713.495,388.22 1712.915,387.69 C1708.255,390.28 1704.425,394 1700.185,397.19 C1697.785,398.87 1695.745,401.26 1693.005,402.37 C1689.325,403.08 1685.605,403.68 1681.865,404.04 C1681.635,406.24 1681.975,408.55 1683.145,410.46 C1685.265,410.62 1687.455,410.35 1689.535,410.9 C1692.695,412.09 1695.545,413.99 1698.575,415.46 C1700.105,416.19 1701.525,417.34 1703.255,417.51 C1706.435,416.76 1709.695,416.21 1712.945,415.98 C1714.595,415.75 1716.555,415.72 1717.885,414.62 C1721.165,412.16 1724.535,409.88 1727.575,407.13 C1728.615,406.22 1729.835,405.22 1731.315,405.54 C1731.465,405.57 1731.785,405.61 1731.815,405.62 C1734.065,405.94 1736.435,405.54 1738.565,404.83 C1738.375,401.74 1737.525,398.68 1738.165,395.6 C1736.465,395.71 1735.285,394.45 1736.205,392.85 C1736.815,391.74 1738.095,391.23 1738.735,390.17 z M1739.205,683.54 C1740.705,682.94 1742.205,682.35 1743.715,681.77 C1741.895,677.3 1740.745,672.59 1739.375,667.97 C1737.745,662.85 1736.255,657.43 1734.005,652.55 C1727.985,655.35 1721.945,658.1 1715.845,660.72 C1718.275,667.35 1720.875,673.93 1723.715,680.39 C1724.655,682.51 1725.625,684.62 1726.555,686.75 C1726.805,687.32 1727.045,687.88 1727.295,688.45 C1731.295,686.88 1735.275,685.25 1739.215,683.54 z M1747.815,619.26 C1747.425,617.91 1746.595,616.56 1745.965,615.44 C1745.525,614.85 1745.235,613.73 1744.375,613.73 L1744.355,613.73 C1740.245,614.13 1736.325,615.82 1732.615,617.56 C1733.375,619.5 1734.325,621.47 1735.325,623.19 C1735.605,623.58 1735.755,624.27 1736.355,624.19 C1737.505,624.13 1738.575,623.66 1739.615,623.22 C1742.415,622.03 1745.125,620.67 1747.805,619.25 z M1748.065,709.34 C1748.205,709.23 1748.385,709.08 1748.595,708.9 C1746.575,703.8 1744.495,698.72 1742.235,693.72 C1738.525,695.49 1734.785,697.15 1730.945,698.62 C1732.875,705.15 1734.985,711.63 1737.095,718.1 C1737.235,717.79 1737.375,717.49 1737.535,717.2 C1738.415,715.81 1740.135,715.78 1741.605,716 L1742.015,716 C1743.145,716.02 1744.365,716.03 1745.075,715.03 C1746.075,713.14 1746.455,710.87 1748.065,709.33 z M1769.635,671.49 C1769.575,671.38 1769.525,671.27 1769.465,671.15 C1764.545,661.77 1759.475,652.45 1755.115,642.79 C1751.225,644.55 1747.355,646.34 1743.485,648.14 C1747.245,657.95 1751.045,667.75 1754.845,677.55 C1758.475,676.16 1762.075,674.73 1765.635,673.18 C1766.975,672.63 1768.305,672.07 1769.635,671.49 z M1775.575,694.43 C1776.865,694.38 1778.155,694.33 1779.445,694.32 C1777.445,689.41 1775.545,684.46 1773.435,679.6 C1773.215,679.69 1773.005,679.78 1772.785,679.87 C1767.875,681.8 1762.915,683.81 1758.105,685.98 C1759.035,688.39 1759.965,690.79 1760.895,693.2 C1761.215,694.02 1761.545,694.84 1761.875,695.65 C1766.385,694.82 1771.005,694.73 1775.575,694.44 z M1813.085,603.22 C1811.305,597.13 1809.525,591.05 1807.795,584.94 C1807.235,583.32 1806.695,581.7 1806.175,580.08 C1802.665,579.88 1799.245,579.11 1796.375,576.86 C1790.635,573.21 1794.455,566.32 1785.735,564.54 C1783.435,566.88 1780.485,568.43 1778.235,570.79 C1777.875,571.28 1777.945,571.96 1778.035,572.54 C1778.105,572.86 1778.635,572.91 1778.835,572.87 C1780.245,572.76 1781.715,572.57 1782.945,572.57 C1785.605,572.57 1787.215,573.43 1784.915,577.78 C1783.375,580.14 1780.875,581.61 1778.785,583.43 C1776.885,585.28 1775.435,587.37 1773.545,589.16 C1771.975,590.73 1770.185,592.07 1768.335,593.29 C1766.725,594.43 1764.775,595.05 1763.135,596.13 C1763.865,597.89 1764.535,599.68 1765.325,601.4 C1767.095,605.64 1768.805,609.9 1770.425,614.2 C1771.075,615.93 1771.725,617.66 1772.375,619.39 C1780.385,615.89 1788.435,612.47 1796.515,609.14 C1802.015,607.12 1807.545,605.17 1813.075,603.21 z M1820.395,653.27 C1822.885,653.36 1825.385,653.38 1827.875,653.42 C1824.095,641.23 1820.235,629.06 1816.935,616.74 C1815.065,617.53 1813.195,618.33 1811.325,619.12 C1800.585,623.51 1789.675,627.45 1778.975,631.95 C1774.685,633.79 1770.425,635.73 1766.185,637.69 C1768.455,644.33 1771.345,650.76 1774.185,657.18 C1777.505,664.55 1780.245,671.89 1783.205,679.32 C1783.945,681.13 1784.685,682.94 1785.435,684.75 C1785.545,684.64 1785.655,684.54 1785.735,684.44 C1787.945,682.49 1790.095,680.45 1792.445,678.67 C1793.935,677.72 1796.365,677.97 1794.625,675.57 C1792.995,675.33 1793.275,673.33 1794.845,673.19 C1797.515,671.62 1800.155,669.89 1802.345,667.71 C1801.195,663.99 1801.065,662.05 1804.195,659.36 C1805.085,658.52 1804.975,657.22 1805.475,656.17 C1806.235,653.81 1808.815,653.38 1810.955,653.02 C1814.085,652.12 1817.225,653.16 1820.395,653.27 z M1828.105,597.74 C1826.515,592.68 1824.945,587.61 1823.335,582.55 C1822.985,581.63 1822.645,580.7 1822.315,579.77 C1821.865,579.59 1821.415,579.41 1820.965,579.25 C1820.655,579.13 1820.355,579.09 1820.065,579.09 C1818.755,579.09 1817.575,580.08 1816.295,580.34 C1816.165,580.38 1816.035,580.41 1815.895,580.43 C1817.455,584.93 1819.005,589.43 1820.415,593.98 C1821.005,595.97 1821.595,597.96 1822.175,599.95 C1824.155,599.23 1826.135,598.49 1828.105,597.75 z M1835.765,594.76 C1837.605,594.02 1839.435,593.27 1841.265,592.49 C1838.755,590.09 1835.835,588.18 1833.015,586.15 C1833.975,589 1834.915,591.86 1835.775,594.75 z M1837.475,511.65 C1837.865,511.34 1837.505,510.97 1837.325,510.65 C1835.995,508.93 1834.955,507.02 1833.695,505.25 C1831.685,506.11 1829.665,507 1828.245,508.58 C1829.425,510.92 1830.495,513.22 1832.555,514.81 C1834.225,513.81 1836.065,513.02 1837.475,511.65 z M1837.445,649.76 C1840.395,648.45 1841.775,648.04 1844.035,648.58 C1840.825,638.19 1837.685,627.79 1834.535,617.39 C1833.715,615.04 1832.925,612.69 1832.145,610.32 C1830.055,611.2 1827.975,612.08 1825.885,612.96 C1828.705,622.95 1831.535,632.94 1834.765,642.81 C1835.495,645.2 1836.245,647.58 1836.995,649.96 C1837.145,649.89 1837.305,649.82 1837.455,649.76 z M1857.675,520.19 C1859.275,519.04 1859.115,517.92 1858.215,516.34 C1857.525,514.9 1856.825,513.45 1856.125,512.02 C1853.455,506.69 1850.875,501.3 1848.435,495.86 C1845.795,497.97 1842.825,499.46 1840.385,501.75 C1841.805,505.03 1850.295,523.02 1853.195,523.01 C1853.955,522.95 1854.535,522.37 1855.155,521.99 C1856.025,521.41 1856.905,520.88 1857.685,520.19 z M1869.375,541.69 C1868.945,539.97 1867.955,538.43 1867.245,536.8 C1865.715,533.95 1864.755,530.76 1862.595,528.35 C1860.425,529.99 1858.325,531.81 1856.065,533.32 C1856.025,533.34 1855.985,533.37 1855.945,533.39 C1856.135,533.69 1856.305,534.03 1856.475,534.3 C1858.485,537.84 1860.325,541.49 1862.515,544.92 C1862.535,544.96 1862.555,545 1862.575,545.03 C1862.805,545.33 1863.025,545.63 1863.235,545.95 C1865.495,544.73 1867.715,543.6 1869.375,541.68 z M1895.185,533.25 C1895.185,533.25 1895.195,533.25 1895.205,533.24 C1894.685,531.99 1894.195,530.73 1893.685,529.47 C1890.135,521.19 1886.235,513.06 1882.755,504.76 C1879.045,496.45 1874.095,488.75 1868.945,481.27 C1868.875,481.27 1868.805,481.27 1868.735,481.28 C1867.505,481.36 1866.275,481.48 1865.095,481.71 C1864.685,481.77 1864.295,481.85 1864.105,482.27 C1862.905,484.9 1863.115,488.11 1863.495,490.86 C1866.295,496.33 1868.805,501.88 1871.225,507.52 C1874.595,515.9 1878.455,524.06 1881.815,532.44 C1882.435,534.06 1883.025,535.69 1883.675,537.29 C1883.845,537.26 1884.005,537.23 1884.175,537.2 C1887.155,536.55 1889.765,535.55 1892.525,534.41 C1893.445,534.02 1894.375,533.64 1895.185,533.25 z M1894.905,636.64 C1897.005,636.16 1899.135,635.75 1901.165,635.02 C1897.685,631.88 1894.175,628.48 1889.785,626.82 C1888.795,626.5 1887.535,626.86 1886.655,627.1 C1885.025,627.55 1883.405,628.05 1881.795,628.56 C1879.985,629.28 1878.135,629.59 1876.205,629.5 C1874.645,629.96 1873.135,630.57 1871.665,631.18 C1869.735,631.9 1867.565,633.08 1865.505,632.27 C1862.205,630.27 1859.415,627.4 1857.395,624.11 C1855.775,622.05 1855.485,619.42 1854.805,616.97 C1854.135,614.85 1853.525,612.52 1852.065,610.8 C1850.875,609.97 1849.465,610.03 1848.075,610.08 C1847.605,610.1 1847.135,610.12 1846.685,610.1 C1845.955,610.05 1845.235,610.03 1844.525,610.03 C1843.115,610.03 1841.715,610.1 1840.325,610.13 C1842.385,617.09 1844.425,624.06 1846.495,631.01 C1848.495,637.19 1850.645,643.34 1852.685,649.51 C1855.155,649.32 1857.555,648.73 1859.055,647.28 C1859.165,640.53 1864.135,643.61 1868.395,643.96 C1869.445,644.07 1870.395,643.59 1871.405,643.43 C1874.885,643.09 1878.465,643.48 1881.905,642.74 C1882.275,639.3 1883.805,638.48 1887.015,637.92 C1889.645,637.49 1892.295,637.19 1894.895,636.62 z M2026.395,892 C2026.635,892.66 2026.895,893.31 2027.145,893.96 C2025.565,893.7 2023.985,893.44 2022.425,893.11 C2020.445,892.69 2018.455,892.25 2016.465,891.85 C2012.515,891.04 2008.565,890.28 2004.605,889.51 C1996.965,888.02 1989.335,886.54 1981.715,884.94 C1977.615,884.08 1973.505,883.22 1969.405,882.37 C1965.535,881.56 1961.635,880.89 1957.735,880.24 C1955.695,879.89 1953.655,879.58 1951.615,879.26 C1949.915,878.99 1948.215,878.79 1946.515,878.49 C1944.505,878.14 1942.505,877.81 1940.505,877.39 C1938.575,876.98 1936.645,876.55 1934.715,876.16 C1930.785,875.36 1926.845,874.54 1922.885,873.87 C1919.135,873.23 1915.385,872.6 1911.645,871.91 C1907.695,871.18 1903.755,870.4 1899.825,869.58 C1896.125,868.82 1892.415,868.04 1888.715,867.29 C1884.565,866.45 1880.415,865.63 1876.265,864.83 C1872.325,864.08 1868.415,863.19 1864.485,862.36 C1856.875,860.74 1849.285,859.01 1841.665,857.46 C1837.685,856.65 1833.695,855.86 1829.725,855.05 C1826.005,854.29 1822.295,853.46 1818.585,852.63 C1816.405,852.07 1814.245,851.49 1812.085,850.86 C1809.665,850.16 1807.235,849.45 1804.815,848.74 C1802.485,848.06 1800.145,847.4 1797.815,846.74 C1795.605,846.12 1793.375,845.56 1791.145,844.97 C1789.195,844.46 1787.225,844.01 1785.265,843.54 C1783.335,843.07 1781.415,842.58 1779.485,842.1 C1777.625,841.63 1775.775,841.13 1773.915,840.64 C1772.055,840.14 1770.195,839.65 1768.355,839.1 C1764.685,838 1761.025,836.9 1757.425,835.61 C1753.485,834.2 1749.565,832.73 1745.645,831.27 C1742.235,830 1738.785,828.83 1735.335,827.67 C1731.575,826.41 1727.815,825.16 1724.055,823.93 C1722.105,823.3 1720.145,822.67 1718.185,822.04 C1716.455,821.49 1714.715,820.97 1713.005,820.38 C1710.205,819.42 1707.425,818.43 1704.645,817.41 L1704.305,816.43 C1704.335,815.87 1704.105,815.3 1703.955,814.77 C1703.825,814.3 1703.685,813.82 1703.555,813.35 C1702.875,810.96 1702.155,808.59 1701.375,806.23 C1700.795,803.76 1700.225,801.29 1699.675,798.82 C1699.045,796 1698.435,793.18 1697.775,790.37 C1697.115,787.53 1696.175,784.77 1695.095,782.07 C1694.625,780.89 1694.115,779.73 1693.585,778.56 C1693.965,778.66 1694.345,778.75 1694.725,778.85 C1691.785,768.92 1688.835,758.99 1685.885,749.07 C1681.265,733.54 1676.665,718.01 1672.055,702.48 C1667.505,687.16 1662.975,671.84 1658.415,656.53 C1653.835,641.15 1649.285,625.76 1644.715,610.37 C1640.245,595.33 1635.785,580.3 1631.325,565.26 C1626.785,549.96 1622.235,534.66 1617.695,519.36 C1613.245,504.34 1608.775,489.31 1604.315,474.29 C1600.305,460.77 1596.295,447.26 1592.275,433.74 C1591.795,432.11 1591.315,430.49 1590.825,428.86 C1590.775,428.69 1590.725,428.53 1590.675,428.36 C1590.805,427.32 1590.935,426.27 1591.065,425.23 C1591.165,424.41 1591.275,423.59 1591.375,422.77 C1591.735,419.88 1592.105,417 1592.465,414.12 C1592.565,413.32 1592.665,412.53 1592.765,411.73 C1592.955,411.69 1593.155,411.65 1593.345,411.61 C1593.485,411.58 1593.635,411.56 1593.775,411.53 C1593.775,411.53 1593.775,411.53 1593.785,411.53 C1593.865,411.52 1593.945,411.5 1594.025,411.49 C1594.375,411.43 1594.725,411.38 1595.085,411.34 C1596.135,411.21 1597.195,411.15 1598.235,411.15 C1601.565,411.12 1604.975,411.13 1608.225,411.98 C1610.735,412.74 1609.975,415.38 1610.755,417.19 C1610.815,417.32 1610.945,417.39 1611.085,417.38 C1612.715,416.81 1614.325,416.17 1615.935,415.56 C1618.115,414.72 1620.325,413.93 1622.335,413.05 C1622.975,412.74 1623.675,412.5 1624.235,412.06 C1624.725,410.63 1624.665,409.02 1625.385,407.66 C1625.955,406.8 1627.045,406.52 1628.025,406.59 C1629.635,406.69 1631.235,406.77 1632.845,406.86 C1633.455,406.85 1634.125,406.9 1634.815,406.94 C1637.085,407.09 1639.605,407.24 1641.025,405.48 C1641.345,403.59 1641.395,401.62 1642.115,399.83 C1642.785,397.72 1644.885,397.34 1646.835,397.49 C1647.425,397.44 1648.035,397.48 1648.655,397.52 C1649.735,397.59 1650.825,397.66 1651.795,397.24 C1652.355,396.7 1652.245,395.77 1652.605,395.09 C1653.455,392.6 1656.295,392.12 1658.535,391.53 C1660.925,390.91 1663.165,390.48 1665.365,389.62 C1666.715,389.02 1666.705,388.48 1666.265,387.14 C1665.975,386.04 1666.135,384.76 1667.145,384.08 C1667.555,383.73 1668.125,383.65 1668.525,383.29 C1669.215,382.19 1669.035,380.77 1669.295,379.54 C1669.815,376.02 1670.265,372.39 1671.765,369.14 C1672.585,367.43 1674.625,367.04 1676.285,366.58 C1678.675,365.97 1681.075,365.41 1683.465,364.78 C1686.555,364.09 1689.645,363.11 1692.815,362.95 C1693.655,362.92 1694.625,363.25 1694.935,364.1 C1695.215,364.85 1694.865,365.41 1695.045,366.13 C1696.155,365.96 1697.435,365.75 1698.365,365.13 C1695.815,362.37 1697.455,361.12 1700.445,360.27 C1703.995,359.12 1707.595,358.12 1711.105,356.87 C1719.095,353.78 1727.395,351.2 1735.235,347.76 C1735.385,345.54 1735.685,343.31 1736.745,341.36 C1737.655,340 1739.165,339.2 1740.365,338.13 C1745.675,333.65 1751.205,329.46 1756.805,325.35 C1759.505,323.19 1762.875,321.46 1764.555,318.32 C1765.305,314.82 1766.855,311.21 1766.325,307.6 C1765.405,304.22 1763.325,301.48 1762.135,298.23 C1761.365,296.2 1760.225,294.18 1760.295,291.96 C1760.355,290.31 1762.115,289.87 1763.435,289.56 C1765.025,289.12 1766.645,288.8 1768.215,288.28 C1772.205,285.82 1776.325,283.43 1780.265,280.83 C1780.945,280.38 1781.615,279.92 1782.285,279.46 C1782.955,279.91 1783.625,280.36 1784.295,280.8 C1791.665,285.72 1799.095,290.52 1806.565,295.26 C1807.965,296.15 1809.365,297.03 1810.765,297.92 C1811.175,298.62 1811.575,299.33 1811.975,300.04 C1812.345,300.7 1812.715,301.37 1813.075,302.04 C1815.375,306.28 1817.505,310.61 1819.765,314.88 C1822.365,319.71 1825.115,324.47 1827.705,329.3 C1828.915,331.84 1830.765,334.15 1831.595,336.83 C1832.455,344.72 1828.285,340.83 1833.565,351.17 C1835.275,354.5 1836.935,357.83 1838.575,361.1 C1840.795,365.76 1843.505,370.2 1845.455,374.98 C1845.935,376.3 1846.285,377.74 1846.025,379.15 C1845.705,381.01 1844.445,382.71 1844.855,384.66 C1845.515,387.2 1846.655,389.83 1847.765,392.14 C1851.625,399.8 1856.415,407.05 1860.245,414.72 C1860.355,414.94 1860.465,415.15 1860.565,415.37 C1860.675,415.58 1860.775,415.8 1860.875,416.01 C1861.085,416.45 1861.295,416.89 1861.495,417.33 C1861.625,417.61 1861.755,417.9 1861.885,418.18 C1862.015,418.48 1862.155,418.78 1862.285,419.08 C1862.415,419.38 1862.545,419.68 1862.675,419.99 C1862.685,420.01 1862.695,420.04 1862.705,420.06 C1862.705,420.24 1862.705,420.42 1862.705,420.6 C1862.705,421.32 1862.705,422.03 1862.685,422.75 C1862.675,423.46 1862.655,424.18 1862.635,424.9 C1862.545,428.39 1862.445,431.88 1862.765,435.34 C1863.725,438.41 1865.635,441.23 1867.095,443.96 C1870.075,449.35 1872.775,454.9 1875.605,460.37 C1876.415,462.2 1878.825,464.96 1875.525,465.68 C1875.145,465.78 1875.165,466.16 1875.245,466.48 C1875.875,468.49 1877.225,470.17 1878.315,471.94 C1878.935,472.94 1879.675,473.95 1879.675,475.19 C1879.885,476.76 1879.055,477.82 1878.635,479.18 C1879.285,482.38 1880.455,485.26 1881.995,488.09 C1884.265,492.18 1886.625,495.98 1888.415,500.26 C1889.345,502.75 1889.955,505.39 1890.575,507.95 C1891.335,511.06 1892.215,514.2 1892.925,517.31 C1893.275,518.75 1893.635,520.19 1894.035,521.63 C1894.165,522.1 1894.295,522.57 1894.425,523.03 C1894.475,523.19 1894.515,523.35 1894.565,523.51 C1894.965,524.88 1895.395,526.24 1895.865,527.58 C1895.945,527.8 1896.015,528.02 1896.095,528.23 C1896.195,528.51 1896.295,528.78 1896.395,529.06 C1896.455,529.21 1896.505,529.36 1896.565,529.51 C1896.645,529.72 1896.725,529.94 1896.815,530.15 C1896.915,530.4 1897.015,530.65 1897.115,530.9 C1897.305,531.37 1897.505,531.84 1897.715,532.3 C1897.765,532.42 1897.825,532.54 1897.875,532.67 C1897.975,532.89 1898.075,533.12 1898.185,533.34 C1898.275,533.52 1898.355,533.71 1898.445,533.89 C1898.455,533.92 1898.465,533.94 1898.485,533.97 C1898.535,534.09 1898.595,534.2 1898.655,534.31 C1898.755,534.52 1898.865,534.73 1898.965,534.94 C1899.075,535.29 1899.185,535.64 1899.295,535.99 C1899.385,536.27 1899.475,536.55 1899.565,536.82 C1899.705,537.24 1899.835,537.66 1899.985,538.08 C1900.095,538.41 1900.215,538.75 1900.325,539.09 C1900.325,539.1 1900.325,539.12 1900.335,539.13 C1900.545,539.74 1900.755,540.35 1900.975,540.96 C1902.885,546.25 1905.095,551.44 1906.855,556.78 C1910.065,566.41 1912.565,575.95 1915.995,585.44 C1920.075,596.86 1925.485,607.38 1930.575,618.27 C1938.355,635.27 1946.095,652.35 1952.125,670.07 C1967.775,717.66 1984.835,764.78 2001.665,811.96 C2002.915,815.24 2004.165,818.5 2005.435,821.76 C2005.475,821.86 2005.495,821.96 2005.505,822.05 C2007.315,826.57 2009.065,831.11 2010.775,835.67 C2010.845,835.67 2010.905,835.69 2010.975,835.69 L2011.135,836.26 C2011.165,836.46 2011.205,836.66 2011.235,836.85 C2011.395,837.72 2011.605,838.57 2011.945,839.39 C2012.375,840.43 2012.885,841.42 2013.425,842.39 C2013.545,842.69 2013.685,842.99 2013.835,843.28 C2013.885,843.42 2013.945,843.57 2013.995,843.71 C2014.535,845.25 2014.875,846.84 2015.295,848.42 C2015.825,850.4 2016.375,852.36 2016.825,854.36 C2017.185,856.09 2017.495,857.83 2017.885,859.55 C2018.255,861.21 2018.675,862.86 2019.115,864.5 C2020.055,867.99 2021.125,871.45 2021.995,874.96 C2022.765,878.28 2023.485,881.62 2024.325,884.93 C2024.915,887.3 2025.495,889.69 2026.345,891.97 z" fill="#3F0B0B"/>
  </g>
</svg>
