<?xml version="1.0" encoding="UTF-8"?>
<svg id="Layer_31" data-name="Layer 31" xmlns="http://www.w3.org/2000/svg" xmlns:xlink="http://www.w3.org/1999/xlink" viewBox="0 0 2880 1310">
  <g id="Layer_5" transform="translate(0, 0)">
    <path d="M-29.315,746.701 L444.648,746.701 L714.685,696.02 L987.565,718.296 L1285.9,706.385 L1498.229,701.01 L1719.765,712.16 L1914.824,746.701 L2908.805,746.701 L2908.805,1313.89 L-29.315,1313.89 L-29.315,746.701 z" fill="#9B3118"/>
    <path d="M830.095,669.6 C829.575,669.44 829.065,669.27 828.555,669.11 C821.905,667 815.265,664.83 808.405,663.36 C794.765,660.15 780.775,658.66 766.945,656.39 C754.855,654.32 742.945,652.11 731.215,648.93 C724.455,647.1 717.735,645.15 710.885,643.6 C698.765,640.65 685.825,640.31 673.515,638.96 C659.445,637.55 645.475,635.39 631.435,633.86 C624.715,633.19 617.905,633.31 611.205,634.15 C597.335,636.18 453.025,671.36 439.645,675.2 C439.395,675.27 332.015,648.76 310.465,647.49 C268.295,645.01 207.075,680.67 185.195,678.87 C84.345,670.55 7.255,661.16 0.125,662.09 L0.125,662.09 C0.125,662.09 -26.745,662.09 -26.745,662.09 L-26.745,855.91 L0.125,855.91 L0.125,769.96 C17.205,768.28 564.065,732.22 570.125,731.19 C578.025,729.62 585.715,727.36 593.465,725.26 C604.195,722.64 614.855,719.81 625.615,717.32 C632.865,715.6 640.245,714.31 647.505,712.6 C653.245,711.26 658.915,709.63 664.645,708.22 C670.045,706.87 675.435,705.52 680.865,704.28 C682.025,704.01 681.965,702.25 680.745,702.11 C691.945,699.47 703.355,697.98 714.685,696.02 C726.155,693.62 737.575,691 748.855,687.93 C755.125,686.77 761.475,686.03 767.775,685.01 C779.175,683.21 790.335,680.52 801.495,677.91 C809.225,676.31 816.625,674.7 824.185,672.74 C825.065,672.48 826.005,672.31 826.905,672.06 C826.925,672.06 826.955,672.04 826.985,672.04 C827.695,671.83 828.395,671.58 829.005,671.18 C829.395,670.78 829.435,670.18 829.115,669.76 C829.395,669.71 829.675,669.65 829.955,669.61 C829.995,669.61 830.045,669.59 830.095,669.59 z M639.055,712.15 C643.735,710.93 648.415,709.95 653.105,708.89 C648.465,710.12 643.775,711.19 639.055,712.15 z" fill="#C64F21"/>
    <path d="M729.155,688.79 C721.455,685.98 713.975,682.6 706.265,679.51 C699.655,677.07 693.555,673.52 687.115,670.71 C676.915,666.21 666.385,662.54 655.945,658.65 C647.845,655.62 639.745,652.61 631.635,649.59 C630.605,649.2 629.585,648.82 628.555,648.44 C624.715,647 620.875,645.56 617.045,644.11 C615.505,643.53 613.985,642.95 612.445,642.36 C611.095,641.84 503.955,616.79 472.505,617.94 C432.945,619.39 345.995,694.77 254.255,716.73 C186.405,732.97 130.785,675.14 82.705,687.51 C43.665,697.56 28.215,723.54 -0.115,723.63 L-28.425,723.63 L-28.425,961.86 L0.215,961.86 L0.215,790.06 C19.065,787.92 527.425,743.37 535.265,741.8 C553.925,737.87 572.935,735.79 591.415,731 C605.795,727.37 620.085,724.07 634.545,720.5 C647.355,717.27 660.195,713.05 673.045,709.79 C681.815,707.55 690.255,704.29 698.695,701.07 C707.685,697.81 716.765,694.8 725.655,691.31 C726.435,691.58 727.255,690.85 727.105,690.04 C727.085,689.96 727.075,689.9 727.045,689.83 C727.675,689.52 728.305,689.21 728.935,688.9 C729.005,688.86 729.075,688.82 729.145,688.79 z" fill="#9B3118"/>
    <path d="M2006.095,661.6 C2006.535,661.71 2006.975,661.82 2007.425,661.93 C2005.745,661.99 2004.025,661.95 2002.385,662.31 C2001.565,662.49 2000.855,662.94 2000.315,663.55 C1999.515,663.4 1998.715,663.25 1997.915,663.1 C1994.575,663.67 1991.215,664.03 1987.845,664.39 C1980.205,665.31 1972.635,666.64 1965.085,668.06 C1958.255,669.27 1951.645,670.07 1944.955,671.51 C1933.985,673.71 1922.945,675.56 1911.965,677.71 C1901.045,680.06 1890.045,681.99 1879.045,683.91 C1860.265,687.71 1841.675,692.43 1822.735,695.44 C1812.025,697.43 1801.375,699.77 1790.565,701.24 C1783.795,702.2 1776.985,702.82 1770.235,703.92 C1757.895,706.16 1745.835,709.82 1733.325,711.18 C1729.955,711.61 1726.565,711.99 1723.175,712.31 C1725.525,713.58 1727.865,714.88 1730.215,716.15 C1731.425,716.77 1730.655,718.82 1729.205,718.17 C1722.625,714.48 1715.835,711.16 1709.385,707.23 C1705.125,704.61 1700.935,701.87 1696.685,699.23 C1679.395,688.49 1662.285,677.5 1645.175,666.48 C1636.545,660.86 1627.405,656.05 1619.035,650.05 C1615.065,647.16 1611.235,643.79 1606.765,641.77 C1605.865,641.56 1605.695,640.51 1606.155,639.93 C1605.865,639.66 1605.545,639.42 1605.195,639.23 C1611.535,636.97 1617.875,634.74 1624.295,632.72 C1637.105,629 1649.945,625.4 1662.695,621.48 C1679.395,616.21 1696.195,611.1 1713.305,607.33 C1728.185,603.71 1742.995,599.14 1758.325,597.9 C1762.615,597.5 1766.955,597.22 1771.155,598.37 C1777.345,599.83 1783.445,601.73 1789.315,604.17 C1806.615,611.11 1823.575,618.93 1841.285,624.8 C1851.195,628.09 1861.345,630.67 1871.575,632.78 C1882.375,634.71 1893.245,635.77 1904.025,637.84 C1926.475,641.63 1948.545,647.26 1970.495,653.24 C1980.475,655.8 1990.535,658.01 2000.565,660.32 C2000.565,660.32 2000.575,660.32 2000.585,660.32 C2000.915,660.24 2001.265,660.34 2001.525,660.54 L2001.525,660.54 C2003.045,660.89 2004.565,661.25 2006.095,661.61 z" fill="#CC6935"/>
    <path d="M2878.565,662.06 L2878.565,662.06 C2856.865,661.72 2558.735,691.05 2553.045,689.26 C2540.645,685.42 2325.795,636.19 2312.935,634.16 C2306.725,633.32 2300.415,633.2 2294.185,633.87 C2281.165,635.4 2268.215,637.56 2255.175,638.97 C2243.765,640.32 2231.775,640.66 2220.535,643.61 C2214.195,645.16 2207.955,647.1 2201.695,648.94 C2190.825,652.12 2179.785,654.33 2168.575,656.4 C2155.755,658.66 2142.785,660.16 2130.135,663.37 C2123.775,664.84 2117.625,667.01 2111.465,669.12 C2110.985,669.28 2110.515,669.45 2110.035,669.61 C2110.085,669.61 2110.125,669.63 2110.165,669.63 C2110.425,669.68 2110.685,669.73 2110.945,669.78 C2110.645,670.21 2110.685,670.81 2111.055,671.2 C2111.615,671.6 2112.265,671.85 2112.925,672.06 C2112.955,672.06 2112.975,672.08 2113.005,672.08 C2113.835,672.32 2114.705,672.5 2115.525,672.76 C2122.525,674.72 2129.395,676.32 2136.555,677.93 C2146.895,680.54 2157.245,683.23 2167.815,685.03 C2173.655,686.05 2179.535,686.78 2185.345,687.95 C2195.795,691.02 2206.395,693.64 2217.025,696.04 C2227.535,698 2238.105,699.49 2248.485,702.13 C2247.355,702.27 2247.295,704.03 2248.375,704.3 C2253.405,705.54 2258.415,706.89 2263.415,708.24 C2268.725,709.65 2273.975,711.28 2279.295,712.62 C2286.035,714.34 2292.865,715.62 2299.585,717.34 C2309.565,719.82 2319.445,722.66 2329.395,725.28 C2336.575,727.38 2343.705,729.63 2351.025,731.21 C2356.575,732.22 2850.775,767.38 2878.575,769.9 L2878.575,796.12 L2902.595,796.12 L2902.595,662.07 L2878.575,662.07 z M2274.105,708.89 C2278.455,709.95 2282.785,710.93 2287.125,712.15 C2282.755,711.19 2278.405,710.12 2274.105,708.89 z" fill="#C64F21"/>
    <path d="M2879.745,723.73 L2879.745,723.64 C2830.095,727.51 2668.465,668.92 2549.985,662.16 C2523.865,660.67 2291.875,711.86 2266.605,705.15 C2256.975,702.43 2247.365,699.67 2237.675,697.23 C2221.165,693.42 2204.335,691.19 2187.885,687.12 C2168.295,682.19 2148.775,676.96 2128.965,672.98 C2123.845,671.86 2118.725,670.7 2113.605,669.58 C2112.895,669.42 2112.175,669.27 2111.465,669.12 C2100.855,666.8 2090.205,664.64 2079.445,663.13 C2056.245,660.2 2032.805,659.54 2009.445,660.17 C2003.585,660.44 1997.695,660.5 1991.875,661.13 C1991.295,661.19 1990.715,661.25 1990.145,661.33 C1977.535,663.02 1965.115,665.88 1952.535,667.75 C1946.095,668.73 1939.675,669.82 1933.335,671.27 C1919.835,674.16 1906.255,676.55 1892.775,679.47 C1879.485,682.3 1866.395,686.03 1853.035,688.52 C1836.555,691.89 1819.735,693.05 1803.125,695.61 C1793.335,696.91 1783.695,699.04 1774.025,700.94 C1759.455,703.83 1744.815,706.26 1730.095,708.15 C1724.815,708.88 1719.585,709.85 1714.375,710.89 C1715.125,711.01 1715.855,711.16 1716.595,711.32 C1717.625,711.55 1718.645,711.81 1719.655,712.12 C1719.695,712.14 1719.735,712.14 1719.765,712.16 C1720.885,714.74 1727.925,717.29 1730.245,718.68 C1734.095,720.62 1737.885,722.71 1741.745,724.65 C1752.265,729.72 1763.265,733.73 1774.125,738 C1782.585,741.21 1790.555,745.48 1798.665,749.45 C1811.945,755.66 1825.935,760.37 1839.975,764.54 C1852.175,767.95 1864.615,770.65 1876.465,775.16 C1881.485,777.04 1886.415,779.13 1891.235,781.43 C1899.635,785.26 1908.185,788.81 1916.375,793.08 C1921.945,796.28 1927.495,799.64 1932.885,803.14 C1935.875,805.08 1938.875,807.5 1942.385,808.33 C1943.015,808.48 1943.665,808.57 1944.335,808.61 C1946.945,808.73 1949.545,808.28 1952.025,807.47 C1957.595,805.72 1963.115,803.87 1968.645,802.01 C1973.415,800.35 1978.225,798.82 1983.045,797.33 C1987.975,795.95 1993.055,795.23 1997.975,793.81 C2003.385,792.31 2008.525,789.93 2014.055,788.89 C2023.915,787.84 2033.865,789.13 2043.765,789.06 C2056.215,789.17 2068.725,788.91 2081.045,786.93 C2090.005,785.6 2098.625,782.68 2107.585,781.33 C2128.065,778.39 2148.825,781.1 2169.425,780.27 C2182.955,780.05 2196.365,778.02 2209.675,775.74 C2222.495,773.57 2235.255,771.59 2248.145,769.67 C2266.885,766.61 2285.725,764.14 2304.725,763.63 C2319.595,763.33 2334.505,763.52 2349.365,762.76 C2355.485,762.57 2848.955,851.18 2878.445,854.78 L2878.445,1026.59 L2908.115,1026.59 L2908.115,723.73 L2879.765,723.73 z" fill="#9B3118"/>
  </g>
</svg>
