<?xml version="1.0" encoding="UTF-8"?>
<svg id="Layer_31" data-name="Layer 31" xmlns="http://www.w3.org/2000/svg" xmlns:xlink="http://www.w3.org/1999/xlink" viewBox="0 0 2880 1310">
  <g id="Layer_4" transform="translate(0, 0)">
    <path d="M-29.315,811.206 L847.804,811.206 L973.145,778.67 L1178.392,800.455 L1484.791,808.518 L1729.372,795.08 L1940.465,811.206 L2527.621,811.206 L2908.805,827.332 L2908.805,1313.89 L-29.315,1313.89 L-29.315,811.206 z" fill="#701E13"/>
    <path d="M2879.745,777.05 L2879.745,777.05 C2879.745,777.05 2817.755,803.18 2698.485,805.39 C2582.925,807.53 2411.225,719.48 2303.355,718.29 C2298.335,718.23 2233.045,745.54 2181.085,751.23 C2153.385,754.37 2143.635,771.03 2115.855,773.56 C2103.465,774.67 2091.055,775.61 2078.675,776.77 C2061.865,778.85 2045.115,781.38 2028.295,783.36 C2018.975,784.74 2009.465,785.27 2000.355,787.79 C1985.525,792.52 1971.655,799.29 1956.735,803.93 C1952.005,805.61 1947.205,807.01 1942.375,808.31 C1941.735,808.48 1941.105,808.65 1940.465,808.82 C1941.295,809.22 2140.485,966.57 2161.105,969.21 C2161.385,969.25 2871.385,998.49 2879.725,997.81 L2879.725,1116.49 L2905.455,1116.49 L2905.455,777.05 L2879.755,777.05 z" fill="#701E13"/>
    <path d="M916.935,576.39 C917.345,573.35 918.325,570.67 918.285,567.65 C917.115,565.58 915.975,563.49 914.975,561.34 C914.535,563.7 912.835,565.65 911.185,567.38 C910.735,567.97 910.475,568.64 910.275,569.34 L910.275,569.34 C910.355,569.55 910.365,569.78 910.315,570.01 C910.265,572.84 915.955,575.44 916.835,578.54 C916.855,577.82 916.875,577.11 916.935,576.39 z M926.815,593.52 C927.195,589.45 926.105,585.39 925.885,581.34 C924.595,578.98 923.305,576.61 922.005,574.25 C921.435,573.19 920.845,572.14 920.245,571.08 C920.245,571.12 920.235,571.15 920.235,571.19 C919.915,573.39 919.225,575.26 919.125,577.38 C919.085,579.01 919.085,580.64 918.975,582.27 C919.025,582.36 919.075,582.45 919.105,582.56 C919.915,584.47 921.205,586.08 922.525,587.65 C924.625,590.1 925.335,593.32 925.985,596.4 C926.005,596.73 926.135,597 926.315,597.22 C926.545,596 926.725,594.77 926.815,593.54 z M931.015,596.72 C931.345,594.94 931.525,593.28 931.555,591.59 C930.615,589.91 929.675,588.23 928.745,586.55 C929.025,589 929.245,591.44 929.045,593.9 C928.945,595.5 928.655,597.09 928.315,598.66 C929.015,599.23 929.605,599.94 930.075,600.72 C930.405,599.39 930.725,598.06 931.005,596.72 z M939.275,592.82 C939.275,591.9 939.275,590.98 939.275,590.06 C939.275,581.33 939.265,572.59 939.265,563.86 C939.265,560.37 939.265,556.88 939.265,553.4 C937.395,551.69 935.345,550.18 933.125,548.97 C929.745,547.23 926.255,545.66 922.595,544.64 C920.575,543.9 918.485,544.07 918.145,546.63 C916.695,555.94 924.275,564.72 928.175,572.69 C931.815,579.46 935.505,586.19 939.305,592.83 z M990.965,683 C991.215,681.57 991.475,680.14 991.665,678.7 C990.075,676.59 988.475,674.49 986.875,672.38 C986.115,674 984.755,675.37 983.885,676.95 C983.765,677.22 983.585,677.5 983.745,677.79 C984.175,678.85 984.715,679.86 985.185,680.91 C985.765,682.25 983.745,683.17 983.125,681.83 C982.565,680.43 981.635,679.14 981.425,677.63 C981.515,675.58 983.135,674.13 984.235,672.57 C984.775,671.83 985.045,670.98 985.155,670.11 C983.315,667.69 981.475,665.27 979.625,662.86 C979.665,668.97 979.695,675.08 979.735,681.19 C979.735,682.11 979.745,683.03 979.755,683.95 C981.775,684.4 983.695,685 984.435,685.23 C986.385,685.91 988.315,686.68 990.205,687.54 C990.405,685.99 990.685,684.46 990.975,683 z M1003.265,695.44 C1003.545,695.44 1003.815,695.44 1004.085,695.47 C1000.625,690.68 997.105,685.93 993.555,681.21 C993.135,683.66 992.635,686.11 992.355,688.57 C994.595,689.68 996.775,690.92 998.875,692.27 C999.975,693.09 1000.565,694.38 1001.585,695.29 C1002.125,695.44 1002.705,695.39 1003.265,695.43 z M1033.765,731.9 C1033.815,732.51 1033.315,733.05 1032.705,733.09 C1032.655,733.09 1032.595,733.09 1032.545,733.09 C1032.545,733.09 1032.535,733.11 1032.525,733.11 C1031.925,733.61 1031.485,734.42 1030.645,734.41 C1030.225,734.71 1029.605,734.68 1029.225,734.32 C1029.015,734.11 1028.905,733.9 1028.875,733.68 C1026.145,734.02 1023.525,734.27 1020.785,734.06 C1008.615,732.97 996.365,732.63 984.285,730.64 C976.085,729.42 968.085,727.37 960.005,725.65 C954.125,724.28 948.535,721.94 942.715,720.33 C942.325,720.19 941.925,720.06 941.535,719.91 C941.405,720.36 941.035,720.72 940.525,720.74 C940.505,720.74 940.485,720.74 940.465,720.74 C939.895,720.74 939.335,720.27 939.335,719.67 C939.335,711.04 939.325,702.41 939.325,693.79 C939.325,685.25 939.315,676.71 939.315,668.17 C939.315,659.44 939.315,650.71 939.305,641.98 C939.305,633.26 939.305,624.53 939.295,615.81 C939.295,612.24 939.295,608.67 939.295,605.1 C937.715,602.44 936.175,599.75 934.675,597.03 C934.305,596.38 933.925,595.74 933.565,595.09 C933.275,597.31 932.795,599.5 932.215,601.66 C931.955,602.26 931.905,603.29 931.665,604.08 C931.975,604.86 932.255,605.66 932.405,606.49 C932.785,607.88 932.395,609.39 933.025,610.64 C935.245,612.93 936.615,616.08 936.105,619.31 C935.795,620.45 936.185,622.73 934.475,622.66 C933.175,622.43 933.525,621.11 933.695,620.17 C933.945,618.94 934.055,617.68 933.785,616.45 C933.575,615.55 933.295,614.65 932.755,613.88 C932.105,612.94 931.145,612.18 930.725,611.09 C930.235,608.83 930.445,606.78 929.515,604.69 C929.515,604.69 929.515,604.69 929.515,604.68 C929.475,604.61 929.445,604.54 929.415,604.47 C929.355,604.34 929.285,604.22 929.225,604.1 C928.745,602.88 928.225,601.64 927.285,600.7 C927.225,600.64 927.165,600.59 927.105,600.53 C927.015,600.46 926.925,600.39 926.835,600.32 C926.545,600.1 926.225,599.89 925.915,599.69 C925.005,599.08 924.135,598.43 923.935,597.28 C923.325,594.79 922.955,592.13 921.505,589.96 C920.645,588.8 919.695,587.7 918.855,586.53 C918.855,588.1 918.695,589.68 918.825,591.24 C919.015,593.04 919.405,594.58 919.765,596.24 C920.135,597.65 918.005,598.27 917.595,596.85 C917.165,594.92 916.675,592.97 916.555,590.99 C916.305,588.63 917.055,586.11 916.205,583.85 C913.175,579.79 917.005,580.29 911.815,575.83 C910.915,574.92 909.835,574.03 909.065,572.97 C909.005,573.06 908.935,573.16 908.865,573.25 C907.845,574.73 906.645,576.09 905.565,577.53 C904.725,578.35 904.035,580.53 902.585,579.59 C901.475,578.66 902.775,577.51 903.365,576.7 C904.635,574.93 906.255,573.25 907.345,571.41 C908.145,569.77 908.095,567.8 909.205,566.3 C912.255,563 913.435,561.7 912.685,557.02 C912.595,556.6 912.695,556.19 912.915,555.88 L912.915,555.88 C912.415,554.24 912.045,552.57 911.855,550.84 C910.795,551.62 909.785,552.45 908.915,553.44 C907.025,555.86 902.255,561.07 898.935,560.2 C898.145,560.38 897.185,560.29 897.035,559.32 C896.945,558.71 897.385,558.14 897.985,558.04 C898.905,557.75 899.885,558.33 900.735,557.8 C903.375,556.33 905.505,554.18 907.335,551.82 C908.595,550.41 910.265,549.17 911.785,548.11 C911.965,544.75 912.955,542.23 914.575,540.56 C912.765,539.6 911.225,538.15 910.025,536.43 C909.355,535.45 908.815,534.35 907.905,533.56 C907.035,532.85 906.095,532.22 905.095,531.7 C904.545,531.42 904.385,530.67 904.685,530.16 C905.675,528.52 908.415,531.21 909.435,531.91 C910.425,532.77 911.085,533.91 911.775,535 C912.865,536.44 914.025,537.76 915.615,538.61 C915.965,538.77 916.325,538.9 916.695,539.02 C919.585,537.62 923.545,537.91 928.075,539.98 C931.985,541.47 935.845,543.22 939.295,545.58 C939.295,543.09 939.295,540.6 939.295,538.11 C939.295,531.14 939.285,524.17 939.285,517.21 C939.285,516.61 939.695,516.08 940.305,516.03 C940.475,515.8 940.735,515.64 941.025,515.6 C943.795,515.16 946.605,515.17 949.375,515.6 C952.815,515.99 955.925,516.58 959.035,517.99 C961.305,518.93 963.745,519.51 965.815,520.87 C968.795,521.81 972.135,522.41 974.285,524.89 C975.235,525.65 976.295,526.38 977.365,526.95 C977.835,527.09 978.365,527.32 978.565,527.76 C978.565,527.76 978.565,527.76 978.565,527.76 C978.735,527.94 978.845,528.18 978.845,528.44 C978.845,532.17 978.895,535.91 978.915,539.65 C978.945,543.83 978.965,548.02 978.995,552.2 C979.055,560.66 979.105,569.12 979.155,577.58 C979.205,586.22 979.255,594.87 979.315,603.51 C979.375,612.08 979.425,620.65 979.475,629.21 C979.525,637.05 979.565,644.88 979.615,652.72 C980.775,654.27 981.935,655.81 983.105,657.35 C983.095,657.06 983.085,656.77 983.095,656.48 C983.055,654.49 983.495,652.46 983.515,650.51 C983.565,649.9 984.175,649.46 984.775,649.53 C985.375,649.6 985.775,650.13 985.765,650.63 C985.755,652.15 985.505,653.66 985.395,655.18 C985.275,656.92 985.435,658.65 985.685,660.37 C985.685,660.49 985.685,660.62 985.705,660.77 C985.735,660.81 985.755,660.84 985.785,660.87 C985.955,660.5 986.105,660.18 986.205,659.95 C987.475,657.19 990.245,655.04 990.265,651.8 C990.335,651.11 990.185,650.41 990.295,649.73 C990.595,648.66 991.085,647.66 991.435,646.6 C992.225,644.89 991.065,643.34 990.235,641.91 C988.875,639.6 988.285,636.86 988.875,634.22 C988.995,633.18 989.545,631.45 990.905,632.12 C991.435,632.41 991.655,633.12 991.345,633.65 C990.615,635.81 990.805,638.27 991.935,640.26 C992.095,640.6 992.275,640.93 992.465,641.26 C992.865,639.57 993.765,637.05 995.225,637.81 C995.745,638.1 995.985,638.82 995.665,639.34 C994.715,640.82 994.385,642.71 994.285,644.35 C994.295,644.41 994.305,644.46 994.315,644.52 C996.005,644.09 997.875,644.18 999.195,645.41 C1000.085,646.36 1000.335,647.53 1001.455,648.22 C1002.575,649.18 1003.895,649.72 1005.205,650.24 C1006.575,650.81 1005.755,652.84 1004.375,652.33 C1002.125,651.46 999.825,650.28 998.395,648.28 C997.615,646.11 995.685,646.32 993.875,647.03 C993.795,647.13 993.715,647.21 993.615,647.27 C993.295,648.26 992.835,649.22 992.525,650.18 C992.935,653.97 991.305,656.43 989.175,659.33 C988.465,660.45 987.845,661.63 987.415,662.89 C987.415,662.91 987.415,662.92 987.405,662.93 C989.105,665.16 990.815,667.39 992.515,669.61 C992.515,669.12 992.485,668.62 992.435,668.13 C992.295,666.75 992.025,665.37 992.245,663.98 C992.455,661.32 994.205,658.83 993.775,656.13 C993.565,655.87 993.475,655.53 993.575,655.17 C993.725,654.6 994.365,654.17 994.945,654.35 C996.655,655.12 996.115,657.65 995.835,659.13 C995.105,661.77 993.965,664.41 994.605,667.2 C994.825,668.92 994.795,670.69 994.665,672.43 C995.985,674.16 997.295,675.88 998.605,677.62 C998.895,676.39 999.135,675.16 999.135,673.88 C999.205,672.35 999.225,670.79 998.925,669.28 C998.675,668.65 998.945,667.88 999.635,667.68 C1002.375,666.87 1001.285,675.6 1001.055,677.13 C1000.865,678.08 1000.565,679 1000.355,679.92 C1001.075,680.87 1001.795,681.83 1002.505,682.79 C1002.915,680.79 1003.555,678.81 1003.955,676.83 C1004.315,674.88 1004.165,673.12 1004.475,671.22 C1004.885,669.83 1006.955,670.31 1006.675,671.74 C1006.475,673.33 1006.495,674.83 1006.315,676.37 C1005.925,679.42 1004.605,682.28 1004.425,685.36 C1004.725,685.77 1005.025,686.17 1005.325,686.58 C1005.445,685.38 1005.595,684.18 1005.745,683 C1005.855,682.02 1006.055,681.06 1006.185,680.08 C1006.215,679.31 1007.015,678.69 1007.765,679 C1008.295,679.21 1008.625,679.86 1008.415,680.41 C1008.095,682.34 1007.855,684.27 1007.655,686.21 C1007.515,687.27 1007.425,688.34 1007.415,689.41 C1009.755,692.62 1012.055,695.85 1014.315,699.11 C1016.685,702.45 1018.995,705.83 1021.185,709.28 C1022.555,710.57 1023.865,711.91 1024.865,713.53 C1025.915,715.24 1027.025,716.91 1028.605,718.19 C1029.905,719.26 1031.295,720.34 1031.885,721.98 C1032.705,724.7 1033.375,727.48 1033.725,730.3 C1033.875,730.57 1033.915,730.9 1033.825,731.19 C1033.845,731.41 1033.865,731.64 1033.885,731.86 z" fill="#C64F21"/>
    <path d="M972.485,775.49 C968.145,773.68 964.365,771.32 960.125,769.07 C956.395,766.89 952.355,765.08 948.745,762.66 C944.615,759.74 940.395,756.94 936.145,754.21 C929.325,749.73 922.115,745.89 915.165,741.62 C908.155,737.2 901.135,732.79 894.075,728.45 C880.575,720.03 867.455,710.79 852.915,704.19 C843.365,700.07 833.635,696.35 824.275,691.8 C814.005,687.02 800.185,684.24 795.815,672.42 C795.245,670.18 795.895,667.51 797.605,665.85 C799.715,663.97 801.995,662.48 804.575,661.27 C805.665,660.4 808.445,658.78 807.785,657.63 C805.275,657.62 802.765,657.88 800.305,658.33 C794.605,659.53 789.685,662.84 784.335,665.01 C775.475,669.21 765.805,671.51 756.675,675.07 C746.135,679.16 735.795,683.76 725.155,687.59 C676.135,705.25 536.515,727.64 511.405,732.2 C418.825,749.01 303.315,704.69 228.775,709.17 C98.845,722.74 9.165,775.11 0.125,776.98 L-28.015,776.98 L-28.015,1114.93 L0.125,1114.93 L0.125,1018.7 C17.395,1016.71 526.925,964.71 534.525,963.36 C565.205,957.28 595.985,951.4 626.165,943.12 C661.485,933.37 694.425,916.99 729.405,906.2 C748.725,899.65 767.715,892.2 786.905,885.31 C806.385,878.05 826.155,871.49 845.275,863.33 C853.445,859.6 861.025,854.75 868.755,850.21 C877.335,845.08 885.995,840.03 894.345,834.52 C900.435,830.39 906.255,825.89 912.235,821.61 C916.145,818.81 920.125,816.08 923.845,813.03 C928.365,809.08 932.955,805.21 937.805,801.66 C948.935,793.36 960.315,785.35 972.335,778.37 C972.605,778.47 972.875,778.57 973.145,778.67 C973.285,778.57 973.415,778.47 973.555,778.38 C973.975,778.05 974.405,777.71 974.835,777.38 C974.055,776.75 973.265,776.12 972.475,775.5 z" fill="#701E13"/>
    <path d="M1029.565,733.91 C1025.845,737.8 1021.895,741.45 1017.815,744.97 C1010.485,751.17 1003.235,757.5 995.635,763.38 C989.655,767.79 983.385,771.78 977.015,775.6 C977.175,775.73 973.265,776.11 972.475,775.48 C968.135,773.67 964.355,771.31 960.115,769.06 C956.385,766.88 952.345,765.07 948.735,762.65 C944.605,759.73 940.385,756.93 936.135,754.2 C929.315,749.72 922.105,745.88 915.155,741.61 C908.145,737.19 901.125,732.78 894.065,728.44 C880.565,720.02 867.445,710.78 852.905,704.18 C843.355,700.06 833.625,696.34 824.265,691.79 C813.995,687.01 800.175,684.23 795.805,672.41 C795.235,670.17 795.885,667.5 797.595,665.84 C799.705,663.96 801.985,662.47 804.565,661.26 C805.655,660.39 808.435,658.77 807.775,657.62 C807.775,657.62 807.775,657.62 807.775,657.61 C808.265,657.61 808.765,657.64 809.255,657.65 L809.295,657.65 C809.295,657.65 809.355,657.67 809.375,657.67 C809.375,657.67 809.385,657.67 809.395,657.67 C809.405,657.67 809.415,657.67 809.425,657.67 L809.425,657.67 C809.425,657.67 809.425,657.67 809.425,657.67 C809.505,657.68 809.585,657.7 809.675,657.7 C809.735,657.7 809.805,657.72 809.865,657.72 C809.965,657.73 810.055,657.74 810.155,657.75 L810.155,657.75 C810.255,657.76 810.345,657.77 810.445,657.78 C810.735,657.81 811.025,657.83 811.315,657.86 C811.515,657.88 811.705,657.9 811.905,657.91 C819.545,659.57 826.565,663.32 833.825,666.12 C844.735,670.55 855.565,675.19 866.345,679.94 C874.015,683.21 881.755,686.32 889.295,689.88 C900.815,695.51 912.245,701.56 924.215,706.18 C938.785,711.78 953.715,716.54 968.875,720.26 C988.995,724.99 1009.545,728.52 1030.205,729.12 C1030.265,729.03 1030.345,728.94 1030.435,728.87 C1030.725,728.65 1031.095,728.59 1031.425,728.68 C1031.435,728.68 1031.445,728.68 1031.455,728.69 C1031.485,728.7 1031.515,728.71 1031.545,728.72 C1031.535,728.72 1031.525,728.72 1031.515,728.71 C1031.555,728.72 1031.585,728.74 1031.625,728.75 C1031.615,728.75 1031.605,728.75 1031.595,728.74 C1031.635,728.76 1031.665,728.78 1031.705,728.8 C1031.685,728.78 1031.655,728.77 1031.635,728.76 C1031.895,728.87 1032.075,729.01 1032.195,729.17 C1033.965,729.21 1030.065,733.29 1029.565,733.89 z" fill="#9B3118"/>
  </g>
</svg>
